<?xml version="1.0" encoding="utf-8"?>
<!-- Generator: Adobe Illustrator 23.0.5, SVG Export Plug-In . SVG Version: 6.00 Build 0)  -->
<svg version="1.1" id="Capa_1" xmlns="http://www.w3.org/2000/svg" xmlns:xlink="http://www.w3.org/1999/xlink" x="0px" y="0px"
	 viewBox="0 0 200 200" style="enable-background:new 0 0 200 200;" xml:space="preserve">
<style type="text/css">
	.st0{fill:#B3C57E;}
</style>
<g id="Grupo_125" transform="translate(5 1.001)">
	<g id="Trazado_111">
		<path class="st0" d="M94.62,162.29c-0.23,0-0.47,0-0.71,0c-4.72,0-9.49-0.27-14.18-0.81c-5.59-0.58-11.2-1.66-16.64-3.21
			c-4.17-1.13-8.21-2.83-11.96-5.06c-2.51-1.41-4.75-3.49-6.39-5.96c-1.1-1.73-1.67-3.66-1.69-5.64
			c-0.01-5.79,1.34-11.57,3.89-16.75c2.48-5.06,6.15-9.57,10.6-13.04c4.74-3.73,10.39-6.29,16.34-7.4c1.48-0.36,3.21,0.02,4.56,1.08
			c3.33,2.44,7.39,4.03,11.63,4.51c3.27,0.39,6.57,0.34,9.81-0.12c3.01-0.44,5.87-1.46,8.5-3.03c0.51-0.31,1.01-0.64,1.51-0.97
			c0.43-0.29,0.87-0.58,1.3-0.85c0.98-0.6,2.11-0.84,3.17-0.73c3.94,0.64,7.52,1.82,10.88,3.54c3.37,1.7,6.47,3.9,9.18,6.54
			c2.79,2.69,5.14,5.79,6.99,9.2c2.03,3.68,3.39,7.68,4.03,11.87c0.31,2.2,0.46,4.36,0.47,6.5c-0.13,2.7-1.13,5.07-2.84,6.9
			c-1.68,1.96-3.82,3.67-6.25,4.95c-4.93,2.64-10.23,4.55-15.73,5.67c-3.54,0.81-7.25,1.44-10.95,1.87
			C105.02,161.98,99.79,162.29,94.62,162.29z M94.25,154.41L94.25,154.41c4.97,0.03,10.02-0.28,14.97-0.87
			c3.43-0.39,6.86-0.98,10.2-1.75c4.84-0.99,9.42-2.64,13.69-4.93c1.57-0.83,2.94-1.92,4.09-3.25c0.54-0.59,0.8-1.19,0.83-1.83
			c-0.01-1.57-0.13-3.38-0.38-5.17c-0.49-3.22-1.56-6.35-3.15-9.24c-1.47-2.73-3.33-5.18-5.54-7.31c-2.15-2.08-4.6-3.82-7.28-5.18
			c-2.3-1.18-4.72-2.03-7.23-2.55l-0.18,0.12c-0.61,0.41-1.22,0.81-1.85,1.18c-3.51,2.1-7.35,3.46-11.4,4.06
			c-3.94,0.56-7.92,0.61-11.84,0.15c-5.27-0.6-10.33-2.49-14.7-5.5c-4.49,1-8.59,2.94-12.07,5.68c-3.53,2.75-6.43,6.32-8.39,10.32
			c-2.03,4.1-3.09,8.67-3.08,13.23c0,0.48,0.15,0.96,0.41,1.38c0.92,1.38,2.22,2.59,3.73,3.44c3.22,1.91,6.6,3.34,10.13,4.29
			c5.05,1.44,10.21,2.43,15.39,2.97c4.44,0.51,8.91,0.77,13.33,0.77c0.11,0,0.22,0,0.33,0L94.25,154.41L94.25,154.41z M75.52,112.12
			c-0.07,0.01-0.15,0.03-0.22,0.04C75.38,112.16,75.45,112.14,75.52,112.12z M73.68,111.78c0.03,0.03,0.06,0.05,0.1,0.07
			C73.74,111.82,73.71,111.8,73.68,111.78z"/>
	</g>
	<g id="Trazado_112">
		<path class="st0" d="M94.65,97.95c-0.04,0-0.08,0-0.12,0c-4.62,0-9.13-1.29-13.05-3.73c-4.49-2.73-8.31-6.58-11.03-11.12
			c-2.49-3.93-4.16-8.34-4.92-13.04c-0.92-5.47-0.28-11.09,1.85-16.24c1.81-4.36,4.69-8.27,8.33-11.29c3.93-3.3,8.71-5.51,13.8-6.37
			c5.6-1.01,11.37-0.33,16.63,1.97c4.91,2.09,9.16,5.52,12.27,9.91c2.28,3.15,3.88,6.69,4.74,10.51c1.34,6.15,0.82,12.46-1.49,18.27
			c-1.65,4.45-4.18,8.52-7.49,12.04c-3.14,3.41-7.14,6.09-11.54,7.69C100.04,97.49,97.36,97.95,94.65,97.95z M94.55,90.07h0.02
			c1.69,0.06,3.66-0.3,5.4-0.91c3.18-1.16,6.11-3.12,8.43-5.65c2.62-2.78,4.59-5.96,5.9-9.49c1.76-4.44,2.15-9.17,1.15-13.75
			c-0.62-2.75-1.78-5.32-3.45-7.63c-2.29-3.23-5.39-5.73-8.99-7.27c-3.85-1.69-8.05-2.18-12.15-1.44c-3.75,0.63-7.23,2.24-10.1,4.65
			c-2.68,2.22-4.78,5.07-6.1,8.26c-1.57,3.78-2.04,7.91-1.36,11.93c0.6,3.67,1.89,7.09,3.85,10.2c2.11,3.53,5.02,6.45,8.45,8.54
			c2.7,1.68,5.78,2.56,8.93,2.56C94.54,90.07,94.55,90.07,94.55,90.07z"/>
	</g>
</g>
</svg>
