<?xml version="1.0" encoding="utf-8"?>
<!-- Generator: Adobe Illustrator 23.0.5, SVG Export Plug-In . SVG Version: 6.00 Build 0)  -->
<svg version="1.1" id="Capa_1" xmlns="http://www.w3.org/2000/svg" xmlns:xlink="http://www.w3.org/1999/xlink" x="0px" y="0px"
	 viewBox="0 0 200 200" style="enable-background:new 0 0 200 200;" xml:space="preserve">
<style type="text/css">
	.st0{fill:none;}
	.st1{fill:#B3C57E;}
</style>
<g id="Grupo_126" transform="matrix(0.695, -0.719, 0.719, 0.695, -219.229, -72.525)">
	<g id="Rectángulo_119" transform="translate(36 270)">
		<g>
			<path class="st0" d="M22.78,42.57h78.08c13.05,0,23.64,10.58,23.64,23.64v26.46c0,13.05-10.58,23.64-23.64,23.64H22.78
				c-13.05,0-23.64-10.58-23.64-23.64l0-26.46C-0.86,53.16,9.72,42.57,22.78,42.57z"/>
		</g>
		<g>
			<path class="st1" d="M5.79,109.09c-4.11-4.25-6.65-10.04-6.65-16.42l0-26.46c0-13.03,10.6-23.64,23.64-23.64h78.08
				c13.03-0.01,23.64,10.61,23.64,23.64v26.46c0,13.03-10.61,23.63-23.64,23.63H22.78C16.12,116.31,10.09,113.54,5.79,109.09z
				 M22.78,50.45c-8.69,0-15.76,7.07-15.76,15.76v26.46c-0.01,8.69,7.07,15.76,15.76,15.76h78.08c8.69,0,15.76-7.07,15.76-15.76
				V66.21c0-8.69-7.06-15.76-15.76-15.76H22.78z"/>
		</g>
	</g>
	<g id="Rectángulo_120">
		
			<rect x="35.14" y="334.69" transform="matrix(-1 5.055462e-06 -5.055462e-06 -1 166.1341 680.4363)" class="st1" width="95.86" height="11.06"/>
	</g>
	<g id="Rectángulo_121">
		
			<rect x="138.38" y="334.69" transform="matrix(-1 5.055462e-06 -5.055462e-06 -1 298.8744 680.4358)" class="st1" width="22.12" height="11.06"/>
	</g>
	<g id="Línea_17">
		
			<rect x="48.05" y="362.06" transform="matrix(-1 -5.628580e-03 5.628580e-03 -1 149.3456 732.4254)" class="st1" width="55.3" height="7.88"/>
	</g>
	<g id="Línea_18">
		
			<rect x="114.42" y="362.06" transform="matrix(-0.9999 0.0124 -0.0124 -0.9999 255.4946 730.4109)" class="st1" width="22.12" height="7.88"/>
	</g>
</g>
</svg>
