<?xml version="1.0" encoding="utf-8"?>
<!-- Generator: Adobe Illustrator 23.0.5, SVG Export Plug-In . SVG Version: 6.00 Build 0)  -->
<svg version="1.1" id="Capa_1" xmlns="http://www.w3.org/2000/svg" xmlns:xlink="http://www.w3.org/1999/xlink" x="0px" y="0px"
	 viewBox="0 0 200 200" style="enable-background:new 0 0 200 200;" xml:space="preserve">
<style type="text/css">
	.st0{fill:#B3C57E;}
</style>
<g id="Grupo_128" transform="translate(-15 -134.999)">
	<g id="Grupo_127">
		<g id="Trazado_113">
			<path class="st0" d="M114.56,292.09c-0.28,0-0.56-0.03-0.85-0.09c-33.69-7.37-41.39-44.69-46.48-69.38
				c-1.02-4.95-1.9-9.23-2.87-12.7c-0.52-1.86,0.4-3.83,2.15-4.63c34.44-15.81,45.16-26.13,45.27-26.24
				c1.55-1.52,4.04-1.51,5.57,0.03c1.53,1.54,1.53,4.02-0.01,5.55c-0.44,0.44-10.87,10.66-44.55,26.43
				c0.72,3.02,1.43,6.42,2.16,9.96c4.96,24.06,11.76,57,40.45,63.28c2.12,0.46,3.47,2.56,3,4.69
				C118,290.83,116.37,292.09,114.56,292.09z"/>
		</g>
		<g id="Trazado_114">
			<path class="st0" d="M115.43,292.09c-1.81,0-3.44-1.25-3.84-3.1c-0.47-2.13,0.88-4.23,3-4.69c28.69-6.27,35.49-39.22,40.45-63.28
				c0.73-3.54,1.44-6.94,2.16-9.96c-33.68-15.77-44.11-25.99-44.55-26.43c-1.54-1.54-1.54-4.03,0-5.57s4.02-1.54,5.56-0.01
				c0.17,0.16,10.92,10.47,45.27,26.23c1.76,0.81,2.67,2.77,2.15,4.63c-0.97,3.47-1.85,7.75-2.87,12.7
				c-5.09,24.69-12.8,62.01-46.48,69.38C115.99,292.06,115.71,292.09,115.43,292.09z"/>
		</g>
	</g>
	<g id="Trazado_115">
		<polygon class="st0" points="81.42,237.48 76.36,212.77 95.09,203.51 96.84,207.04 80.83,214.96 85.28,236.69 		"/>
	</g>
	<g id="Trazado_116">
		<path class="st0" d="M121.06,277.38l-1.34-3.71c9.63-3.47,16.75-13.72,22.42-32.26l3.77,1.15
			C139.85,262.39,131.95,273.46,121.06,277.38z"/>
	</g>
	<g id="Trazado_117">
		<path class="st0" d="M109.7,252.08c-1.08,0-2.12-0.45-2.86-1.23l-12.8-13.53c-1.5-1.58-1.43-4.07,0.15-5.57
			c1.58-1.49,4.07-1.43,5.57,0.15l9.87,10.43l25.05-27.8c1.47-1.62,3.95-1.75,5.57-0.29s1.74,3.95,0.29,5.56l-27.91,30.97
			c-0.74,0.82-1.78,1.28-2.88,1.3C109.73,252.08,109.71,252.08,109.7,252.08z"/>
	</g>
</g>
</svg>
