<?xml version="1.0" encoding="utf-8"?>
<!-- Generator: Adobe Illustrator 23.0.5, SVG Export Plug-In . SVG Version: 6.00 Build 0)  -->
<svg version="1.1" id="Capa_1" xmlns="http://www.w3.org/2000/svg" xmlns:xlink="http://www.w3.org/1999/xlink" x="0px" y="0px"
	 viewBox="0 0 200 200" style="enable-background:new 0 0 200 200;" xml:space="preserve">
<style type="text/css">
	.st0{fill:none;}
	.st1{fill:#B3C57E;}
</style>
<g id="Grupo_129" transform="translate(-17 -134.999)">
	<g id="Rectángulo_122" transform="translate(22 341)">
		<g>
			<path class="st0" d="M75.31-173.34h39.4c15.23,0,27.58,12.35,27.58,27.58v78.79c0,15.23-12.35,27.58-27.58,27.58h-39.4
				c-15.23,0-27.58-12.35-27.58-27.58v-78.79C47.72-160.99,60.07-173.34,75.31-173.34z"/>
		</g>
		<g>
			<path class="st1" d="M114.69-39.39h-39.4c-15.2,0-27.58-12.37-27.58-27.58v-78.79c0-15.2,12.37-27.58,27.58-27.58h39.4
				c15.2,0,27.58,12.37,27.58,27.58v78.79C142.28-51.76,129.9-39.39,114.69-39.39z M75.31-165.46c-10.86,0-19.7,8.84-19.7,19.7
				v78.79c0,10.86,8.84,19.7,19.7,19.7h39.4c10.86,0,19.7-8.84,19.7-19.7v-78.79c0-10.86-8.84-19.7-19.7-19.7L75.31-165.46
				L75.31-165.46z"/>
		</g>
	</g>
	<g id="Línea_19">
		<path class="st1" d="M147.82,211.04h-33.03c-2.18,0-3.94-1.76-3.94-3.94s1.76-3.94,3.94-3.94h33.03c2.18,0,3.94,1.76,3.94,3.94
			S150,211.04,147.82,211.04z"/>
	</g>
	<g id="Línea_20">
		<path class="st1" d="M147.82,239.46h-33.03c-2.18,0-3.94-1.76-3.94-3.94s1.76-3.94,3.94-3.94h33.03c2.18,0,3.94,1.76,3.94,3.94
			C151.76,237.69,150,239.46,147.82,239.46z"/>
	</g>
	<g id="Línea_21">
		<path class="st1" d="M147.82,268.75h-33.03c-2.18,0-3.94-1.76-3.94-3.94s1.76-3.94,3.94-3.94h33.03c2.18,0,3.94,1.76,3.94,3.94
			C151.76,266.98,150,268.75,147.82,268.75z"/>
	</g>
	<g id="Rectángulo_123" transform="translate(27 350)">
		<g>
			<path class="st1" d="M66.37-146.88h3.94c2.18,0,3.94,1.76,3.94,3.94v3.94c0,2.18-1.76,3.94-3.94,3.94h-3.94
				c-2.18,0-3.94-1.76-3.94-3.94v-3.94C62.43-145.12,64.19-146.88,66.37-146.88z"/>
		</g>
		<g>
			<path class="st1" d="M70.31-135.06h-3.94c-2.18,0-3.94-1.76-3.94-3.94v-3.94c0-2.18,1.76-3.94,3.94-3.94h3.94
				c2.18,0,3.94,1.76,3.94,3.94v3.94C74.25-136.82,72.47-135.06,70.31-135.06z"/>
		</g>
	</g>
	<g id="Rectángulo_124" transform="translate(27 356)">
		<g>
			<path class="st1" d="M66.37-129.25h3.94c2.18,0,3.94,1.76,3.94,3.94v3.94c0,2.18-1.76,3.94-3.94,3.94h-3.94
				c-2.18,0-3.94-1.76-3.94-3.94v-3.94C62.43-127.48,64.19-129.25,66.37-129.25z"/>
		</g>
		<g>
			<path class="st1" d="M70.31-117.43h-3.94c-2.18,0-3.94-1.76-3.94-3.94v-3.94c0-2.18,1.76-3.94,3.94-3.94h3.94
				c2.18,0,3.94,1.76,3.94,3.94v3.94C74.25-119.19,72.47-117.43,70.31-117.43z"/>
		</g>
	</g>
	<g id="Rectángulo_125" transform="translate(27 364)">
		<g>
			<path class="st1" d="M66.37-105.73h3.94c2.18,0,3.94,1.76,3.94,3.94v3.94c0,2.18-1.76,3.94-3.94,3.94h-3.94
				c-2.18,0-3.94-1.76-3.94-3.94v-3.94C62.43-103.96,64.19-105.73,66.37-105.73z"/>
		</g>
		<g>
			<path class="st1" d="M70.31-93.91h-3.94c-2.18,0-3.94-1.76-3.94-3.94v-3.94c0-2.18,1.76-3.94,3.94-3.94h3.94
				c2.18,0,3.94,1.76,3.94,3.94v3.94C74.25-95.67,72.47-93.91,70.31-93.91z"/>
		</g>
	</g>
</g>
</svg>
