<?xml version="1.0" encoding="utf-8"?>
<!-- Generator: Adobe Illustrator 23.0.5, SVG Export Plug-In . SVG Version: 6.00 Build 0)  -->
<svg version="1.1" id="Capa_1" xmlns="http://www.w3.org/2000/svg" xmlns:xlink="http://www.w3.org/1999/xlink" x="0px" y="0px"
	 viewBox="0 0 200 200" style="enable-background:new 0 0 200 200;" xml:space="preserve">
<style type="text/css">
	.st0{fill:#B3C57E;}
</style>
<g id="Grupo_133" transform="translate(-20 -133.999)">
	<g id="Grupo_130-2" transform="translate(25 488.553)">
		<g id="Grupo_129-2" transform="translate(0 0)">
			<g id="Trazado_111-2">
				<path class="st0" d="M90.55-185.72c-0.37,0-0.75,0-1.12,0c-3.84,0-7.73-0.22-11.56-0.66c-4.66-0.48-9.32-1.38-13.82-2.66
					c-3.49-0.95-6.88-2.38-10.02-4.24c-2.15-1.21-4.07-3-5.48-5.13c-0.98-1.55-1.49-3.26-1.5-5.02c-0.01-4.88,1.12-9.75,3.28-14.12
					c2.09-4.25,5.17-8.05,8.93-10.98c3.99-3.14,8.75-5.3,13.77-6.23c1.39-0.33,3.05,0.03,4.33,1.05c2.6,1.91,5.83,3.17,9.21,3.56
					c2.62,0.3,5.28,0.28,7.9-0.1c2.39-0.35,4.66-1.15,6.74-2.39c0.43-0.26,0.84-0.53,1.25-0.81l1.01-0.67
					c0.98-0.59,2.01-0.81,3.06-0.72c3.38,0.55,6.4,1.54,9.23,2.99c2.82,1.43,5.43,3.28,7.73,5.5c2.35,2.27,4.33,4.87,5.88,7.76
					c1.71,3.1,2.86,6.48,3.4,10.01c0.26,1.83,0.39,3.65,0.39,5.46c-0.11,2.42-1.01,4.54-2.54,6.16c-1.42,1.66-3.25,3.12-5.33,4.21
					c-4.11,2.2-8.54,3.8-13.13,4.74c-2.93,0.67-6.02,1.2-9.09,1.55C98.92-185.97,94.71-185.72,90.55-185.72z M89.91-193.6h0.02
					c4.11-0.01,8.17-0.2,12.23-0.68c2.79-0.32,5.59-0.8,8.33-1.42c3.93-0.81,7.64-2.14,11.1-4c1.22-0.64,2.28-1.49,3.17-2.52
					c0.36-0.39,0.5-0.73,0.52-1.08c-0.01-1.25-0.11-2.71-0.31-4.14c-0.39-2.56-1.24-5.06-2.52-7.37c-1.18-2.2-2.67-4.16-4.44-5.86
					c-1.73-1.67-3.69-3.07-5.83-4.15c-1.75-0.9-3.59-1.56-5.5-1.98c-0.48,0.32-0.96,0.64-1.45,0.93c-2.97,1.77-6.21,2.92-9.64,3.42
					c-3.32,0.47-6.65,0.52-9.93,0.12c-4.35-0.5-8.53-2.04-12.17-4.48c-3.49,0.82-6.66,2.35-9.37,4.48
					c-2.84,2.21-5.16,5.06-6.73,8.26c-1.62,3.29-2.48,6.95-2.47,10.59c0,0.26,0.08,0.54,0.24,0.78c0.68,1.03,1.67,1.94,2.81,2.59
					c2.6,1.55,5.32,2.7,8.18,3.47c4.12,1.18,8.33,1.99,12.56,2.42c3.74,0.43,7.48,0.63,11.17,0.61h0.03V-193.6z M74.65-227.06
					c-0.08,0.02-0.15,0.03-0.23,0.05C74.5-227.02,74.57-227.04,74.65-227.06z M72.56-227.46c0.05,0.03,0.09,0.07,0.14,0.1
					C72.65-227.39,72.61-227.43,72.56-227.46z"/>
			</g>
			<g id="Trazado_112-2">
				<path class="st0" d="M90.14-238.72c-3.93,0-7.78-1.1-11.12-3.17c-3.79-2.3-7.02-5.56-9.31-9.39c-2.09-3.31-3.5-7.04-4.14-10.99
					c-0.78-4.63-0.24-9.39,1.57-13.75c1.54-3.7,3.98-7.01,7.07-9.56c3.33-2.81,7.39-4.69,11.71-5.41c4.74-0.85,9.63-0.28,14.09,1.67
					c4.16,1.78,7.77,4.69,10.4,8.4c1.93,2.66,3.29,5.66,4.02,8.89c1.13,5.21,0.69,10.55-1.26,15.47c-1.38,3.74-3.52,7.17-6.31,10.14
					c-2.66,2.89-6.06,5.16-9.8,6.51c-2.22,0.79-4.54,1.19-6.89,1.19l0,0C90.16-238.72,90.15-238.72,90.14-238.72z M90.21-283.5
					c-0.98,0-1.97,0.09-2.94,0.27c-2.98,0.5-5.73,1.77-8.01,3.69c-2.13,1.77-3.79,4.02-4.84,6.54c-1.24,2.99-1.61,6.26-1.07,9.44
					c0.47,2.93,1.51,5.66,3.08,8.15c1.69,2.82,4,5.14,6.73,6.81c2.12,1.32,4.53,2.01,6.99,2.01c0,0,0.01,0,0.02,0l0,0
					c1.45,0,2.87-0.24,4.22-0.73c2.53-0.92,4.86-2.47,6.7-4.47c2.09-2.22,3.67-4.76,4.72-7.59c1.4-3.54,1.71-7.29,0.92-10.94
					c-0.49-2.15-1.41-4.19-2.73-6.01c-1.81-2.55-4.26-4.53-7.12-5.76C94.75-283.03,92.48-283.5,90.21-283.5z"/>
			</g>
		</g>
	</g>
	<g id="Trazado_124">
		<path class="st0" d="M85.32,195.59c-1.08,0-2.12-0.45-2.86-1.23l-9.31-9.85c-1.5-1.58-1.42-4.07,0.15-5.57
			c1.58-1.49,4.07-1.43,5.57,0.15l6.38,6.75l17.44-19.36c1.45-1.63,3.95-1.75,5.56-0.29c1.62,1.46,1.75,3.95,0.29,5.56l-20.3,22.53
			c-0.74,0.82-1.78,1.29-2.88,1.3C85.35,195.59,85.33,195.59,85.32,195.59z"/>
	</g>
	<g id="Grupo_132" transform="translate(40.89 480.794)">
		<g id="Línea_22">
			<path class="st0" d="M120.63-283.38c-1.01,0-2.02-0.38-2.79-1.15l-22.93-22.93c-1.54-1.54-1.54-4.03,0-5.57
				c1.54-1.54,4.03-1.54,5.57,0l22.93,22.93c1.54,1.54,1.54,4.03,0,5.57C122.64-283.76,121.63-283.38,120.63-283.38z"/>
		</g>
		<g id="Línea_23">
			<path class="st0" d="M97.7-283.38c-1.01,0-2.02-0.38-2.79-1.15c-1.54-1.54-1.54-4.03,0-5.57l22.93-22.93
				c1.54-1.54,4.03-1.54,5.57,0c1.54,1.54,1.54,4.03,0,5.57l-22.93,22.93C99.71-283.76,98.7-283.38,97.7-283.38z"/>
		</g>
	</g>
</g>
</svg>
