<?xml version="1.0" encoding="utf-8"?>
<!-- Generator: Adobe Illustrator 23.0.5, SVG Export Plug-In . SVG Version: 6.00 Build 0)  -->
<svg version="1.1" id="Capa_1" xmlns="http://www.w3.org/2000/svg" xmlns:xlink="http://www.w3.org/1999/xlink" x="0px" y="0px"
	 viewBox="0 0 200 200" style="enable-background:new 0 0 200 200;" xml:space="preserve">
<style type="text/css">
	.st0{fill:#B3C57E;}
</style>
<g id="Grupo_131" transform="translate(-15 -133.999)">
	<g id="Grupo_130" transform="matrix(0.914, 0.407, -0.407, 0.914, 231.952, -142.642)">
		<g id="Trazado_118">
			<path class="st0" d="M53.43,457.89c-3.21,1.43-6.81,2.16-10.4,2.16c-10.88,0-21.91-6.7-21.9-19.5V400.9
				c0-5.03,1.64-9.18,4.88-12.32c6.12-5.94,15.78-5.74,16.19-5.73c2.17,0.06,3.88,1.88,3.82,4.05s-1.87,3.88-4.04,3.82
				c-0.14,0-6.83-0.07-10.51,3.52c-1.66,1.63-2.47,3.8-2.47,6.65v39.65c0,3.59,1.37,6.46,4.08,8.55c2.54,1.95,6.16,3.07,9.95,3.07
				c3.79,0,7.41-1.11,9.95-3.07c2.7-2.08,4.08-4.96,4.08-8.55v-27.25c0-2.17,1.76-3.95,3.93-3.94c2.18,0,3.94,1.76,3.94,3.93v27.25
				C64.94,449.14,59.98,454.98,53.43,457.89z"/>
		</g>
		<g id="Trazado_119">
			<path class="st0" d="M54.75,406.63c-5.24,2.34-10.59,2.22-10.89,2.21c-2.17-0.06-3.88-1.88-3.82-4.05
				c0.06-2.16,1.86-3.88,4.04-3.82c0.14,0,6.82,0.09,10.51-3.53c1.66-1.62,2.46-3.8,2.46-6.65l0-39.65
				c0-9.18-8.82-11.62-14.03-11.62S29,341.96,28.99,351.15l0,27.23c0,2.17-1.75,3.94-3.94,3.93c-2.17,0-3.94-1.76-3.93-3.94l0-27.23
				c0-12.8,11.01-19.49,21.9-19.5s21.91,6.7,21.91,19.49v39.65c0,5.03-1.64,9.18-4.87,12.32C58.45,404.67,56.61,405.8,54.75,406.63z
				"/>
		</g>
	</g>
	<g id="Trazado_120">
		<path class="st0" d="M140.99,240.2c-0.28,0-0.57-0.06-0.85-0.19c-0.98-0.47-1.4-1.64-0.93-2.62l0.87-1.83
			c3.97-8.35,3.97-8.35,7.88-17.15l3.84-8.63c4.18-8.01,5.12-15.78,2.75-22.6c-2.39-6.89-7.48-11.26-11.46-13.04
			c-0.99-0.45-1.44-1.61-0.99-2.6c0.44-0.99,1.61-1.44,2.6-0.99c4.72,2.12,10.76,7.26,13.57,15.35c1.9,5.49,2.94,14.38-2.93,25.6
			l-3.78,8.51c-3.93,8.85-3.93,8.85-7.92,17.25l-0.87,1.83C142.44,239.78,141.73,240.2,140.99,240.2z"/>
	</g>
	<g id="Trazado_123">
		<path class="st0" d="M87.13,282.49c-0.31,0-0.63-0.07-0.92-0.23c-0.27-0.15-0.54-0.3-0.8-0.48c-1.89-1.27-3.17-3.2-3.6-5.43
			s0.02-4.5,1.29-6.39l0.88-2.04c0.92-2.07,0.92-2.07,1.97-4.27c0.47-0.99,1.7-1.54,2.69-1.07c0.98,0.47,1.47,1.5,1,2.49l-0.13,0.27
			c-1.03,2.16-1.03,2.16-1.92,4.18l-1.04,2.35c-0.85,1.32-1.1,2.54-0.86,3.74s0.92,2.24,1.94,2.92c0.14,0.1,0.29,0.18,0.44,0.26
			c0.96,0.51,1.33,1.7,0.82,2.66C88.52,282.11,87.83,282.49,87.13,282.49z"/>
	</g>
</g>
</svg>
