<?xml version="1.0" encoding="utf-8"?>
<!-- Generator: Adobe Illustrator 23.0.5, SVG Export Plug-In . SVG Version: 6.00 Build 0)  -->
<svg version="1.1" id="Capa_1" xmlns="http://www.w3.org/2000/svg" xmlns:xlink="http://www.w3.org/1999/xlink" x="0px" y="0px"
	 viewBox="0 0 200 200" style="enable-background:new 0 0 200 200;" xml:space="preserve">
<style type="text/css">
	.st0{fill:#B3C67F;}
</style>
<g id="Grupo_135" transform="translate(-21 -340)">
	<g id="Trazado_126_1_">
		<path class="st0" d="M139.79,503.71h-37.59c-16.58,0-30.07-13.49-30.07-30.07v-65.99c0-2.08,1.68-3.76,3.76-3.76h27.72v-31.74
			c0-2.08,1.68-3.76,3.76-3.76h32.41c16.58,0,30.07,13.49,30.07,30.07v75.17C169.86,490.22,156.37,503.71,139.79,503.71z
			 M79.65,411.41v62.23c0,12.44,10.12,22.55,22.55,22.55h37.59c12.44,0,22.55-10.12,22.55-22.55v-75.17
			c0-12.44-10.12-22.55-22.55-22.55h-28.66v31.74c0,2.08-1.68,3.76-3.76,3.76H79.65z"/>
	</g>
	<g id="Línea_20_1_">
		<path class="st0" d="M150.41,406.83H118.9c-2.08,0-3.76-1.68-3.76-3.76s1.68-3.76,3.76-3.76h31.51c2.08,0,3.76,1.68,3.76,3.76
			S152.49,406.83,150.41,406.83z"/>
	</g>
	<g id="Línea_21_1_">
		<path class="st0" d="M150.41,434.77H118.9c-2.08,0-3.76-1.68-3.76-3.76s1.68-3.76,3.76-3.76h31.51c2.08,0,3.76,1.68,3.76,3.76
			S152.49,434.77,150.41,434.77z"/>
	</g>
	<g id="Rectángulo_125_1_" transform="translate(27 355)">
		<g>
			<path class="st0" d="M71.45,69.78h3.76c2.08,0,3.76,1.68,3.76,3.76v3.76c0,2.08-1.68,3.76-3.76,3.76h-3.76
				c-2.08,0-3.76-1.68-3.76-3.76v-3.76C67.69,71.46,69.37,69.78,71.45,69.78z"/>
		</g>
		<g>
			<path class="st0" d="M75.21,81.05h-3.76c-2.08,0-3.76-1.68-3.76-3.76v-3.76c0-2.08,1.68-3.76,3.76-3.76h3.76
				c2.08,0,3.76,1.68,3.76,3.76v3.76C78.97,79.37,77.28,81.05,75.21,81.05z"/>
		</g>
	</g>
	<g id="Trazado_128_1_">
		<path class="st0" d="M116.4,483.52c-1.03,0-2.02-0.43-2.73-1.18l-10.42-11.02c-1.43-1.51-1.36-3.89,0.15-5.31
			c1.51-1.42,3.89-1.36,5.31,0.15l7.63,8.06l20-22.2c1.39-1.54,3.76-1.66,5.31-0.28c1.54,1.39,1.67,3.77,0.28,5.31l-22.73,25.22
			c-0.7,0.78-1.7,1.23-2.75,1.24C116.43,483.52,116.42,483.52,116.4,483.52z"/>
	</g>
	<g id="Trazado_129_1_">
		<path class="st0" d="M75.9,407.41l31.34-35.25v35.25H75.9z"/>
		<path class="st0" d="M107.24,411.17H75.9c-1.48,0-2.82-0.87-3.43-2.22c-0.61-1.35-0.36-2.93,0.62-4.04l31.34-35.25
			c1.04-1.17,2.69-1.57,4.14-1.01c1.46,0.55,2.42,1.95,2.42,3.51v35.25C111,409.48,109.31,411.17,107.24,411.17z M84.27,403.65
			h19.21v-21.61L84.27,403.65z"/>
	</g>
</g>
</svg>
