<?xml version="1.0" encoding="utf-8"?>
<!-- Generator: Adobe Illustrator 23.0.5, SVG Export Plug-In . SVG Version: 6.00 Build 0)  -->
<svg version="1.1" id="Capa_1" xmlns="http://www.w3.org/2000/svg" xmlns:xlink="http://www.w3.org/1999/xlink" x="0px" y="0px"
	 viewBox="0 0 200 200" style="enable-background:new 0 0 200 200;" xml:space="preserve">
<style type="text/css">
	.st0{fill:#CB4D8C;}
</style>
<g id="Trazado_53">
	<path class="st0" d="M125.12,116.27c-1.29,0-2.49-0.8-2.95-2.08c-0.11-0.31-11.21-31.05-30.66-44.66
		c-1.42-0.99-1.76-2.94-0.77-4.36c0.99-1.41,2.94-1.76,4.36-0.77c21.1,14.77,32.49,46.36,32.96,47.69c0.58,1.63-0.27,3.41-1.9,3.99
		C125.82,116.21,125.47,116.27,125.12,116.27z"/>
</g>
<g id="Trazado_52">
	<path class="st0" d="M93.85,126.7c-1.16,0-2.28-0.65-2.82-1.77c-0.08-0.17-8.33-16.96-22.76-24.4c-1.54-0.79-2.14-2.68-1.35-4.21
		c0.79-1.53,2.68-2.14,4.21-1.35c16.32,8.42,25.15,26.47,25.52,27.24c0.75,1.55,0.1,3.42-1.46,4.17
		C94.77,126.6,94.3,126.7,93.85,126.7z"/>
</g>
</svg>
