<?xml version="1.0" encoding="utf-8"?>
<!-- Generator: Adobe Illustrator 23.0.5, SVG Export Plug-In . SVG Version: 6.00 Build 0)  -->
<svg version="1.1" id="Capa_1" xmlns="http://www.w3.org/2000/svg" xmlns:xlink="http://www.w3.org/1999/xlink" x="0px" y="0px"
	 viewBox="0 0 200 200" style="enable-background:new 0 0 200 200;" xml:space="preserve">
<style type="text/css">
	.st0{fill:none;}
	.st1{fill:#FFFFFF;}
	.st2{enable-background:new    ;}
	.st3{fill:#9B3472;}
</style>
<g id="Elipse_72">
	<g>
		<circle class="st0" cx="100" cy="102.7" r="85"/>
	</g>
	<path class="st1" d="M157.85,40.5c-0.12,0.77-0.3,1.51-0.56,2.23C173.11,57.85,183,79.14,183,102.7c0,45.77-37.23,83-83,83
		c-45.77,0-83-37.23-83-83s37.23-83,83-83c13.93,0,27.07,3.47,38.61,9.56c0.61-0.47,1.26-0.89,1.95-1.24
		C128.49,21.44,114.68,17.7,100,17.7c-46.87,0-85,38.13-85,85c0,46.87,38.13,85,85,85s85-38.13,85-85
		C185,78.16,174.54,56.03,157.85,40.5z"/>
</g>
<g id="Grupo_171" transform="translate(-103 -744)">
	<path class="st1" d="M256.11,792.35c-1.99,1.47-4.44,2.35-7.11,2.35c-6.63,0-12-5.37-12-12c0-1.28,0.21-2.51,0.58-3.67
		c-10.38-5.31-22.12-8.33-34.58-8.33c-41.97,0-76,34.03-76,76s34.03,76,76,76s76-34.03,76-76C279,825.4,270.22,806.15,256.11,792.35
		z"/>
	<g class="st2">
		<path class="st3" d="M162.07,837.3h4.33v14.4h-2.8v-9.74c0-0.28,0-0.67,0.01-1.18s0.01-0.89,0.01-1.17l-2.73,12.08h-2.92
			l-2.71-12.08c0,0.27,0,0.66,0.01,1.17s0.01,0.9,0.01,1.18v9.74h-2.8v-14.4h4.38l2.62,11.32L162.07,837.3z"/>
		<path class="st3" d="M171.82,839.78H169v-2.57h2.82V839.78z M169,841.05h2.82v10.65H169V841.05z"/>
		<path class="st3" d="M176.67,848.3c0.06,0.5,0.19,0.85,0.38,1.05c0.35,0.37,0.99,0.56,1.92,0.56c0.55,0,0.99-0.08,1.31-0.24
			s0.49-0.41,0.49-0.73c0-0.31-0.13-0.55-0.39-0.71c-0.26-0.16-1.23-0.44-2.91-0.84c-1.21-0.3-2.06-0.67-2.56-1.12
			c-0.49-0.44-0.74-1.08-0.74-1.91c0-0.98,0.39-1.83,1.16-2.53s1.86-1.06,3.26-1.06c1.33,0,2.42,0.27,3.25,0.8
			c0.84,0.53,1.32,1.45,1.44,2.75h-2.78c-0.04-0.36-0.14-0.64-0.3-0.85c-0.31-0.38-0.83-0.57-1.57-0.57c-0.61,0-1.04,0.09-1.3,0.28
			s-0.39,0.41-0.39,0.66c0,0.32,0.14,0.55,0.41,0.69c0.27,0.15,1.24,0.41,2.91,0.77c1.11,0.26,1.94,0.65,2.49,1.18
			c0.55,0.53,0.82,1.2,0.82,2c0,1.05-0.39,1.92-1.18,2.58s-2,1-3.65,1c-1.68,0-2.91-0.35-3.71-1.06s-1.2-1.61-1.2-2.7H176.67z"/>
		<path class="st3" d="M201.1,841.8c-0.23-0.98-0.78-1.67-1.67-2.06c-0.49-0.21-1.04-0.32-1.65-0.32c-1.16,0-2.11,0.44-2.86,1.31
			c-0.75,0.88-1.12,2.19-1.12,3.94c0,1.77,0.4,3.02,1.21,3.75s1.73,1.1,2.75,1.1c1.01,0,1.84-0.29,2.48-0.87s1.04-1.34,1.19-2.28
			h-3.33v-2.4h6v7.73h-1.99l-0.3-1.8c-0.58,0.68-1.1,1.16-1.56,1.44c-0.79,0.49-1.77,0.73-2.93,0.73c-1.91,0-3.47-0.66-4.69-1.98
			c-1.27-1.33-1.9-3.14-1.9-5.45c0-2.33,0.64-4.2,1.92-5.6s2.98-2.11,5.09-2.11c1.83,0,3.3,0.46,4.41,1.39s1.75,2.08,1.91,3.47
			H201.1z"/>
		<path class="st3" d="M209.53,841.05v6.42c0,0.61,0.07,1.06,0.21,1.37c0.25,0.54,0.75,0.81,1.49,0.81c0.95,0,1.59-0.38,1.94-1.15
			c0.18-0.42,0.27-0.97,0.27-1.65v-5.79h2.82v10.65h-2.71v-1.5c-0.03,0.03-0.09,0.13-0.2,0.29c-0.1,0.16-0.23,0.31-0.37,0.43
			c-0.44,0.39-0.86,0.66-1.26,0.8s-0.88,0.21-1.43,0.21c-1.57,0-2.63-0.57-3.18-1.7c-0.3-0.62-0.46-1.55-0.46-2.76v-6.42H209.53z"/>
		<path class="st3" d="M221.13,848.3c0.06,0.5,0.19,0.85,0.38,1.05c0.35,0.37,0.99,0.56,1.92,0.56c0.55,0,0.99-0.08,1.31-0.24
			c0.32-0.16,0.49-0.41,0.49-0.73c0-0.31-0.13-0.55-0.39-0.71c-0.26-0.16-1.23-0.44-2.91-0.84c-1.21-0.3-2.06-0.67-2.56-1.12
			c-0.49-0.44-0.74-1.08-0.74-1.91c0-0.98,0.39-1.83,1.16-2.53c0.77-0.71,1.86-1.06,3.26-1.06c1.33,0,2.42,0.27,3.25,0.8
			s1.32,1.45,1.44,2.75h-2.78c-0.04-0.36-0.14-0.64-0.3-0.85c-0.31-0.38-0.83-0.57-1.57-0.57c-0.61,0-1.04,0.09-1.3,0.28
			s-0.39,0.41-0.39,0.66c0,0.32,0.14,0.55,0.41,0.69c0.27,0.15,1.24,0.41,2.91,0.77c1.11,0.26,1.94,0.65,2.49,1.18
			c0.55,0.53,0.82,1.2,0.82,2c0,1.05-0.39,1.92-1.18,2.58c-0.79,0.67-2,1-3.64,1c-1.68,0-2.91-0.35-3.71-1.06
			c-0.8-0.71-1.2-1.61-1.2-2.7H221.13z"/>
		<path class="st3" d="M229,843.13v-1.98h1.48v-2.97h2.75v2.97h1.73v1.98h-1.73v5.63c0,0.44,0.05,0.71,0.17,0.82
			s0.45,0.16,1.02,0.16c0.08,0,0.17,0,0.27,0s0.19-0.01,0.28-0.01v2.08l-1.32,0.05c-1.31,0.05-2.21-0.18-2.7-0.68
			c-0.31-0.32-0.47-0.81-0.47-1.47v-6.55H229z"/>
		<path class="st3" d="M245.63,850.4c-0.9,1.11-2.26,1.66-4.09,1.66s-3.19-0.55-4.09-1.66c-0.9-1.11-1.35-2.44-1.35-4.01
			c0-1.54,0.45-2.87,1.35-3.99c0.9-1.13,2.26-1.69,4.09-1.69s3.19,0.56,4.09,1.69c0.9,1.12,1.35,2.46,1.35,3.99
			C246.98,847.95,246.53,849.29,245.63,850.4z M243.4,848.86c0.44-0.58,0.65-1.4,0.65-2.47s-0.22-1.89-0.65-2.46
			s-1.06-0.86-1.88-0.86s-1.44,0.29-1.88,0.86s-0.66,1.4-0.66,2.46s0.22,1.89,0.66,2.47c0.44,0.58,1.07,0.87,1.88,0.87
			S242.97,849.44,243.4,848.86z"/>
		<path class="st3" d="M251.13,848.3c0.06,0.5,0.19,0.85,0.38,1.05c0.35,0.37,0.99,0.56,1.92,0.56c0.55,0,0.99-0.08,1.31-0.24
			c0.32-0.16,0.49-0.41,0.49-0.73c0-0.31-0.13-0.55-0.39-0.71s-1.23-0.44-2.91-0.84c-1.21-0.3-2.06-0.67-2.56-1.12
			c-0.49-0.44-0.74-1.08-0.74-1.91c0-0.98,0.39-1.83,1.16-2.53c0.77-0.71,1.86-1.06,3.26-1.06c1.33,0,2.42,0.27,3.25,0.8
			c0.84,0.53,1.32,1.45,1.44,2.75h-2.78c-0.04-0.36-0.14-0.64-0.3-0.85c-0.31-0.38-0.83-0.57-1.57-0.57c-0.61,0-1.04,0.09-1.3,0.28
			s-0.39,0.41-0.39,0.66c0,0.32,0.14,0.55,0.41,0.69c0.27,0.15,1.24,0.41,2.91,0.77c1.11,0.26,1.94,0.65,2.49,1.18
			c0.55,0.53,0.82,1.2,0.82,2c0,1.05-0.39,1.92-1.18,2.58c-0.79,0.67-2,1-3.64,1c-1.68,0-2.91-0.35-3.71-1.06
			c-0.8-0.71-1.2-1.61-1.2-2.7H251.13z"/>
	</g>
	<g id="jalo_new" transform="translate(-155.482 887.368)">
		<g id="Trazado_43">
			<path class="st3" d="M328.62-23.91c-0.49-0.5,0-1.5,0.74-1.25c0.49,0.5,34.26,22.81,52.5,11.28c0.99-0.5,1.97,1.5,0.99,3.51
				c-0.49,1-2.46,4.51-9.86,4.51c-4.93,0-19.23-0.5-37.96-13.53C332.08-21.4,329.12-23.4,328.62-23.91z"/>
		</g>
	</g>
</g>
<g id="Grupo_141" transform="translate(101 -290)">
	<g id="Grupo_132" transform="translate(-38.904 219.287)">
		<g id="Grupo_112" transform="translate(63.123 86.009)">
			<g id="Grupo_111" transform="translate(0 0)">
				<g id="Grupo_110">
					<g id="Trazado_108">
						<path class="st1" d="M25.5,18.52c-1.1-1.09-2.87-1.09-3.97,0l-5.14,5.13c-0.11,0.11-0.19,0.24-0.23,0.39l-1.12,3.68
							c-0.15,0.49,0.13,1.02,0.62,1.17c0.17,0.05,0.35,0.05,0.52,0.01l3.78-1.05c0.16-0.04,0.3-0.13,0.41-0.24l5.13-5.12
							C26.59,21.39,26.58,19.62,25.5,18.52z M19.23,26.11l-1.9,0.53l0.56-1.83l3.47-3.46l1.32,1.32L19.23,26.11z M24.18,21.16
							L24,21.35l-1.32-1.32l0.18-0.18c0.37-0.36,0.96-0.35,1.32,0.02C24.53,20.23,24.53,20.8,24.18,21.16L24.18,21.16z"/>
					</g>
				</g>
			</g>
		</g>
	</g>
</g>
</svg>
