<?xml version="1.0" encoding="utf-8"?>
<!-- Generator: Adobe Illustrator 23.0.5, SVG Export Plug-In . SVG Version: 6.00 Build 0)  -->
<svg version="1.1" id="Capa_1" xmlns="http://www.w3.org/2000/svg" xmlns:xlink="http://www.w3.org/1999/xlink" x="0px" y="0px"
	 viewBox="0 0 200 200" style="enable-background:new 0 0 200 200;" xml:space="preserve">
<style type="text/css">
	.st0{fill:#FFFFFF;}
	.st1{fill:#B3C67F;}
	.st2{font-family:'Helvetica-Bold';}
	.st3{font-size:14px;}
</style>
<g id="Grupo_141" transform="translate(101 -290)">
	<g id="Grupo_132" transform="translate(-38.904 219.287)">
		<g id="Grupo_112" transform="translate(63.123 86.009)">
			<g id="Grupo_111" transform="translate(0 0)">
				<g id="Grupo_110">
					<g id="Trazado_108">
						<path class="st0" d="M25.5,18.52c-1.1-1.09-2.87-1.09-3.97,0l-5.14,5.13c-0.11,0.11-0.19,0.24-0.23,0.39l-1.12,3.68
							c-0.15,0.49,0.13,1.02,0.62,1.17c0.17,0.05,0.35,0.05,0.52,0.01l3.78-1.05c0.16-0.04,0.3-0.13,0.41-0.24l5.13-5.12
							C26.59,21.39,26.58,19.62,25.5,18.52z M19.23,26.11l-1.9,0.53l0.56-1.83l3.47-3.46l1.32,1.32L19.23,26.11z M24.18,21.16
							L24,21.35l-1.32-1.32l0.18-0.18c0.37-0.36,0.96-0.35,1.32,0.02C24.53,20.23,24.53,20.8,24.18,21.16L24.18,21.16z"/>
					</g>
				</g>
			</g>
		</g>
	</g>
</g>
<g id="Grupo_172" transform="translate(-140 -1493)">
	<g transform="matrix(1, 0, 0, 1, 140, 1493)">
		<circle id="Elipse_69-2" class="st1" cx="100" cy="102.7" r="39"/>
	</g>
	<text transform="matrix(1 0 0 1 214 1601.698)" class="st0 st2 st3">Guardar</text>
</g>
</svg>
