<?xml version="1.0" encoding="utf-8"?>
<!-- Generator: Adobe Illustrator 23.0.5, SVG Export Plug-In . SVG Version: 6.00 Build 0)  -->
<svg version="1.1" id="Capa_1" xmlns="http://www.w3.org/2000/svg" xmlns:xlink="http://www.w3.org/1999/xlink" x="0px" y="0px"
	 viewBox="0 0 200 200" style="enable-background:new 0 0 200 200;" xml:space="preserve">
<style type="text/css">
	.st0{fill:#B3C47D;}
	.st1{fill:none;}
</style>
<g id="Grupo_156" transform="translate(-155.361 14.657)">
	<g id="Grupo_152" transform="matrix(0.966, 0.259, -0.259, 0.966, 183.769, 1065.049)">
		<g id="Rectángulo_130" transform="translate(9.541 23.551) rotate(-45)">
			<g>
				<path class="st0" d="M560.42-834.33c-3.76-2.18-6.31-6.25-6.31-10.88c0-3.36,1.31-6.52,3.69-8.9c2.38-2.38,5.54-3.69,8.87-3.69
					h79.32c6.92,0,12.56,5.64,12.56,12.56c0,3.36-1.31,6.52-3.69,8.9c-2.38,2.38-5.54,3.69-8.87,3.69h-79.32
					C564.42-832.65,562.27-833.25,560.42-834.33z M648.95-850.28c-0.87-0.5-1.88-0.77-2.92-0.77H566.7c-3.22,0-5.84,2.62-5.84,5.84
					c0,1.58,0.6,3.02,1.71,4.13c1.11,1.11,2.59,1.71,4.13,1.71h79.32c3.22,0,5.84-2.62,5.84-5.84c0-1.58-0.6-3.02-1.71-4.13
					C649.79-849.71,649.39-850.04,648.95-850.28z"/>
			</g>
		</g>
		<g>
			<path class="st1" d="M-212.43-963.99c-3.83,4.37-6.15,9.71-6.68,15.48c-0.27,1.95-0.4,3.9-0.44,5.81
				c1.88-0.03,3.76-0.17,5.64-0.4c5.91-0.57,11.28-2.89,15.65-6.72c3.32-3.79,5.47-8.36,6.35-13.3c-1.61-0.64-3.12-1.54-4.37-2.82
				c-1.31-1.31-2.22-2.82-2.82-4.43C-204.13-969.47-208.67-967.32-212.43-963.99z"/>
			<path class="st0" d="M-191.91-963.12c-0.87,4.94-3.02,9.5-6.35,13.3c-4.37,3.83-9.74,6.15-15.65,6.72
				c-1.88,0.24-3.76,0.37-5.64,0.4c0.03-1.91,0.17-3.86,0.44-5.81c0.54-5.78,2.85-11.12,6.68-15.48c3.79-3.32,8.3-5.47,13.33-6.35
				c-0.81-2.15-1.04-4.47-0.64-6.72c-6.45,1.04-12.39,3.83-17.3,8.19l-0.27,0.27c-4.87,5.47-7.79,12.19-8.5,19.31
				c-0.44,3.32-0.57,6.72-0.4,10.04l0.17,3.02l2.99,0.17c0.91,0.03,1.85,0.07,2.82,0.07c2.38,0,4.8-0.17,7.05-0.44
				c1.95-0.17,3.83-0.54,5.68-1.01c5.1-1.38,9.81-3.9,13.84-7.49l0.27-0.27c4.37-4.94,7.19-10.88,8.19-17.26
				c-0.74,0.13-1.48,0.2-2.22,0.2C-188.99-962.25-190.5-962.58-191.91-963.12z"/>
			<path class="st0" d="M-176.8-985.45c-4.9-4.9-12.86-4.9-17.77,0l-1.75,1.75c-1.88,1.88-3.02,4.2-3.46,6.62
				c-0.4,2.25-0.2,4.57,0.64,6.72c0.6,1.61,1.54,3.12,2.82,4.43c1.28,1.28,2.75,2.18,4.37,2.82c1.41,0.54,2.92,0.87,4.5,0.87
				c0.74,0,1.48-0.1,2.22-0.2c0.37-0.07,0.71-0.1,1.04-0.2c2.12-0.57,4.03-1.68,5.61-3.26l1.75-1.75
				C-171.89-972.59-171.89-980.55-176.8-985.45z M-179.82-976.56c0,1.58-0.6,3.02-1.71,4.13l-1.75,1.75
				c-1.11,1.11-2.55,1.71-4.13,1.71c-1.54,0-3.02-0.6-4.13-1.71c-1.11-1.11-1.71-2.59-1.71-4.13c0-1.58,0.6-3.02,1.71-4.13
				l1.75-1.75c0.74-0.74,1.65-1.24,2.62-1.51c0.5-0.13,1.01-0.2,1.51-0.2c1.58,0,3.02,0.6,4.13,1.71S-179.82-978.13-179.82-976.56z"
				/>
		</g>
		<g id="Sustracción_10">
			<path class="st0" d="M-214.64-945.93c-0.71,0-1.28-0.03-1.65-0.03c-0.1-1.95-0.03-3.93,0.24-5.88c0.4-4.06,2.05-7.86,4.77-10.91
				c3.06-2.72,6.88-4.4,10.95-4.77c0.24-0.03,0.5-0.07,0.74-0.1c0.1,1.28,0.64,2.49,1.54,3.39s2.12,1.44,3.39,1.54
				c-0.03,0.27-0.07,0.5-0.1,0.77c-0.4,4.06-2.05,7.86-4.77,10.91c-3.06,2.72-6.88,4.37-10.95,4.77
				C-211.86-946.03-213.23-945.93-214.64-945.93z"/>
		</g>
	</g>
	<g id="Grupo_155" transform="translate(2.19 2.189)">
		<g id="Elipse_110" transform="matrix(0.966, 0.259, -0.259, 0.966, 162.934, 1094.106)">
			<g>
				<path class="st0" d="M-227.55-957.81c-0.87,0.24-1.81,0.37-2.72,0.37c-5.78,0-10.48-4.7-10.48-10.48c0-2.79,1.07-5.44,3.06-7.42
					c1.98-1.98,4.6-3.06,7.42-3.06c2.79,0,5.44,1.07,7.42,3.06c1.98,1.98,3.06,4.6,3.06,7.42c0,2.79-1.07,5.44-3.06,7.42
					C-224.19-959.22-225.81-958.28-227.55-957.81z M-232.15-974.8c-1.18,0.34-2.28,0.94-3.19,1.85c-1.34,1.34-2.08,3.12-2.08,5.04
					c0,3.93,3.19,7.12,7.12,7.12c3.9,0,7.12-3.19,7.12-7.12c0-1.91-0.74-3.69-2.08-5.04c-1.34-1.34-3.12-2.08-5.04-2.08l0,0
					C-230.91-975.04-231.55-974.97-232.15-974.8z"/>
			</g>
		</g>
		<g id="Grupo_154" transform="translate(154.408 1068.507)">
			<g id="Elipse_107" transform="matrix(0.966, 0.259, -0.259, 0.966, 26.554, 6.378)">
				<g>
					<path class="st0" d="M-205.55-998.9c-0.87,0.24-1.78,0.37-2.72,0.37c-2.79,0-5.44-1.07-7.42-3.06
						c-1.98-1.98-3.06-4.6-3.06-7.42c0-5.78,4.7-10.48,10.48-10.48l0,0c5.78,0,10.48,4.7,10.48,10.48c0,2.79-1.07,5.44-3.06,7.42
						C-202.19-1000.31-203.8-999.37-205.55-998.9z M-210.12-1015.89c-3.02,0.81-5.27,3.59-5.27,6.88c0,1.91,0.74,3.69,2.08,5.04
						c1.34,1.34,3.12,2.08,5.04,2.08c1.91,0,3.69-0.74,5.04-2.08c1.34-1.34,2.08-3.12,2.08-5.04c0-3.93-3.19-7.12-7.12-7.12
						C-208.91-1016.16-209.55-1016.06-210.12-1015.89z"/>
				</g>
			</g>
			<g id="Elipse_108" transform="matrix(0.966, 0.259, -0.259, 0.966, 13.206, 10.348)">
				<g>
					<path class="st0" d="M-226.58-986c-0.87,0.24-1.78,0.37-2.72,0.37c-5.78,0-10.48-4.7-10.48-10.48c0-2.79,1.11-5.44,3.06-7.42
						c1.98-1.98,4.6-3.06,7.42-3.06c2.79,0,5.44,1.07,7.42,3.06c1.98,1.98,3.06,4.6,3.06,7.42
						C-218.78-991.31-222.11-987.21-226.58-986z M-231.14-1003c-1.18,0.34-2.28,0.94-3.19,1.85c-1.34,1.34-2.08,3.12-2.08,5.04
						c0,3.93,3.19,7.12,7.12,7.12c3.93,0,7.12-3.19,7.12-7.12c0-1.91-0.74-3.69-2.08-5.04c-1.34-1.34-3.12-2.08-5.04-2.08l0,0
						C-229.9-1003.26-230.54-1003.16-231.14-1003z"/>
				</g>
			</g>
			<g id="Elipse_109" transform="matrix(0.966, 0.259, -0.259, 0.966, 20.627, 34.714)">
				<g>
					<path class="st0" d="M-204.33-950.28c-0.77,0.2-1.54,0.3-2.38,0.3c-5.07,0-9.2-4.13-9.2-9.2c0-2.45,0.97-4.77,2.69-6.52
						c1.75-1.75,4.06-2.69,6.52-2.69c5.07,0,9.2,4.13,9.2,9.2C-197.51-954.92-200.4-951.36-204.33-950.28z M-208.23-964.83
						c-2.49,0.67-4.33,2.96-4.33,5.64c0,3.22,2.62,5.84,5.84,5.84c3.22,0.03,5.84-2.62,5.84-5.84c0-3.22-2.62-5.84-5.84-5.84
						C-207.22-965.03-207.72-964.96-208.23-964.83z"/>
				</g>
			</g>
			<g id="Elipse_112">
				<circle class="st0" cx="86.49" cy="-1022.85" r="5.1"/>
			</g>
			<g id="Elipse_113">
				<circle class="st0" cx="49.75" cy="-1011.33" r="5.1"/>
			</g>
			<g id="Elipse_114">
				<circle class="st0" cx="69.3" cy="-945.34" r="3.83"/>
			</g>
			<g id="Elipse_115">
				<circle class="st0" cx="36.01" cy="-969.28" r="5.1"/>
			</g>
			<g id="Trazado_173">
				<path class="st0" d="M70.57-923.51c-5.37,0-11.79-1.81-19.31-5.41c-19.14-6.58-34.02-28.41-35.46-51.99
					c-1.51-24.78,11.38-45.64,35.4-57.19c19.48-9.87,42.01-6.48,60.15,9.1c1.41,1.21,1.58,3.32,0.37,4.74
					c-1.21,1.41-3.32,1.58-4.74,0.37c-16.02-13.74-35.77-16.79-52.79-8.16c-21.49,10.34-33.01,28.81-31.67,50.74
					c1.28,21.06,14.37,40.47,31.1,46.11l0.37,0.17c9.57,4.6,16.83,5.91,21.56,3.93c4.53-1.91,6.21-6.95,7.29-10.28
					c1.44-6.58,4.37-11.32,8.53-13.77c5.31-3.12,11.38-1.91,16.09-0.5c6.01,2.28,10.34,1.78,13.57-1.48
					c7.22-7.29,7.29-26.4,5.07-31.9c-0.71-1.71,0.13-3.66,1.88-4.37c1.71-0.71,3.66,0.13,4.37,1.88c2.82,7.05,3.32,29.15-6.52,39.13
					c-3.59,3.63-10.08,7.15-20.52,3.12c-3.12-0.91-7.42-1.85-10.51-0.03c-2.52,1.48-4.37,4.77-5.47,9.74
					c-1.38,4.23-3.79,11.55-11.15,14.68C75.91-924.01,73.36-923.51,70.57-923.51z"/>
			</g>
			<g id="Elipse_111" transform="matrix(0.966, 0.259, -0.259, 0.966, 36.442, 25.143)">
				<g>
					<path class="st0" d="M-181.71-973.88c-0.77,0.2-1.54,0.3-2.38,0.3c-5.07,0-9.2-4.13-9.2-9.2c0-5.07,4.13-9.2,9.2-9.2
						c2.45,0,4.77,0.97,6.52,2.69c1.75,1.75,2.69,4.03,2.69,6.52C-174.86-978.52-177.78-974.92-181.71-973.88z M-185.57-988.42
						c-2.49,0.67-4.33,2.96-4.33,5.64c0,3.22,2.62,5.84,5.84,5.84c3.22,0.03,5.84-2.62,5.84-5.84c0-3.22-2.62-5.84-5.84-5.84
						C-184.6-988.63-185.1-988.56-185.57-988.42z"/>
				</g>
			</g>
			<g id="Elipse_116">
				<circle class="st0" cx="113.56" cy="-971.53" r="3.83"/>
			</g>
		</g>
	</g>
</g>
</svg>
