<?xml version="1.0" encoding="utf-8"?>
<!-- Generator: Adobe Illustrator 23.0.5, SVG Export Plug-In . SVG Version: 6.00 Build 0)  -->
<svg version="1.1" id="Capa_1" xmlns="http://www.w3.org/2000/svg" xmlns:xlink="http://www.w3.org/1999/xlink" x="0px" y="0px"
	 viewBox="0 0 200 200" style="enable-background:new 0 0 200 200;" xml:space="preserve">
<style type="text/css">
	.st0{fill:#B3C57E;}
</style>
<g id="Grupo_142" transform="translate(-3554.361 -686.888)">
	<g id="Trazado_124_1_">
		<path class="st0" d="M3623.78,804.66c-0.04,0-0.08,0-0.12,0c-2.17-0.06-3.89-1.88-3.82-4.05l2.16-73.3
			c0.07-2.14,1.82-3.82,3.94-3.82c0.04,0,0.08,0,0.12,0c2.17,0.06,3.89,1.88,3.82,4.05l-2.16,73.3
			C3627.65,802.97,3625.9,804.66,3623.78,804.66z"/>
	</g>
	<g id="Trazado_125">
		<path class="st0" d="M3667.13,772.1c-0.72,0-1.45-0.2-2.1-0.61c-5.49-3.46-7.29-10.51-4.17-16.16c3.19-7.52,5.58-13.96,5.6-14.02
			c0.47-1.43-0.32-3.14-1.84-3.76c-2.01-0.83-2.97-3.13-2.14-5.14s3.14-2.97,5.15-2.14c5.31,2.19,8.07,8.19,6.27,13.64
			c-0.15,0.41-2.57,6.93-5.88,14.71l-0.22,0.43c-1.16,2.01-0.53,4.55,1.43,5.78c1.84,1.16,2.39,3.59,1.23,5.43
			C3669.71,771.45,3668.44,772.1,3667.13,772.1z M3664.4,757.07h0.04H3664.4z"/>
	</g>
	<g id="Elipse_73">
		<path class="st0" d="M3616.89,762.63c-4.46,0-26.67-0.5-26.67-10.44c0-9.93,22.22-10.44,26.67-10.44s26.68,0.5,26.68,10.44
			C3643.57,762.12,3621.35,762.63,3616.89,762.63z M3599.53,752.19c2.85,1.19,8.88,2.56,17.36,2.56c8.49,0,14.51-1.37,17.36-2.56
			c-2.85-1.19-8.87-2.56-17.36-2.56S3602.38,751,3599.53,752.19z"/>
	</g>
	<g id="Trazado_126">
		<path class="st0" d="M3614.73,839.71c-13.35,0-18.62-4.34-19.22-4.88c-0.78-0.7-1.25-1.69-1.31-2.74l-4-79.71
			c-0.11-2.17,1.57-4.02,3.74-4.13c2.12-0.15,4.02,1.56,4.13,3.74l3.89,77.64c2.09,0.98,7.08,2.63,16.21,2.1
			c2.11-0.17,4.04,1.53,4.16,3.7c0.13,2.17-1.53,4.04-3.7,4.16C3617.26,839.67,3615.96,839.71,3614.73,839.71z"/>
	</g>
	<g id="Trazado_127">
		<path class="st0" d="M3681.07,805.22c-0.88,0-1.78-0.3-2.52-0.91c-1.67-1.39-1.9-3.87-0.51-5.55l17.6-21.15
			c1.38-1.67,3.87-1.91,5.55-0.51c1.67,1.39,1.9,3.87,0.51,5.55l-17.6,21.15C3683.33,804.73,3682.2,805.22,3681.07,805.22z"/>
	</g>
	<g id="Trazado_128">
		<path class="st0" d="M3666.01,848.57c-21.72,0-44.99-11.45-48.37-37.14c-0.17-1.25,0.28-2.5,1.19-3.37
			c0.92-0.87,2.19-1.24,3.42-1.02c0.52,0.1,52.06,9.28,89.33,0.05c1.24-0.32,2.58,0.01,3.55,0.87c0.97,0.86,1.46,2.13,1.31,3.42
			c-2.99,25.34-28.02,37.04-50.01,37.19C3666.29,848.57,3666.15,848.57,3666.01,848.57z M3626.55,815.72
			c5.32,18.47,24.15,25.26,39.82,24.97c16.85-0.11,35.78-7.9,41.05-24.61C3676.69,822.05,3640.41,817.78,3626.55,815.72z"/>
	</g>
	<g id="Trazado_129">
		<path class="st0" d="M3685.43,803.78c-2.12,0-3.51-0.12-3.72-0.14c-1.57-0.15-2.9-1.23-3.38-2.74c-0.25-0.8-6.1-19.81,3.06-31.13
			l0,0c9.16-11.32,28.96-9.55,29.81-9.47c1.57,0.15,2.9,1.23,3.38,2.74c0.25,0.8,6.1,19.81-3.06,31.13
			C3704.65,802.65,3691.79,803.78,3685.43,803.78z M3685.16,795.91c5.66-0.01,15.7-1.09,20.24-6.71c4.54-5.61,3.58-15.58,2.35-21.19
			c-5.61-0.07-15.69,1.1-20.23,6.71l0,0C3682.94,780.36,3683.92,790.31,3685.16,795.91z"/>
	</g>
	<g id="Trazado_130">
		<path class="st0" d="M3608.91,775.82c-1.05,0-2.09-0.41-2.87-1.23l-2.4-2.55c-1.49-1.58-1.42-4.08,0.16-5.57
			c1.58-1.5,4.07-1.42,5.57,0.16l2.4,2.55c1.49,1.58,1.42,4.08-0.16,5.57C3610.86,775.46,3609.88,775.82,3608.91,775.82z"/>
	</g>
	<g id="Trazado_131">
		<path class="st0" d="M3610.84,788.41c-1.05,0-2.09-0.41-2.86-1.23c-1.5-1.58-1.42-4.08,0.16-5.57l2.55-2.41
			c1.58-1.49,4.07-1.43,5.57,0.16c1.5,1.58,1.42,4.08-0.16,5.57l-2.55,2.41C3612.79,788.05,3611.82,788.41,3610.84,788.41z"/>
	</g>
	<g id="Trazado_132">
		<path class="st0" d="M3610.02,800.59c-1.05,0-2.09-0.41-2.86-1.23l-2.4-2.55c-1.5-1.58-1.42-4.07,0.16-5.57s4.07-1.43,5.57,0.16
			l2.4,2.54c1.5,1.58,1.42,4.08-0.16,5.57C3611.96,800.23,3610.99,800.59,3610.02,800.59z"/>
	</g>
	<g id="Trazado_133">
		<path class="st0" d="M3614.87,850.28c-13.78,0-20.81-4.22-21.21-4.47c-1.85-1.14-2.42-3.57-1.28-5.42
			c1.14-1.84,3.54-2.41,5.39-1.29c0.19,0.11,10.98,6.24,32.68,1.51c2.14-0.47,4.22,0.88,4.69,3.01c0.46,2.13-0.89,4.22-3.01,4.69
			C3625.52,849.75,3619.77,850.28,3614.87,850.28z"/>
	</g>
	<g id="Trazado_134">
		<path class="st0" d="M3683.31,849.74h-32.8c-2.18,0-3.94-1.76-3.94-3.94s1.76-3.94,3.94-3.94h32.8c2.18,0,3.94,1.76,3.94,3.94
			S3685.49,849.74,3683.31,849.74z"/>
	</g>
	<g id="Trazado_135">
		<path class="st0" d="M3637.88,790.65c-0.07,0-0.14,0-0.21-0.01c-2.17-0.11-3.84-1.97-3.73-4.14l1.81-34.75
			c0.12-2.17,1.99-3.84,4.14-3.73c2.17,0.11,3.84,1.97,3.73,4.14l-1.81,34.75C3641.7,789.02,3639.96,790.65,3637.88,790.65z"/>
	</g>
	<g id="Trazado_136">
		<path class="st0" d="M3629.37,815.8c-1.03,0-2.06-0.4-2.83-1.2c-1.51-1.56-1.47-4.06,0.09-5.57l31.13-30.13
			c4.57-4.12,11.15-4.92,16.45-2.08c1.92,1.03,2.64,3.41,1.62,5.33c-1.03,1.92-3.41,2.64-5.33,1.62c-2.39-1.28-5.35-0.92-7.36,0.89
			l-31.02,30.03C3631.34,815.43,3630.36,815.8,3629.37,815.8z"/>
	</g>
	<g id="Trazado_137">
		<path class="st0" d="M3705.15,816.48c-0.99,0-1.98-0.37-2.74-1.11l-12.91-12.52c-1.56-1.52-1.6-4.01-0.08-5.57s4.01-1.6,5.57-0.08
			l12.91,12.52c1.56,1.52,1.6,4.01,0.08,5.57C3707.21,816.08,3706.18,816.48,3705.15,816.48z"/>
	</g>
</g>
</svg>
