<?xml version="1.0" encoding="utf-8"?>
<!-- Generator: Adobe Illustrator 23.0.5, SVG Export Plug-In . SVG Version: 6.00 Build 0)  -->
<svg version="1.1" id="Capa_1" xmlns="http://www.w3.org/2000/svg" xmlns:xlink="http://www.w3.org/1999/xlink" x="0px" y="0px"
	 viewBox="0 0 200 200" style="enable-background:new 0 0 200 200;" xml:space="preserve">
<style type="text/css">
	.st0{fill:#B3C57E;}
	.st1{fill:none;}
</style>
<g id="Grupo_150" transform="translate(-1365.586 -443.391)">
	<g id="Trazado_166">
		<path class="st0" d="M1495.35,495.36c-1.83,0-3.44-1.27-3.84-3.07c-1.7-0.01-3.26-0.95-3.86-2.61l-3.48-9.7
			c-0.62-1.74,0.05-3.68,1.61-4.67c1.57-0.98,3.61-0.75,4.91,0.57l7.47,7.59l10.78,2.57c1.85,0.44,3.13,2.15,3.02,4.06
			c-0.11,1.9-1.57,3.46-3.46,3.69l-12.67,1.53C1495.67,495.35,1495.51,495.36,1495.35,495.36z"/>
	</g>
	<g id="Trazado_165">
		<path class="st0" d="M1465.97,612.07c-0.38,0-0.76,0-1.14,0c-5.13,0-10.3-0.29-15.38-0.87c-6.12-0.63-12.25-1.81-18.17-3.5
			c-4.52-1.22-8.93-3.08-13.02-5.51c-2.7-1.52-5.11-3.76-6.86-6.41c-1.16-1.83-1.77-3.87-1.79-5.96c-0.02-6.3,1.44-12.58,4.22-18.2
			c2.69-5.49,6.68-10.39,11.5-14.15c5.15-4.05,11.29-6.83,17.75-8.03c1.47-0.39,3.25,0,4.66,1.08c3.75,2.75,8.25,4.52,12.96,5.06
			c3.6,0.43,7.25,0.38,10.85-0.13c3.34-0.49,6.53-1.62,9.45-3.35c0.55-0.33,1.09-0.69,1.64-1.05c0.48-0.32,0.96-0.64,1.45-0.95
			c1-0.61,2.13-0.87,3.24-0.74c4.26,0.7,8.16,1.98,11.79,3.84c3.65,1.84,7.01,4.23,9.97,7.09c3.03,2.92,5.58,6.28,7.58,9.99
			c2.2,3.99,3.68,8.33,4.38,12.89c0.33,2.37,0.5,4.73,0.51,7.08c-0.13,2.85-1.2,5.37-3.01,7.3c-1.84,2.13-4.14,3.96-6.76,5.34
			c-5.36,2.87-11.13,4.95-17.12,6.17c-3.85,0.88-7.91,1.58-11.97,2.04C1477.16,611.74,1471.54,612.07,1465.97,612.07z
			 M1465.33,604.19h0.02c5.57-0.01,11-0.29,16.44-0.93c3.79-0.43,7.55-1.08,11.21-1.92c5.33-1.09,10.38-2.91,15.09-5.44
			c1.76-0.93,3.3-2.15,4.59-3.64c0.64-0.69,0.96-1.44,1-2.22c-0.01-1.79-0.15-3.79-0.43-5.75c-0.55-3.59-1.73-7.06-3.5-10.26
			c-1.64-3.03-3.7-5.74-6.14-8.1c-2.39-2.32-5.11-4.24-8.07-5.74c-2.59-1.33-5.33-2.29-8.18-2.85c-0.12,0.08-0.24,0.16-0.37,0.24
			c-0.64,0.43-1.29,0.86-1.95,1.26c-3.83,2.27-7.98,3.75-12.37,4.39c-4.29,0.61-8.61,0.66-12.88,0.16
			c-5.76-0.65-11.29-2.74-16.05-6.06c-5.05,1.1-9.65,3.26-13.55,6.33c-3.91,3.04-7.11,7-9.29,11.44c-2.25,4.54-3.43,9.61-3.41,14.67
			c0,0.6,0.18,1.2,0.52,1.72c1.03,1.56,2.5,2.92,4.2,3.88c3.55,2.11,7.29,3.69,11.18,4.73c5.54,1.58,11.21,2.67,16.92,3.26
			c4.98,0.57,9.98,0.82,15,0.82h0.02V604.19z M1444.77,557.12c-0.08,0.02-0.17,0.03-0.25,0.05
			C1444.6,557.16,1444.68,557.15,1444.77,557.12z M1443,556.8c0.02,0.02,0.05,0.03,0.07,0.05
			C1443.05,556.83,1443.03,556.81,1443,556.8z"/>
	</g>
	<g>
		<line class="st1" x1="1506" y1="545.26" x2="1506" y2="545.26"/>
		<path class="st0" d="M1506,533.42v-18.6c0-8.34-3.62-16.19-10.18-22.11c-5.99-5.4-13.78-8.55-22.14-9.07
			c7.33,2.34,13.5,7.25,17.5,13.66c0.09,0.08,0.2,0.15,0.29,0.24c5.18,4.67,8.03,10.8,8.03,17.28v18.6c0,1.85,0.3,3.65,0.85,5.34
			h-15.61c-3.51,2.99-7.67,5.23-12.24,6.5h33.49l0,0h12.2l0,0v-0.03C1511.36,544.79,1506,539.6,1506,533.42z"/>
	</g>
	<g id="Elipse_90" transform="translate(1387.734 989.739)">
		<g>
			<path class="st0" d="M76.17-446.26c-16.09,0-29.19-13.1-29.19-29.19c0-16.1,13.1-29.19,29.19-29.19
				c16.1,0,29.19,13.1,29.19,29.19C105.37-459.35,92.27-446.26,76.17-446.26z M76.17-496.76c-11.75,0-21.31,9.56-21.31,21.31
				s9.56,21.31,21.31,21.31s21.31-9.56,21.31-21.31S87.93-496.76,76.17-496.76z"/>
		</g>
	</g>
	<g id="Elipse_91">
		<circle class="st0" cx="1463.91" cy="514.29" r="13.84"/>
	</g>
</g>
</svg>
