<?xml version="1.0" encoding="utf-8"?>
<!-- Generator: Adobe Illustrator 23.0.5, SVG Export Plug-In . SVG Version: 6.00 Build 0)  -->
<svg version="1.1" id="Capa_1" xmlns="http://www.w3.org/2000/svg" xmlns:xlink="http://www.w3.org/1999/xlink" x="0px" y="0px"
	 viewBox="0 0 200 200" style="enable-background:new 0 0 200 200;" xml:space="preserve">
<style type="text/css">
	.st0{fill:#B3C57E;}
</style>
<g id="Grupo_148" transform="translate(-156.361 -254.343)">
	<g>
		<path class="st0" d="M176.79,345.57c0.02,0.24,0.06,0.48,0.08,0.72l0.02-0.63L176.79,345.57z"/>
		<path class="st0" d="M234.91,328.37c0.13-0.23,0.28-0.44,0.42-0.66l-0.4,0.27L234.91,328.37z"/>
		<path class="st0" d="M183.97,364.39c-0.43,1.72-1.92,3-3.74,3c-0.05,0-0.1,0-0.14,0c-2.17-0.08-3.87-1.9-3.8-4.07l0.59-17.02
			c-0.02-0.24-0.06-0.48-0.08-0.72l-4.75-4.21c-1.63-1.44-1.78-3.93-0.33-5.56c1.44-1.63,3.94-1.78,5.56-0.33l0.19,0.17
			c1.47-7.09,5.06-13.55,10.47-18.59c3.09-2.89,6.63-5.11,10.41-6.71l-0.06-0.04c-1.81-1.21-2.3-3.65-1.09-5.47
			c1.21-1.81,3.65-2.3,5.46-1.09l6,4.01c1.53-0.14,3.06-0.23,4.62-0.17c0.71,0.02,1.4,0.11,2.1,0.18l5.12-4.53
			c0.54-0.48,1.19-0.72,1.86-0.85c-2.85-0.72-5.8-1.17-8.86-1.28c-23.1-0.81-42.47,17.26-43.28,40.35
			c-0.81,23.1,17.26,42.47,40.35,43.28c6.53,0.23,12.74-1.1,18.35-3.57c-2.07-0.19-3.67-1.92-3.59-4.03l0.05-1.5
			c-4.57,1.86-9.5,2.79-14.58,2.61c-0.15-0.01-0.3-0.03-0.45-0.04l0.01,1.92c0.01,2.18-1.75,3.95-3.92,3.96c0,0-0.01,0-0.02,0
			c-2.17,0-3.93-1.75-3.94-3.92l-0.01-3.24c-6.18-1.73-11.8-5.08-16.28-9.89"/>
		<path class="st0" d="M225.71,309.11l-0.94,0.83c4.33,1.67,8.3,4.19,11.71,7.48l2.54-1.71c1.62-1.09,3.72-0.75,5.02,0.62
			c0.05-0.05,0.09-0.1,0.14-0.15c-4.8-5.77-11.09-10.27-18.35-12.81c0.07,0.07,0.15,0.09,0.22,0.16
			C227.5,305.18,227.34,307.67,225.71,309.11z"/>
		<path class="st0" d="M232.53,379.32c0.08-0.04,0.16-0.09,0.24-0.13c-0.02-0.04-0.04-0.08-0.06-0.11
			C232.66,379.17,232.59,379.24,232.53,379.32z"/>
		<path class="st0" d="M228.07,362.6l-10.24-5.91l-15.42,8.14l0.05,12.06l0.01,3.24c0.01,2.17,1.77,3.92,3.94,3.92
			c0,0,0.01,0,0.02,0c2.18-0.01,3.93-1.78,3.92-3.96l-0.01-1.92l-0.03-8.61l7.36-3.88l7.89,4.55l-0.19,5.36l-0.05,1.5
			c-0.07,2.1,1.52,3.84,3.59,4.03c0.07,0.01,0.13,0.05,0.21,0.05c1.44,0.09,2.69-0.7,3.42-1.87c0.05-0.09,0.13-0.16,0.18-0.25
			C230.36,373.93,228.77,368.4,228.07,362.6z"/>
		<path class="st0" d="M216.89,327.34l-10.33-6.53c-1.13-0.72-2.56-0.81-3.77-0.24l-12.26,5.74c-1.34,0.63-2.22,1.95-2.27,3.43
			l-0.47,13.3c-0.05,1.43,0.68,2.78,1.9,3.51l11.07,6.67c0.62,0.38,1.33,0.57,2.03,0.57c0.61,0,1.23-0.14,1.79-0.43l11.51-5.88
			c1.27-0.65,2.09-1.94,2.14-3.37l0.47-13.3C218.77,329.41,218.08,328.09,216.89,327.34z M210.47,341.52l-7.5,3.83l-7.21-4.35
			l0.3-8.58l8.13-3.8l6.59,4.17L210.47,341.52z"/>
		<path class="st0" d="M184.83,344.08c0.04-1.17-0.44-2.3-1.32-3.08l-6.05-5.37l-0.19-0.17c-1.62-1.44-4.12-1.3-5.56,0.33
			s-1.3,4.12,0.33,5.56l4.75,4.21l0.1,0.09l-0.02,0.63l-0.59,17.02c-0.08,2.17,1.62,4,3.8,4.07c0.05,0,0.1,0,0.14,0
			c1.83,0,3.31-1.28,3.74-3c0.07-0.27,0.18-0.52,0.19-0.8L184.83,344.08z"/>
		<path class="st0" d="M239.03,315.72l-2.54,1.71l-7.63,5.14c-1.05,0.71-1.69,1.87-1.74,3.13l-0.45,12.93
			c-0.05,1.3,0.55,2.54,1.6,3.31l1.01,0.75c1.24-5.05,3.11-9.87,5.62-14.31l0.01-0.39l0.4-0.27c2.42-4.14,5.36-7.94,8.72-11.37
			C242.74,314.96,240.65,314.63,239.03,315.72z"/>
		<path class="st0" d="M215.37,307.74l-2.89,2.55l-3.83-2.56l-6-4.01c-1.81-1.21-4.26-0.72-5.46,1.09
			c-1.21,1.81-0.72,4.26,1.09,5.47l0.06,0.04l12.3,8.21c0.67,0.44,1.43,0.66,2.19,0.66c0.94,0,1.87-0.33,2.61-0.99l9.34-8.26
			l0.94-0.83c1.63-1.44,1.78-3.93,0.34-5.56c-0.06-0.07-0.13-0.13-0.22-0.16c-1.5-0.62-2.03-0.76-3.49-1.03
			c-0.67-0.12-1.31,0.37-1.86,0.85L215.37,307.74z"/>
	</g>
	<g id="Grupo_146" transform="translate(184.488 533.897)">
		<g id="Elipse_79" transform="translate(-0.488 0.103)">
			<g>
				<path class="st0" d="M103.08-127.05c-29.04,0-52.66-22.89-52.66-51.03s23.62-51.03,52.66-51.03s52.66,22.89,52.66,51.03
					S132.12-127.05,103.08-127.05z M103.08-221.24c-24.69,0-44.78,19.36-44.78,43.16s20.09,43.16,44.78,43.16
					s44.78-19.36,44.78-43.16S127.77-221.24,103.08-221.24z"/>
			</g>
		</g>
		<g id="Trazado_151">
			<path class="st0" d="M75.77-145.63c-1.92,0-3.92-0.06-6-0.17c-0.78-0.04-1.54-0.32-2.16-0.79
				c-25.13-18.97-15.07-49.05-6.24-62.31c1.2-1.81,3.65-2.3,5.46-1.1s2.3,3.65,1.1,5.46c-0.86,1.3-20.52,31.66,3.49,50.92
				c17.72,0.77,28.22-2.79,34.29-11.75c-6.77-8.67-16.23-32.76,3.49-59.05c1.3-1.74,3.78-2.09,5.51-0.79
				c1.74,1.3,2.1,3.77,0.79,5.52c-19.82,26.43-5.21,48.53-2.43,50.74c1.49,1.19,1.92,3.28,1.01,4.96
				C107.27-151.4,95.33-145.63,75.77-145.63z"/>
		</g>
		<g id="Trazado_152">
			<path class="st0" d="M143.71-152.35c-14.06-9.81-25.82-10.7-33.22-9.72l-1.03-7.81c8.76-1.17,22.63-0.19,38.76,11.07
				L143.71-152.35z"/>
		</g>
		<g id="Trazado_153">
			<path class="st0" d="M96.15-131.62c-17.85,0-32.24-12.8-32.91-13.41c-1.61-1.46-1.74-3.94-0.28-5.56
				c1.46-1.61,3.95-1.74,5.56-0.29c0.16,0.14,15.87,14.03,32.73,10.92c10.55-1.94,19.63-10.18,26.98-24.47c1-1.94,3.37-2.7,5.31-1.7
				c1.94,0.99,2.7,3.37,1.7,5.31c-8.54,16.6-19.52,26.23-32.62,28.63C100.42-131.8,98.25-131.62,96.15-131.62z"/>
		</g>
		<g id="Trazado_154">
			<path class="st0" d="M148.5-175.43c-23.16-26.48-43.18-21.79-44.01-21.57l-2.03-7.61c1.01-0.28,25.34-6.43,51.97,24L148.5-175.43
				z"/>
		</g>
		<g id="Trazado_155">
			<path class="st0" d="M89.26-147.98c-0.91,0-1.82-0.31-2.57-0.96c-0.37-0.32-36.94-32.72-3.64-74.9c1.35-1.7,3.83-2,5.54-0.65
				c1.7,1.35,2,3.82,0.65,5.53c-28.57,36.19,1.32,62.94,2.6,64.06c1.64,1.43,1.82,3.91,0.39,5.55
				C91.46-148.43,90.36-147.98,89.26-147.98z"/>
		</g>
	</g>
</g>
</svg>
