<?xml version="1.0" encoding="utf-8"?>
<!-- Generator: Adobe Illustrator 23.0.5, SVG Export Plug-In . SVG Version: 6.00 Build 0)  -->
<svg version="1.1" id="Capa_1" xmlns="http://www.w3.org/2000/svg" xmlns:xlink="http://www.w3.org/1999/xlink" x="0px" y="0px"
	 viewBox="0 0 200 200" style="enable-background:new 0 0 200 200;" xml:space="preserve">
<style type="text/css">
	.st0{fill:#B3C57E;}
</style>
<g id="Grupo_149" transform="translate(-35.191 -281.646)">
	<g id="Trazado_162" transform="translate(1349.639 692.166)">
		<g>
			<path class="st0" d="M-1148.87-254.87v-49.17h-40.65c-2.98,12.02-13.27,20.72-25.57,20.72c-12.31,0-22.59-8.7-25.57-20.72h-39.36
				v49.17H-1148.87 M-1148.87-323.4v-29.18h-33.4h-5.09v3.03v6.5h-6.5h-41.19h-6.5v-6.5v-3.03h-5.07h-33.4v29.18H-1148.87
				 M-1148.64-248.37h-131.61c-3.45,0-6.27-2.86-6.27-6.37v-55.78h51.49c0.34,11.62,9.1,20.72,19.94,20.72s19.59-9.1,19.94-20.72
				h52.78v55.78C-1142.37-251.23-1145.19-248.37-1148.64-248.37z M-1142.37-316.9h-144.15v-35.8c0-3.52,2.81-6.38,6.27-6.38h33.63
				v-4.04c0-5.27,4.22-9.56,9.4-9.56h45.55c5.18,0,9.4,4.29,9.4,9.56v4.04h33.63c3.45,0,6.27,2.86,6.27,6.38V-316.9L-1142.37-316.9z
				 M-1235.04-364.52v14.97h41.19v-14.97H-1235.04z"/>
		</g>
	</g>
	<g id="Sustracción_2">
		<path class="st0" d="M133.57,397.88c-8.51-0.48-15.03-7.73-14.62-16.24h29.23C148.6,390.15,142.07,397.4,133.57,397.88z"/>
	</g>
</g>
</svg>
