<?xml version="1.0" encoding="utf-8"?>
<!-- Generator: Adobe Illustrator 23.0.5, SVG Export Plug-In . SVG Version: 6.00 Build 0)  -->
<svg version="1.1" id="Capa_1" xmlns="http://www.w3.org/2000/svg" xmlns:xlink="http://www.w3.org/1999/xlink" x="0px" y="0px"
	 viewBox="0 0 200 200" style="enable-background:new 0 0 200 200;" xml:space="preserve">
<style type="text/css">
	.st0{fill:#B3C57E;}
</style>
<g id="Grupo_151" transform="translate(-1327.279 -232.26)">
	<g id="Elipse_92" transform="translate(1337.917 913.918)">
		<g>
			<path class="st0" d="M89.36-512.76c-37.99,0-68.9-30.91-68.9-68.9s30.91-68.9,68.9-68.9s68.9,30.91,68.9,68.9
				C158.26-543.67,127.36-512.76,89.36-512.76z M89.36-642.68c-33.64,0-61.02,27.37-61.02,61.02c0,33.64,27.37,61.02,61.02,61.02
				s61.02-27.37,61.02-61.02C150.38-615.31,123.01-642.68,89.36-642.68z"/>
		</g>
	</g>
	<g id="Trazado_167">
		<path class="st0" d="M1450.64,309.61c-0.27,0-0.58-0.01-0.9-0.03c-3-0.23-5.72-1.62-7.68-3.9c-1.95-2.29-2.9-5.19-2.66-8.18
			l-0.01-26.21h7.88v26.52c-0.16,2.16,1.23,3.78,3.08,3.92c0.17,0.02,0.35,0.02,0.53,0l10.77-0.02v7.88h-10.4
			C1451.12,309.6,1450.9,309.61,1450.64,309.61z"/>
	</g>
	<g id="Trazado_168">
		<path class="st0" d="M1403.37,390.43h-7.88v-33.24c0.03-1.23-0.28-2.67-0.62-3l-5.9,0.07v-7.88h5.93c2.22,0,4.19,0.82,5.67,2.37
			c2.89,3.02,2.84,7.71,2.8,8.62V390.43z"/>
	</g>
	<g id="Trazado_169">
		<path class="st0" d="M1413.67,395.65c-2.18,0-3.94-1.76-3.94-3.94v-48.62c0-9.95-0.89-10.75-11.94-10.75h-32.35
			c-2.18,0-3.94-1.76-3.94-3.94s1.76-3.94,3.94-3.94h32.35c13.7,0,19.82,2.69,19.82,18.63v48.63
			C1417.61,393.89,1415.85,395.65,1413.67,395.65z"/>
	</g>
	<g id="Trazado_170">
		<path class="st0" d="M1429.45,357.78c-2.18,0-3.94-1.76-3.94-3.94v-45.53c0.01-0.24,0.05-1.75-0.88-2.72
			c-0.92-0.95-2.63-1.15-3.91-1.15h-11.43c-2.18,0-3.94-1.76-3.94-3.94s1.76-3.94,3.94-3.94h11.43c5.19,0,8.15,2.02,9.72,3.7
			c3.2,3.45,2.98,7.85,2.94,8.34l0.01,45.24C1433.39,356.02,1431.63,357.78,1429.45,357.78z"/>
	</g>
	<g id="Elipse_95" transform="translate(1346.779 921.932)">
		<g>
			<path class="st0" d="M51.8-610.07c-6.1,0-11.06-4.96-11.06-11.06s4.96-11.06,11.06-11.06s11.06,4.96,11.06,11.06
				S57.9-610.07,51.8-610.07z M51.8-628.26c-3.93,0-7.13,3.2-7.13,7.13s3.2,7.12,7.13,7.12s7.13-3.19,7.13-7.12
				C58.92-625.06,55.73-628.26,51.8-628.26z"/>
		</g>
	</g>
	<g id="Trazado_171">
		<path class="st0" d="M1429.46,399.56c-2.18,0-3.94-1.76-3.94-3.94v-7.38c0-2.18,1.76-3.94,3.94-3.94s3.94,1.76,3.94,3.94v7.38
			C1433.4,397.8,1431.64,399.56,1429.46,399.56z"/>
	</g>
	<g id="Elipse_98">
		<path class="st0" d="M1428.9,381.67c-3.07,0-5.56-2.5-5.56-5.57s2.5-5.56,5.56-5.56c3.07,0,5.56,2.5,5.56,5.56
			C1434.47,379.17,1431.97,381.67,1428.9,381.67z M1428.9,373.79c-1.28,0-2.32,1.04-2.32,2.31c0,1.28,1.04,2.32,2.32,2.32
			s2.32-1.04,2.32-2.32C1431.22,374.83,1430.18,373.79,1428.9,373.79z"/>
	</g>
	<g id="Elipse_101">
		<path class="st0" d="M1428.9,371.92c-3.07,0-5.56-2.5-5.56-5.56c0-3.07,2.5-5.56,5.56-5.56c3.07,0,5.56,2.5,5.56,5.56
			C1434.47,369.43,1431.97,371.92,1428.9,371.92z M1428.9,364.05c-1.28,0-2.32,1.04-2.32,2.32s1.04,2.32,2.32,2.32
			s2.32-1.04,2.32-2.32C1431.22,365.08,1430.18,364.05,1428.9,364.05z"/>
	</g>
	<g id="Trazado_172">
		<path class="st0" d="M1450.2,391.96l-7.88-0.05l0.28-48.83c-0.04-0.97,0.08-3.54,2.18-5.86c2.14-2.36,5.48-3.56,9.95-3.56h10.72
			v7.88h-10.72c-3.04,0-4.23,0.79-4.26,1.29L1450.2,391.96z"/>
	</g>
	<g id="Elipse_99" transform="translate(1370.186 933.298)">
		<g>
			<path class="st0" d="M104.41-584.52c-6.1,0-11.06-4.96-11.06-11.06c0-6.1,4.96-11.06,11.06-11.06s11.06,4.96,11.06,11.06
				C115.47-589.48,110.51-584.52,104.41-584.52z M104.41-602.71c-3.93,0-7.12,3.2-7.12,7.13s3.19,7.13,7.12,7.13s7.13-3.2,7.13-7.13
				S108.34-602.71,104.41-602.71z"/>
		</g>
	</g>
	<g id="Elipse_102" transform="translate(1369.086 924.4)">
		<g>
			<path class="st0" d="M98.7-611.02c-4.31,0-7.82-3.5-7.82-7.81s3.51-7.82,7.82-7.82s7.81,3.51,7.81,7.82S103-611.02,98.7-611.02z
				 M98.7-622.71c-2.14,0-3.88,1.74-3.88,3.88s1.74,3.87,3.88,3.87s3.87-1.74,3.87-3.87C102.57-620.97,100.83-622.71,98.7-622.71z"
				/>
		</g>
	</g>
	<g id="Elipse_100" transform="translate(1343.204 938.449)">
		<g>
			<path class="st0" d="M40.51-579.44c-4.31,0-7.82-3.51-7.82-7.82s3.51-7.81,7.82-7.81s7.81,3.5,7.81,7.81
				S44.82-579.44,40.51-579.44z M40.51-591.13c-2.14,0-3.88,1.74-3.88,3.87c0,2.14,1.74,3.88,3.88,3.88s3.87-1.74,3.87-3.88
				C44.39-589.39,42.65-591.13,40.51-591.13z"/>
		</g>
	</g>
	<g id="Elipse_104">
		<circle class="st0" cx="1398.58" cy="300.8" r="4.22"/>
	</g>
	<g id="Elipse_105">
		<circle class="st0" cx="1474.6" cy="337.71" r="4.22"/>
	</g>
</g>
</svg>
