<?xml version="1.0" encoding="utf-8"?>
<!-- Generator: Adobe Illustrator 23.0.5, SVG Export Plug-In . SVG Version: 6.00 Build 0)  -->
<svg version="1.1" id="Capa_1" xmlns="http://www.w3.org/2000/svg" xmlns:xlink="http://www.w3.org/1999/xlink" x="0px" y="0px"
	 viewBox="0 0 200 200" style="enable-background:new 0 0 200 200;" xml:space="preserve">
<style type="text/css">
	.st0{fill:#B3C47D;}
</style>
<g id="Grupo_157" transform="translate(-161.201 -262.636)">
	<g>
		<path class="st0" d="M264.67,423.76c-1.65,1.77-3.8,2.75-6.07,2.75h-0.08c-0.02,0-0.05,0-0.07,0s-0.05,0-0.07,0h-0.08
			c-2.26,0-4.42-0.98-6.07-2.75l-35.42-38.05c-0.36-0.39-0.69-0.8-0.98-1.24c-0.19-0.29-0.41-0.56-0.65-0.82l-27.59-29.64
			c-3.64-3.9-3.64-10.5,0-14.41l35.42-38.05c1.65-1.77,3.8-2.75,6.07-2.75c2.26,0,4.42,0.98,6.07,2.75l18.54,19.92
			c1.23,1.32,2.95,2.07,4.76,2.07c1.8,0,3.53-0.75,4.76-2.07l18.54-19.92c1.65-1.77,3.8-2.75,6.07-2.75c2.26,0,4.42,0.97,6.06,2.74
			l35.43,38.05c3.6,3.87,3.62,10.4,0.07,14.31l4.6,4.6l0.08-0.09c5.97-6.42,5.97-16.84,0-23.26l-35.42-38.05
			c-2.99-3.21-6.9-4.82-10.82-4.82c-3.92,0-7.83,1.61-10.82,4.82l-18.54,19.92l-18.54-19.92c-2.99-3.21-6.91-4.82-10.82-4.82
			c-3.92,0-7.83,1.61-10.82,4.82l-35.42,38.05c-5.98,6.42-5.98,16.84,0,23.26l27.59,29.64c0.48,0.72,1.03,1.41,1.63,2.06
			l35.42,38.06c2.99,3.21,6.91,4.82,10.82,4.82c0.05,0,0.1,0,0.15,0s0.1,0,0.15,0c3.92,0,7.83-1.61,10.82-4.82l2.58-2.77l-4.6-4.6
			L264.67,423.76z"/>
	</g>
	<g id="Unión_13">
		<path class="st0" d="M302.13,432.56h-10.61c-5.21,0-9.45-4.24-9.45-9.45v-23h-23c-5.21,0-9.45-4.24-9.45-9.45v-10.61
			c0-5.21,4.24-9.45,9.45-9.45h23v-23c0-5.21,4.24-9.45,9.45-9.45h10.61c5.21,0,9.45,4.24,9.45,9.45v23h23
			c5.21,0,9.45,4.24,9.45,9.45v10.61c0,5.21-4.24,9.45-9.45,9.45h-23v23C311.58,428.32,307.34,432.56,302.13,432.56z M259.07,376.51
			c-1.95,0-3.54,1.59-3.54,3.54v10.61c0,1.95,1.59,3.54,3.54,3.54h25.96c1.63,0,2.95,1.32,2.95,2.95v25.96
			c0,1.95,1.59,3.54,3.54,3.54h10.61c1.95,0,3.54-1.59,3.54-3.54v-25.96c0-1.63,1.32-2.95,2.95-2.95h25.96
			c1.95,0,3.54-1.59,3.54-3.54v-10.61c0-1.95-1.59-3.54-3.54-3.54h-25.96c-1.63,0-2.95-1.32-2.95-2.95V347.6
			c0-1.95-1.59-3.54-3.54-3.54h-10.61c-1.95,0-3.54,1.59-3.54,3.54v25.96c0,1.63-1.32,2.95-2.95,2.95H259.07z"/>
	</g>
	<g id="Unión_14">
		<path class="st0" d="M295.54,421.82c-1.79,0-3.25-1.45-3.25-3.25v-28.69H263.6c-1.79,0-3.25-1.45-3.25-3.25v-2.57
			c0-1.79,1.45-3.25,3.25-3.25h28.69v-28.69c0-1.79,1.45-3.25,3.25-3.25h2.57c1.79,0,3.25,1.45,3.25,3.25v28.69h28.69
			c1.79,0,3.25,1.45,3.25,3.25v2.57c0,1.79-1.45,3.25-3.25,3.25h-28.69v28.69c0,1.79-1.45,3.25-3.25,3.25H295.54z"/>
	</g>
</g>
</svg>
