<?xml version="1.0" encoding="utf-8"?>
<!-- Generator: Adobe Illustrator 23.0.5, SVG Export Plug-In . SVG Version: 6.00 Build 0)  -->
<svg version="1.1" id="Capa_1" xmlns="http://www.w3.org/2000/svg" xmlns:xlink="http://www.w3.org/1999/xlink" x="0px" y="0px"
	 viewBox="0 0 200 200" style="enable-background:new 0 0 200 200;" xml:space="preserve">
<style type="text/css">
	.st0{fill:#B3C47D;}
</style>
<g id="Grupo_160" transform="translate(-156.361 -536.343)">
	<g id="Grupo_159" transform="translate(182.388 1339.636)">
		<g id="Unión_15">
			<path class="st0" d="M73.13-742.21c-4.45,0-8.06-3.62-8.06-8.06l0,0v-6.51h-6.5c-4.45,0-8.06-3.62-8.06-8.06
				c0-4.45,3.62-8.06,8.06-8.06h6.5v-6.51c0-4.45,3.62-8.06,8.06-8.06h0.01c2.15,0,4.17,0.84,5.69,2.35
				c1.52,1.52,2.36,3.55,2.36,5.7v6.51h6.52h0.01c2.15,0,4.17,0.84,5.69,2.35c1.52,1.52,2.36,3.54,2.36,5.69
				c0,4.45-3.62,8.06-8.05,8.06h-6.53v6.51C81.18-745.83,77.57-742.21,73.13-742.21z M70.58-750.27c0,1.4,1.14,2.54,2.54,2.54
				s2.53-1.14,2.53-2.54v-9.28c0-1.52,1.23-2.76,2.76-2.76h9.28c1.4,0,2.54-1.14,2.54-2.54c0-1.39-1.14-2.53-2.53-2.53l0,0h-9.29
				c-1.52,0-2.76-1.23-2.76-2.76v-9.27c0-0.68-0.26-1.33-0.75-1.8c-0.48-0.48-1.11-0.74-1.78-0.74l0,0c-1.4,0-2.54,1.14-2.54,2.54
				v9.27c0,1.52-1.23,2.76-2.76,2.76h-9.27c-1.4,0-2.54,1.14-2.54,2.54s1.14,2.54,2.54,2.54h9.27c1.52,0,2.76,1.23,2.76,2.76
				V-750.27z"/>
		</g>
	</g>
	<g id="Grupo_158" transform="translate(165.842 1352.528)">
		<g id="Rectángulo_149">
			<path class="st0" d="M65.59-644.14H26.15c-2.04,0-3.68-1.64-3.68-3.68v-42.48c0-2.04,1.64-3.68,3.68-3.68h39.44
				c2.04,0,3.68,1.64,3.68,3.68v42.48C69.27-645.78,67.62-644.14,65.59-644.14z M29.83-651.5h32.08v-35.12H29.83V-651.5z"/>
		</g>
		<g id="Sustracción_12">
			<path class="st0" d="M114.14-631.99H65.59c-2.04,0-3.68-1.64-3.68-3.68v-91.03c0-2.04,1.64-3.68,3.68-3.68h16.11
				c2.04,0,3.68,1.64,3.68,3.68v4.55h9.19v-4.55c0-2.04,1.64-3.68,3.68-3.68h15.89c2.04,0,3.68,1.64,3.68,3.68v91.03
				C117.82-633.65,116.17-631.99,114.14-631.99z M69.27-639.36h41.19v-83.67h-8.53v4.55c0,2.04-1.64,3.68-3.68,3.68H81.69
				c-2.04,0-3.68-1.64-3.68-3.68v-4.55h-8.74L69.27-639.36L69.27-639.36z"/>
		</g>
		<g id="Rectángulo_140">
			<path class="st0" d="M65.59-631.99H26.15c-2.04,0-3.68-1.64-3.68-3.68v-12.14c0-2.04,1.64-3.68,3.68-3.68h39.44
				c2.04,0,3.68,1.64,3.68,3.68v12.14C69.27-633.65,67.62-631.99,65.59-631.99z M29.83-639.36h32.08v-4.77H29.83V-639.36z"/>
		</g>
		<g id="Rectángulo_141">
			<path class="st0" d="M53.46-644.14H38.29c-2.04,0-3.68-1.64-3.68-3.68v-22.76c0-6.21,5.05-11.27,11.27-11.27
				s11.27,5.05,11.27,11.27v22.76C57.14-645.78,55.49-644.14,53.46-644.14z M41.97-651.5h7.81v-19.08c0-2.15-1.76-3.9-3.9-3.9
				s-3.9,1.76-3.9,3.9V-651.5z"/>
		</g>
		<g id="Rectángulo_144">
			<path class="st0" d="M89.87-680.54c-8.73,0-15.82-7.09-15.82-15.82s7.09-15.82,15.82-15.82c8.73,0,15.82,7.09,15.82,15.82
				S98.59-680.54,89.87-680.54z M89.87-704.81c-4.66,0-8.45,3.79-8.45,8.45s3.79,8.45,8.45,8.45s8.45-3.79,8.45-8.45
				S94.53-704.81,89.87-704.81z"/>
		</g>
		<g id="Rectángulo_143">
			<path class="st0" d="M102-631.99H77.73c-2.04,0-3.68-1.64-3.68-3.68v-27.31c0-8.73,7.09-15.82,15.82-15.82
				c8.73,0,15.82,7.09,15.82,15.82v27.31C105.68-633.65,104.04-631.99,102-631.99z M81.41-639.36h16.92v-23.63
				c0-4.66-3.79-8.45-8.45-8.45c-4.66,0-8.45,3.79-8.45,8.45L81.41-639.36L81.41-639.36z"/>
		</g>
		<g id="Trazado_180">
			<path class="st0" d="M65.63-686.98H19.6c-1.28,0-2.48-0.67-3.14-1.77c-0.67-1.09-0.72-2.46-0.13-3.6l12.76-24.88
				c0.63-1.23,1.9-2,3.27-2h33.27c2.04,0,3.68,1.64,3.68,3.68v24.88C69.31-688.63,67.67-686.98,65.63-686.98z M25.62-694.34h36.33
				v-17.53H34.61L25.62-694.34z"/>
		</g>
		<g id="Trazado_181">
			<path class="st0" d="M42.69-699.13h-5.47c-2.04,0-3.68-1.64-3.68-3.68s1.64-3.68,3.68-3.68h5.47c2.04,0,3.68,1.64,3.68,3.68
				S44.72-699.13,42.69-699.13z"/>
		</g>
		<g id="Trazado_182">
			<path class="st0" d="M55.02-699.13h-5.46c-2.04,0-3.68-1.64-3.68-3.68s1.64-3.68,3.68-3.68h5.46c2.04,0,3.68,1.64,3.68,3.68
				S57.05-699.13,55.02-699.13z"/>
		</g>
		<g id="Sustracción_11">
			<path class="st0" d="M117.17-723.02H98.02c-2.04,0-3.68-1.64-3.68-3.68v-0.69c0-2.52-2.06-4.58-4.58-4.58
				c-2.52,0-4.58,2.06-4.58,4.58v0.69c0,2.04-1.65,3.68-3.68,3.68H62.56c-1.45,0-2.77-0.86-3.36-2.19
				c-0.59-1.33-0.35-2.88,0.63-3.96l27.31-30.34c1.39-1.55,4.07-1.55,5.47,0l27.31,30.34c0.97,1.08,1.21,2.63,0.63,3.96
				C119.95-723.88,118.62-723.02,117.17-723.02z M101.32-730.38h7.59l-19.05-21.16l-19.05,21.16h7.37
				c1.33-5.14,6.01-8.95,11.57-8.95C95.31-739.33,99.99-735.53,101.32-730.38z"/>
		</g>
		<g id="Rectángulo_151">
			<path class="st0" d="M65.59-644.14H26.15c-2.04,0-3.68-1.64-3.68-3.68v-42.48c0-2.04,1.64-3.68,3.68-3.68h39.44
				c2.04,0,3.68,1.64,3.68,3.68v42.48C69.27-645.78,67.62-644.14,65.59-644.14z M29.83-651.5h32.08v-35.12H29.83V-651.5z"/>
		</g>
		<g id="Rectángulo_152">
			<path class="st0" d="M65.59-631.99H26.15c-2.04,0-3.68-1.64-3.68-3.68v-12.14c0-2.04,1.64-3.68,3.68-3.68h39.44
				c2.04,0,3.68,1.64,3.68,3.68v12.14C69.27-633.65,67.62-631.99,65.59-631.99z M29.83-639.36h32.08v-4.77H29.83V-639.36z"/>
		</g>
		<g id="Rectángulo_153">
			<path class="st0" d="M53.46-644.14H38.29c-2.04,0-3.68-1.64-3.68-3.68v-22.76c0-6.21,5.05-11.27,11.27-11.27
				s11.27,5.05,11.27,11.27v22.76C57.14-645.78,55.49-644.14,53.46-644.14z M41.97-651.5h7.81v-19.08c0-2.15-1.76-3.9-3.9-3.9
				s-3.9,1.76-3.9,3.9V-651.5z"/>
		</g>
		<g id="Trazado_183">
			<path class="st0" d="M65.63-686.98H19.6c-1.28,0-2.48-0.67-3.14-1.77c-0.67-1.09-0.72-2.46-0.13-3.6l12.76-24.88
				c0.63-1.23,1.9-2,3.27-2h33.27c2.04,0,3.68,1.64,3.68,3.68v24.88C69.31-688.63,67.67-686.98,65.63-686.98z M25.62-694.34h36.33
				v-17.53H34.61L25.62-694.34z"/>
		</g>
		<g id="Trazado_184">
			<path class="st0" d="M42.69-699.13h-5.47c-2.04,0-3.68-1.64-3.68-3.68s1.64-3.68,3.68-3.68h5.47c2.04,0,3.68,1.64,3.68,3.68
				S44.72-699.13,42.69-699.13z"/>
		</g>
		<g id="Trazado_185">
			<path class="st0" d="M55.02-699.13h-5.46c-2.04,0-3.68-1.64-3.68-3.68s1.64-3.68,3.68-3.68h5.46c2.04,0,3.68,1.64,3.68,3.68
				S57.05-699.13,55.02-699.13z"/>
		</g>
		<g id="Rectángulo_154">
			<path class="st0" d="M153.59-644.14h-39.44c-2.04,0-3.68-1.64-3.68-3.68v-42.48c0-2.04,1.64-3.68,3.68-3.68h39.44
				c2.04,0,3.68,1.64,3.68,3.68v42.48C157.27-645.78,155.63-644.14,153.59-644.14z M117.82-651.5h32.08v-35.12h-32.08V-651.5z"/>
		</g>
		<g id="Rectángulo_155">
			<path class="st0" d="M153.59-631.99h-39.44c-2.04,0-3.68-1.64-3.68-3.68v-12.14c0-2.04,1.64-3.68,3.68-3.68h39.44
				c2.04,0,3.68,1.64,3.68,3.68v12.14C157.27-633.65,155.63-631.99,153.59-631.99z M117.82-639.36h32.08v-4.77h-32.08V-639.36z"/>
		</g>
		<g id="Rectángulo_156">
			<path class="st0" d="M141.45-644.14h-15.17c-2.04,0-3.68-1.64-3.68-3.68v-22.76c0-6.21,5.05-11.27,11.27-11.27
				c6.21,0,11.27,5.05,11.27,11.27v22.76C145.12-645.78,143.48-644.14,141.45-644.14z M129.96-651.5h7.81v-19.08
				c0-2.15-1.76-3.9-3.9-3.9c-2.15,0-3.9,1.76-3.9,3.9V-651.5z"/>
		</g>
		<g id="Trazado_186">
			<path class="st0" d="M160.13-686.98h-46.04c-2.04,0-3.68-1.64-3.68-3.68v-24.88c0-2.04,1.64-3.68,3.68-3.68h33.28
				c1.38,0,2.64,0.78,3.27,2l12.76,24.88c0.59,1.14,0.53,2.5-0.13,3.6C162.6-687.65,161.42-686.98,160.13-686.98z M117.77-694.34
				h36.33l-8.99-17.53h-27.34V-694.34z"/>
		</g>
		<g id="Trazado_187">
			<path class="st0" d="M142.53-699.13h-5.47c-2.04,0-3.68-1.64-3.68-3.68s1.64-3.68,3.68-3.68h5.47c2.04,0,3.68,1.64,3.68,3.68
				S144.55-699.13,142.53-699.13z"/>
		</g>
		<g id="Trazado_188">
			<path class="st0" d="M130.19-699.13h-5.47c-2.04,0-3.68-1.64-3.68-3.68s1.64-3.68,3.68-3.68h5.47c2.04,0,3.68,1.64,3.68,3.68
				S132.22-699.13,130.19-699.13z"/>
		</g>
		<g id="Trazado_189">
			<rect x="86.19" y="-673.7" class="st0" width="7.36" height="38.23"/>
		</g>
	</g>
</g>
</svg>
