<?xml version="1.0" encoding="utf-8"?>
<!-- Generator: Adobe Illustrator 23.0.5, SVG Export Plug-In . SVG Version: 6.00 Build 0)  -->
<svg version="1.1" id="Capa_1" xmlns="http://www.w3.org/2000/svg" xmlns:xlink="http://www.w3.org/1999/xlink" x="0px" y="0px"
	 viewBox="0 0 200 200" style="enable-background:new 0 0 200 200;" xml:space="preserve">
<style type="text/css">
	.st0{fill:#98BD11;}
	.st1{fill:#FE007F;}
	.st2{fill:#FE007E;}
	.st3{fill:#FE0075;}
	.st4{fill:#FE0177;}
	.st5{fill:#FE0175;}
	.st6{fill:#95BB0A;}
	.st7{fill:#95BC0A;}
	.st8{fill:#94BB09;}
	.st9{fill:#94BB07;}
	.st10{fill:#95BC0C;}
	.st11{fill:#95BC0B;}
	.st12{fill:#96BD10;}
	.st13{fill:#97BD0D;}
	.st14{fill:#96BC0A;}
	.st15{fill:#97BD11;}
	.st16{fill:#96BC0F;}
	.st17{fill:#91B901;}
	.st18{fill:#91B900;}
	.st19{fill:#92BA00;}
	.st20{fill:#96BD11;}
	.st21{fill:#97BC11;}
	.st22{fill:#96BC0D;}
	.st23{fill:#95BB0B;}
	.st24{fill:#92BA01;}
	.st25{fill:#91BA00;}
	.st26{fill:#95BC11;}
	.st27{fill:#96BD0C;}
	.st28{fill:#97BD0E;}
	.st29{fill:#96BC0B;}
</style>
<g id="jalo_new" transform="translate(-0.426 -8.704)">
	<path id="Trazado_1" class="st0" d="M133.35,79.05c0.96-0.88,2.08-1.57,3.29-2.05c1.12-0.27,2.18-0.7,3.31-0.95
		c2.57-0.59,5.25-0.46,7.75,0.37c0.2,0.09,0.42,0.14,0.64,0.13c1.28,0.43,2.45,1.13,3.44,2.05c0.4,0.57,0.9,1.07,1.47,1.48
		c0.49,0.48,0.88,1.04,1.18,1.65c0.53,1.13,0.99,2.29,1.38,3.47c0.12,0.5,0.23,1,0.36,1.49c0.11,0.24,0.04,0.53-0.17,0.69
		c-0.36-0.24-0.17-0.8-0.56-1c-0.55-1.23-1.24-2.39-2.05-3.46c-0.39-0.77-1.01-1.39-1.77-1.79l-2.26-1.45
		c-0.82-0.58-1.78-0.93-2.78-1.04c-2.13-0.38-4.33-0.21-6.38,0.47c-0.71,0.18-1.4,0.45-2.06,0.79c-0.16,0.1-0.39,0.13-0.41,0.38
		l-1.25,0.85c-0.27,0.02-0.49,0.21-0.56,0.47l-0.75,0.76c-0.26,0.06-0.46,0.29-0.47,0.56l-1.44,2.44c-0.5,0.67-0.79,1.47-0.84,2.3
		c-0.58,2.73-0.35,5.57,0.68,8.17l-0.01-0.01c0.22,0.45,0.3,0.99,0.75,1.31c1.35,2.28,3.32,4.14,5.67,5.35
		c1.01,0.64,2.16,1.05,3.35,1.19c2.35,0.42,4.76,0.17,6.97-0.73c0.59-0.18,1.14-0.48,1.61-0.88l1.67-1.16
		c0.33-0.07,0.6-0.31,0.71-0.63l0.9-0.91c0.25-0.11,0.47-0.24,0.48-0.56c1.11-1.45,2-3.06,2.64-4.77c0.42-0.81,0.66-1.69,0.71-2.6
		c0.32-2.12,0.17-4.29-0.45-6.35c-0.05-0.18-0.06-0.4-0.26-0.51c-0.64-1.71-1.53-3.32-2.63-4.78c-0.01-0.32-0.23-0.45-0.48-0.56
		c-1.56-1.64-3.43-2.95-5.5-3.87c-0.49-0.48-1.23-0.39-1.81-0.8c0.2-0.27,0.42-0.23,0.67-0.18c1.06,0.2,2.1,0.48,3.11,0.86
		c0.18,0.07,0.35,0.19,0.56,0.14c2.36,0.96,4.44,2.49,6.07,4.44c0.04,0.19,0.08,0.38,0.33,0.4c0.84,0.94,1.53,2.01,2.04,3.16
		c0.16,0.66,0.39,1.3,0.69,1.91c0.8,2.3,1.09,4.76,0.85,7.18c-0.2,1.88-0.69,3.72-1.45,5.46c-0.07,0.13-0.1,0.28-0.09,0.43
		c-0.86,1.87-2.12,3.54-3.69,4.87c-0.32,0.09-0.59,0.33-0.71,0.64c-0.4,0.4-0.86,0.74-1.37,1.01c-1.09,0.5-2.11,1.13-3.24,1.54
		c-0.01,0-0.03,0.05-0.02,0.07c0,0.02,0.03,0.04,0.04,0.06c-0.23,0.16-0.5,0.26-0.78,0.28c-0.72,0.08-1.44,0.23-2.13,0.44
		c-3.73,0.73-7.6,0.17-10.98-1.58c-0.17-0.09-0.32-0.25-0.54-0.21c-1.05-0.53-2.02-1.22-2.85-2.05c-0.34-0.53-0.79-0.98-1.32-1.32
		c-1.54-1.61-2.7-3.55-3.38-5.68c-0.06-0.56-0.19-1.11-0.38-1.64c-0.72-3.07-0.61-6.27,0.32-9.29c0.14-0.29,0.2-0.61,0.2-0.93
		c0.5-1.45,1.3-2.77,2.34-3.9C132.35,80.21,132.89,79.67,133.35,79.05z"/>
	<path id="Trazado_2" class="st1" d="M81.93,97.84c-0.22,3.72-2,7.18-4.9,9.53c-0.78,0.65-1.62,1.21-2.52,1.69
		c-0.33,0.26-0.8,0.21-1.07-0.12c-0.06-0.08-0.11-0.17-0.14-0.26c-0.42-0.84-0.88-1.65-1.33-2.48c-0.3-0.37-0.24-0.91,0.13-1.21
		c0.07-0.06,0.15-0.1,0.24-0.14c2.84-1.39,4.71-4.21,4.87-7.37c0.02-0.1,0.04-0.19,0.08-0.28c0.05,0.01,0.08,0.13,0.09,0.1
		c0.01-0.17,0.02-0.34,0.01-0.52V63.01c0.01-0.1,0.01-0.2-0.01-0.29c-0.01-0.04,0.14-0.24-0.09-0.14c-0.09-0.61-0.19-1.22-0.27-1.82
		c-0.06-0.43,0.14-0.66,0.58-0.66c1.04,0,2.08-0.01,3.11,0.03c0.62-0.04,1.16,0.43,1.2,1.06c0,0,0,0.01,0,0.01
		c-0.04,0.44-0.03,0.88,0.01,1.32c-0.01,11.24-0.01,22.48,0,33.72C81.85,96.77,81.85,97.31,81.93,97.84z"/>
	<path id="Trazado_3" class="st2" d="M119.69,63.92c-0.13-1.03-0.28-2.05-0.39-3.08c-0.06-0.52,0.2-0.76,0.75-0.75
		c0.84,0.02,1.68,0,2.52,0.01c1.24,0.02,1.61,0.41,1.61,1.67c0,11.05,0,22.09,0,33.14c0,2.87,0,5.73,0,8.6
		c0,0.78-0.16,1.49-1.05,1.74c-0.87,0.02-1.73,0-2.59,0.01c-0.53,0-0.76-0.22-0.74-0.76c0.03-0.84,0.01-1.68,0.01-2.52V64.52
		c0-0.15,0-0.3,0-0.44c0.01-0.1,0-0.2-0.01-0.29C119.74,63.82,119.73,63.88,119.69,63.92z"/>
	<path id="Trazado_4" class="st3" d="M81.82,97.84c-0.24-0.22-0.14-0.51-0.14-0.77c0-11.7,0-23.4,0-35.1c0-0.26-0.1-0.55,0.14-0.77
		c0.1,0.31,0.14,0.63,0.1,0.95c0,11.46,0,22.91,0,34.37C81.92,96.96,81.86,97.4,81.82,97.84z"/>
	<path id="Trazado_5" class="st4" d="M119.7,63.92l0.06-0.79h0.11v40.79c0,1.19,0,1.17,1.23,1.2c0.68-0.1,1.37-0.05,2.03,0.13
		c-0.97,0.2-1.96,0.24-2.94,0.14c-0.27,0.01-0.5-0.21-0.5-0.48c0-0.02,0-0.04,0-0.06c0-0.1,0-0.2,0-0.3
		C119.7,91.01,119.7,77.46,119.7,63.92z"/>
	<path id="Trazado_6" class="st5" d="M77.28,62.58c0.07-0.25-0.06-0.54,0.14-0.85v36.32c-0.2-0.3-0.07-0.59-0.14-0.84
		c-0.01-1.19-0.02-2.37-0.02-3.56c0-10.24,0-20.47,0-30.7C77.26,62.82,77.27,62.7,77.28,62.58z"/>
	<path id="Trazado_7" class="st6" d="M160.2,98.26c-0.25-0.25-0.03-0.46,0.06-0.67c1-2.28,1.49-4.74,1.44-7.23
		c-0.05-2.21-0.54-4.39-1.44-6.42c-0.09-0.21-0.32-0.42-0.06-0.67C162.61,87.99,162.6,93.56,160.2,98.26z"/>
	<path id="Trazado_8" class="st7" d="M136.79,105.07c0.23-0.24,0.42,0,0.59,0.09c2.77,1.43,5.88,2.07,8.99,1.84
		c1.2-0.09,2.39-0.3,3.54-0.63c0.19-0.05,0.38-0.17,0.53,0.05C145.91,107.99,140.91,107.5,136.79,105.07z"/>
	<path id="Trazado_9" class="st8" d="M155.44,86.37c0.34,0.17,0.34,0.17,0.54,0.81c0-1.03-0.21-2.05-0.62-3
		c-0.27-0.63-0.58-1.25-0.85-1.88c-0.08-0.18-0.33-0.35-0.08-0.58c1.49,2.46,2.23,5.29,2.13,8.16c0,0.34,0.07,1.02-0.1,0.98
		c-0.45-0.1-0.2-0.64-0.23-0.99C156.06,88.68,155.8,87.51,155.44,86.37z"/>
	<path id="Trazado_10" class="st9" d="M151.44,101.71c0.19,0.19,0,0.25-0.12,0.31c-3.53,2-7.79,2.18-11.48,0.49
		c-0.15-0.08-0.29-0.16-0.42-0.26c0-0.02,0.01-0.05,0.03-0.06c0.02-0.02,0.04-0.03,0.06-0.05c2.36,1.09,4.99,1.46,7.56,1.08
		C148.6,102.94,150.07,102.43,151.44,101.71z"/>
	<path id="Trazado_11" class="st9" d="M151.76,75.76c-0.39,0.28-0.7-0.04-1.01-0.17c-1.01-0.36-2.06-0.58-3.13-0.66
		c0.55,0.2,1.1,0.39,1.64,0.6c0.24,0.09,0.19,0.17-0.03,0.21c-1.8-0.67-3.7-1.06-5.62-1.15C145.13,73.98,149.58,74.66,151.76,75.76z
		"/>
	<path id="Trazado_12" class="st10" d="M137.72,80.34c-0.24-0.24,0.02-0.28,0.15-0.34c3.66-1.76,7.39-2.32,11.24-0.63
		c0.13,0.06,0.45,0.06,0.24,0.37c-3.22-1.43-6.89-1.47-10.15-0.11C138.68,79.81,138.18,80.04,137.72,80.34z"/>
	<path id="Trazado_13" class="st11" d="M129.99,84.47c0.28,0.28,0.07,0.56-0.03,0.82c-0.58,1.75-0.87,3.59-0.85,5.43
		c-0.03,1.65,0.21,3.29,0.72,4.86c0.08,0.25,0.26,0.5,0,0.75C128.47,92.48,128.52,88.27,129.99,84.47z"/>
	<path id="Trazado_14" class="st6" d="M148.35,76.94c-0.51,0.28-0.95-0.1-1.38-0.23c-3.23-0.83-6.64-0.6-9.73,0.65
		c-0.2,0.07-0.39,0.25-0.6,0.03C140.32,75.63,144.55,75.46,148.35,76.94z"/>
	<path id="Trazado_15" class="st12" d="M133.65,95.72c-0.54-0.68-0.84-1.51-0.86-2.38c-0.49-2.5-0.31-5.08,0.54-7.48
		c0.06-0.26,0.19-0.5,0.38-0.69c0.01-0.01,0.05,0.01,0.06,0.03c0.02,0.02,0.03,0.04,0.04,0.06c-1.22,3.04-1.35,6.41-0.36,9.54
		C133.58,95.09,133.65,95.41,133.65,95.72z"/>
	<path id="Trazado_16" class="st10" d="M157.84,84.5c0.13-0.4,0.2-0.08,0.25,0.03c0.3,0.88,0.52,1.79,0.63,2.72
		c0.28,2.12,0.1,4.28-0.52,6.32c-0.03,0.19-0.11,0.38-0.22,0.54c-0.1,0.11-0.1-0.08-0.13-0.15c0.18-1.03,0.53-2.02,0.63-3.08
		c0.24-2.02,0.03-4.08-0.6-6.01C157.85,84.74,157.84,84.62,157.84,84.5z"/>
	<path id="Trazado_17" class="st13" d="M150.11,91.89c-0.13-0.12-0.17-0.31-0.09-0.47c0.69-1.86,0.59-3.92-0.28-5.71
		c-0.02-0.04,0.05-0.13,0.08-0.19C151,87.45,151.11,89.85,150.11,91.89z"/>
	<path id="Trazado_18" class="st14" d="M148.94,84.56c-0.06,0.09-0.18,0.12-0.27,0.06c-0.02-0.01-0.03-0.02-0.05-0.04
		c-1.45-1.2-3.41-1.59-5.21-1.03c-0.19,0.04-0.37,0.18-0.54-0.02C144.92,82.59,147.32,83,148.94,84.56z"/>
	<path id="Trazado_19" class="st15" d="M140.07,86.11c0.04,0.06,0.13,0.15,0.1,0.18c-0.48,1.42-0.58,2.95-0.27,4.41
		c0,0.05,0,0.1,0,0.15c0.07,0.15-0.01,0.17-0.13,0.15C139.23,89.39,139.34,87.64,140.07,86.11z"/>
	<path id="Trazado_20" class="st16" d="M151.21,106.14c-0.07-0.05-0.35-0.07-0.13-0.16c1.06-0.46,2.1-0.98,3.09-1.57
		c0.09-0.05,0.2-0.01,0.25,0.07C153.43,105.18,152.35,105.74,151.21,106.14z"/>
	<path id="Trazado_21" class="st9" d="M151.62,81.16c0.04-0.09,0.15-0.13,0.24-0.09c0.02,0.01,0.04,0.03,0.06,0.05
		c0.52,0.51,1.03,1.02,1.53,1.54c0.1,0.11,0.05,0.22-0.07,0.3L151.62,81.16z"/>
	<path id="Trazado_22" class="st8" d="M133.9,79.11c-0.31,0.73-0.9,1.31-1.63,1.61C132.71,80.08,133.26,79.53,133.9,79.11z"/>
	<path id="Trazado_23" class="st17" d="M153.26,80.15c-0.67-0.27-1.2-0.8-1.47-1.48C152.36,79.08,152.85,79.58,153.26,80.15z"/>
	<path id="Trazado_24" class="st18" d="M145.56,97.97c0.26-0.68,0.79-1.21,1.48-1.47C146.6,97.06,146.11,97.55,145.56,97.97z"/>
	<path id="Trazado_25" class="st19" d="M133.15,101.76c0.64,0.19,1.13,0.68,1.32,1.32C133.97,102.7,133.53,102.26,133.15,101.76z"/>
	<path id="Trazado_26" class="st20" d="M139.77,90.93l0.13-0.15c0.2,0.53,0.63,0.99,0.46,1.63
		C140.11,91.94,139.91,91.45,139.77,90.93z"/>
	<path id="Trazado_27" class="st21" d="M134.37,96.9c-0.63-0.22-0.65-0.79-0.75-1.31C133.95,95.97,134.21,96.42,134.37,96.9z"/>
	<path id="Trazado_28" class="st18" d="M141.5,84.36c0.02,0.39-0.28,0.71-0.67,0.73c-0.02,0-0.04,0-0.06,0
		C140.95,84.79,141.2,84.54,141.5,84.36z"/>
	<path id="Trazado_29" class="st22" d="M155.8,103.51c0.03-0.44,0.23-0.69,0.71-0.64C156.31,103.13,156.08,103.34,155.8,103.51z"/>
	<path id="Trazado_30" class="st23" d="M153.82,99.97c-0.04,0.43-0.23,0.7-0.71,0.63L153.82,99.97z"/>
	<path id="Trazado_31" class="st22" d="M136.42,81.62c-0.02-0.4,0.12-0.62,0.56-0.47L136.42,81.62z"/>
	<path id="Trazado_32" class="st11" d="M135.21,82.92c-0.16-0.46,0.08-0.57,0.47-0.56L135.21,82.92z"/>
	<path id="Trazado_33" class="st24" d="M154.72,79.29c0.39-0.01,0.58,0.15,0.48,0.56L154.72,79.29z"/>
	<path id="Trazado_34" class="st25" d="M155.2,98.53c0.1,0.41-0.08,0.58-0.48,0.56L155.2,98.53z"/>
	<path id="Trazado_35" class="st26" d="M158.16,80.26c-0.33,0.05-0.52-0.02-0.33-0.4L158.16,80.26z"/>
	<path id="Trazado_36" class="st1" d="M112.6,103.69c-0.12-3.95-0.21-7.9-0.34-11.86c0.07-2.4,0-4.79-0.19-7.18
		c-0.36-3.91-3.32-7.09-7.2-7.71c-2.24-0.43-4.53-0.47-6.78-0.11c-2.65,0.35-5.2,1.25-7.48,2.65c-0.51,0.19-0.76,0.75-0.57,1.26
		c0.03,0.07,0.07,0.15,0.11,0.21c0.32,0.61,0.58,1.25,0.85,1.89c0.1,0.39,0.49,0.62,0.87,0.53c0.09-0.02,0.18-0.06,0.26-0.12
		c0.46-0.23,0.92-0.47,1.39-0.7c2.47-1.28,5.2-1.95,7.98-1.97c4.23,0.05,6.36,2.03,6.48,5.95c0.01,0.44-0.09,0.62-0.54,0.66
		c-0.86,0.08-1.72,0.2-2.57,0.31c-3.59,0.4-7.12,1.19-10.53,2.36c-1.31,0.44-2.53,1.13-3.6,2.02c-2.24,1.88-3.21,4.87-2.51,7.71
		c0.53,2.65,2.56,4.73,5.19,5.34c0.97,0.29,1.98,0.46,2.99,0.5c3.63,0.13,7.21-0.88,10.23-2.91c0.5-0.31,0.99-0.63,1.55-0.99
		c0.07,0.46,0.1,0.85,0.18,1.23c0.07,0.38,0.17,0.77,0.27,1.15c0.21,0.75,0.62,1.21,1.49,1.1c0.42-0.03,0.84-0.03,1.26-0.01
		C112.47,104.99,112.64,104.81,112.6,103.69z M108.03,98.13c-2.23,1.6-4.77,2.72-7.45,3.31c-1.49,0.38-3.05,0.42-4.56,0.13
		c-2.22-0.31-3.77-2.36-3.46-4.57c0.11-0.77,0.44-1.5,0.95-2.09c0.83-1.06,1.97-1.83,3.26-2.22c2.8-0.88,5.69-1.47,8.61-1.77
		c0.66-0.09,1.32-0.17,1.98-0.25c0.23-0.03,0.49-0.16,0.67,0.13C108.07,93.24,108.08,95.69,108.03,98.13z"/>
	<path id="Trazado_37" class="st3" d="M107.91,97.98c-0.09-2.45-0.09-4.89,0-7.34c0.22-0.11,0.17,0.07,0.17,0.17
		c0,2.34,0,4.68,0,7.02c-0.01,0.07-0.03,0.13-0.05,0.19L107.91,97.98z"/>
	<path id="Trazado_38" class="st0" d="M149.85,85.73c-0.03-0.07-0.04-0.14-0.03-0.22c-0.21-0.41-0.51-0.76-0.88-1.02
		c-0.1-0.01-0.19-0.05-0.27-0.11c-1.07-0.89-2.45-1.34-3.84-1.26c-0.68,0.02-1.29,0.3-1.96,0.33c-0.52,0.17-0.99,0.46-1.37,0.86
		c-0.14,0.33-0.4,0.59-0.73,0.73c-0.32,0.29-0.56,0.66-0.71,1.07c-0.53,1.47-0.62,3.07-0.25,4.59c0.11,0.62,0.47,1.16,0.54,1.78
		c1.04,2.25,2.55,4.24,4.44,5.83c0.38,0.35,0.55,0.07,0.75-0.18c0.39-0.58,0.89-1.08,1.48-1.47c1.36-1.35,2.41-2.98,3.08-4.78
		c-0.01-0.2,0.02-0.39,0.09-0.58C150.86,89.48,150.74,87.45,149.85,85.73z M148.5,89.8c-0.43,1.01-1.23,1.81-2.25,2.23
		c-1.13,0.54-2.48,0.3-3.36-0.6l-0.61-0.62c-0.7-0.6-1.03-1.54-0.86-2.45c-0.08-0.75,0.25-1.49,0.86-1.93l0.61-0.62
		c1.17-1.13,3-1.19,4.24-0.15c0.58,0.48,1.05,1.09,1.36,1.78C148.93,88.17,148.93,89.07,148.5,89.8L148.5,89.8z"/>
	<path id="Trazado_39" class="st27" d="M147.13,85.72c-1.3-0.84-2.99-0.78-4.24,0.15c-0.11-0.07-0.11-0.15-0.03-0.23
		c1.26-1,3.03-1.03,4.32-0.08C147.21,85.56,147.16,85.66,147.13,85.72z"/>
	<path id="Trazado_40" class="st28" d="M142.29,86.44c-0.97,1.3-0.97,3.08,0,4.38c-0.62,0.04-0.59-0.53-0.74-0.85
		c-0.5-1.11-0.36-2.41,0.36-3.39C141.98,86.45,142.07,86.2,142.29,86.44z"/>
	<path id="Trazado_41" class="st14" d="M142.89,91.36c0.97,0.7,2.21,0.92,3.36,0.6c0.08,0.03,0.25,0.06,0.17,0.13
		c-1.22,0.55-2.64,0.3-3.6-0.63C142.81,91.46,142.87,91.4,142.89,91.36z"/>
	<path id="Trazado_42" class="st29" d="M148.49,89.79c0.2-0.77,0.2-1.58,0-2.35c0.03-0.07,0.05-0.25,0.14-0.15
		c0.41,0.83,0.41,1.81,0,2.64C148.55,90.05,148.52,89.86,148.49,89.79z"/>
	<path id="Trazado_43" class="st1" d="M28.89,104.56c-1.24-1.26,0-3.78,1.86-3.15c1.24,1.26,86.1,57.32,131.94,28.35
		c2.48-1.26,4.96,3.78,2.48,8.82c-1.24,2.52-6.19,11.34-24.78,11.34c-12.39,0-48.32-1.26-95.39-34.01
		C37.57,110.86,30.13,105.82,28.89,104.56z"/>
</g>
</svg>
