<?xml version="1.0" encoding="utf-8"?>
<!-- Generator: Adobe Illustrator 23.0.5, SVG Export Plug-In . SVG Version: 6.00 Build 0)  -->
<svg version="1.1" id="Capa_1" xmlns="http://www.w3.org/2000/svg" xmlns:xlink="http://www.w3.org/1999/xlink" x="0px" y="0px"
	 viewBox="0 0 200 200" style="enable-background:new 0 0 200 200;" xml:space="preserve">
<style type="text/css">
	.st0{fill:#CB4D8C;}
</style>
<g id="Trazado_45">
	<path class="st0" d="M48.33,133.24c-0.61,0-1.18-0.39-1.37-1c-0.6-1.9-1.16-3.77-1.66-5.56c-0.21-0.77,0.23-1.56,1-1.77
		c0.76-0.21,1.56,0.23,1.77,1c0.49,1.76,1.04,3.6,1.63,5.47c0.24,0.76-0.18,1.57-0.94,1.8C48.62,133.22,48.47,133.24,48.33,133.24z
		 M44.09,116.52c-0.68,0-1.29-0.49-1.41-1.19c-0.36-2-0.64-3.95-0.84-5.79c-0.09-0.79,0.48-1.5,1.27-1.59
		c0.8-0.09,1.5,0.48,1.59,1.27c0.19,1.78,0.47,3.66,0.81,5.59c0.14,0.78-0.38,1.53-1.16,1.67
		C44.26,116.52,44.17,116.52,44.09,116.52z M43.11,99.35c-0.05,0-0.1,0-0.16-0.01c-0.79-0.08-1.36-0.79-1.28-1.58
		c0.23-2.11,0.62-4.1,1.15-5.89c0.23-0.76,1.03-1.19,1.79-0.96c0.76,0.23,1.19,1.03,0.96,1.79c-0.49,1.63-0.84,3.44-1.05,5.38
		C44.46,98.81,43.84,99.35,43.11,99.35z M122.87,91.22c-0.05,0-0.1,0-0.15-0.01c-1.81-0.19-3.71-0.45-5.79-0.81
		c-0.78-0.13-1.31-0.88-1.18-1.66c0.13-0.78,0.88-1.31,1.66-1.18c2.02,0.35,3.85,0.6,5.6,0.78c0.79,0.08,1.36,0.79,1.28,1.58
		C124.22,90.67,123.6,91.22,122.87,91.22z M134.33,91.13c-0.7,0-1.31-0.5-1.42-1.21c-0.12-0.78,0.41-1.52,1.19-1.65
		c1.89-0.3,3.64-0.78,5.2-1.43c0.73-0.31,1.57,0.04,1.88,0.78c0.3,0.73-0.04,1.57-0.78,1.88c-1.77,0.74-3.74,1.28-5.86,1.61
		C134.48,91.12,134.41,91.13,134.33,91.13z M105.92,88.04c-0.11,0-0.22-0.01-0.34-0.04c-1.84-0.44-3.71-0.91-5.6-1.39
		c-0.77-0.2-1.24-0.98-1.04-1.75c0.2-0.77,0.98-1.23,1.75-1.04c1.88,0.48,3.74,0.94,5.56,1.38c0.77,0.19,1.25,0.96,1.06,1.73
		C107.16,87.6,106.57,88.04,105.92,88.04z M50.31,84.19c-0.42,0-0.83-0.18-1.12-0.53c-0.5-0.62-0.4-1.52,0.21-2.02
		c1.56-1.26,3.36-2.29,5.36-3.05c0.74-0.28,1.57,0.09,1.86,0.83c0.28,0.74-0.09,1.57-0.83,1.86c-1.72,0.66-3.26,1.53-4.58,2.6
		C50.95,84.08,50.63,84.19,50.31,84.19z M89.19,83.81c-0.12,0-0.23-0.01-0.35-0.04c-1.85-0.46-3.7-0.92-5.57-1.36
		c-0.77-0.18-1.25-0.96-1.07-1.73c0.18-0.77,0.95-1.25,1.73-1.07c1.88,0.44,3.75,0.9,5.61,1.37c0.77,0.19,1.24,0.97,1.05,1.74
		C90.42,83.37,89.83,83.81,89.19,83.81z M148.55,82.36c-0.27,0-0.55-0.08-0.79-0.24c-0.66-0.44-0.85-1.33-0.41-1.99
		c0.93-1.41,1.75-3.04,2.44-4.84c0.28-0.74,1.11-1.11,1.86-0.83c0.74,0.28,1.11,1.11,0.83,1.86c-0.76,1.99-1.68,3.81-2.72,5.4
		C149.47,82.14,149.02,82.36,148.55,82.36z M72.32,80.17c-0.06,0-0.13,0-0.19-0.01c-1.95-0.26-3.82-0.42-5.57-0.46
		c-0.79-0.02-1.42-0.68-1.4-1.47c0.02-0.79,0.72-1.4,1.47-1.4c1.85,0.04,3.83,0.21,5.89,0.48c0.79,0.11,1.34,0.83,1.23,1.62
		C73.65,79.65,73.03,80.17,72.32,80.17z M153.68,66.07c-0.05,0-0.11,0-0.17-0.01c-0.79-0.09-1.36-0.8-1.26-1.59
		c0.2-1.76,0.35-3.66,0.43-5.63c0.03-0.79,0.69-1.4,1.5-1.38c0.79,0.03,1.41,0.7,1.38,1.5c-0.08,2.04-0.23,4-0.44,5.84
		C155.03,65.53,154.4,66.07,153.68,66.07z"/>
</g>
</svg>
