<?xml version="1.0" encoding="utf-8"?>
<!-- Generator: Adobe Illustrator 23.0.5, SVG Export Plug-In . SVG Version: 6.00 Build 0)  -->
<svg version="1.1" id="Capa_1" xmlns="http://www.w3.org/2000/svg" xmlns:xlink="http://www.w3.org/1999/xlink" x="0px" y="0px"
	 viewBox="0 0 200 271.57" style="enable-background:new 0 0 200 271.57;" xml:space="preserve">
<style type="text/css">
	.st0{fill:#CB4D8C;}
</style>
<g id="Trazado_45_1_">
	<path class="st0" d="M76.03,254.68c-0.23,0-0.47-0.08-0.66-0.25c-1.03-0.9-2.03-1.81-2.99-2.72c-0.4-0.38-0.42-1.01-0.04-1.41
		c0.38-0.4,1.01-0.42,1.41-0.04c0.94,0.89,1.92,1.78,2.93,2.66c0.42,0.36,0.46,1,0.09,1.41C76.58,254.56,76.31,254.68,76.03,254.68z
		 M67.54,246.22c-0.28,0-0.56-0.12-0.76-0.35c-0.91-1.05-1.77-2.11-2.56-3.15c-0.33-0.44-0.25-1.07,0.19-1.4
		c0.44-0.34,1.07-0.25,1.4,0.19c0.77,1.01,1.6,2.03,2.48,3.05c0.36,0.42,0.32,1.05-0.1,1.41C68,246.14,67.77,246.22,67.54,246.22z
		 M60.66,236.42c-0.36,0-0.7-0.19-0.88-0.53c-0.66-1.23-1.25-2.47-1.76-3.7c-0.21-0.51,0.03-1.09,0.54-1.31
		c0.51-0.21,1.1,0.03,1.31,0.54c0.48,1.17,1.05,2.35,1.67,3.52c0.26,0.49,0.08,1.09-0.41,1.35
		C60.98,236.38,60.82,236.42,60.66,236.42z M56.78,225.14c-0.49,0-0.92-0.36-0.99-0.85c-0.2-1.37-0.31-2.76-0.32-4.12
		c0-0.55,0.44-1,0.99-1.01c0,0,0,0,0.01,0c0.55,0,1,0.44,1,0.99c0.01,1.27,0.11,2.57,0.29,3.84c0.08,0.55-0.3,1.05-0.84,1.13
		C56.88,225.13,56.83,225.14,56.78,225.14z M57.55,213.26c-0.09,0-0.18-0.01-0.27-0.04c-0.53-0.15-0.84-0.7-0.69-1.23
		c0.36-1.29,0.82-2.6,1.36-3.89c0.21-0.51,0.8-0.75,1.31-0.54c0.51,0.21,0.75,0.8,0.54,1.31c-0.51,1.21-0.94,2.44-1.28,3.65
		C58.39,212.97,57.99,213.26,57.55,213.26z M62.72,202.49c-0.19,0-0.39-0.06-0.56-0.17c-0.46-0.31-0.57-0.93-0.26-1.39
		c0.74-1.09,1.56-2.19,2.43-3.28c0.35-0.43,0.98-0.5,1.41-0.15c0.43,0.35,0.5,0.98,0.15,1.41c-0.84,1.04-1.63,2.1-2.34,3.15
		C63.35,202.33,63.04,202.49,62.72,202.49z M70.51,193.38c-0.26,0-0.52-0.1-0.72-0.3c-0.39-0.4-0.38-1.03,0.02-1.41
		c0.93-0.91,1.93-1.83,2.97-2.75c0.41-0.36,1.05-0.33,1.41,0.09c0.37,0.41,0.33,1.05-0.09,1.41c-1.01,0.9-1.99,1.8-2.9,2.69
		C71.01,193.29,70.76,193.38,70.51,193.38z M79.63,185.59c-0.3,0-0.6-0.14-0.8-0.4c-0.33-0.44-0.25-1.07,0.19-1.4
		c0.98-0.75,2.08-1.54,3.26-2.38c0.45-0.32,1.07-0.21,1.39,0.24c0.32,0.45,0.21,1.08-0.24,1.39c-1.17,0.83-2.24,1.61-3.21,2.34
		C80.05,185.52,79.84,185.59,79.63,185.59z M89.44,178.65c-0.32,0-0.63-0.15-0.82-0.43c-0.31-0.45-0.2-1.08,0.25-1.39
		c1.06-0.74,2.15-1.5,3.28-2.29c0.45-0.32,1.08-0.21,1.39,0.24c0.32,0.45,0.21,1.08-0.24,1.39c-1.13,0.79-2.22,1.56-3.29,2.3
		C89.83,178.59,89.64,178.65,89.44,178.65z M99.21,171.65c-0.31,0-0.61-0.14-0.8-0.4c-0.33-0.44-0.24-1.07,0.2-1.4
		c1.05-0.78,2.11-1.59,3.17-2.41c0.44-0.34,1.07-0.26,1.4,0.18c0.34,0.44,0.26,1.06-0.18,1.4c-1.08,0.83-2.14,1.65-3.2,2.44
		C99.62,171.59,99.42,171.65,99.21,171.65z M108.61,164.18c-0.28,0-0.56-0.12-0.76-0.35c-0.36-0.42-0.31-1.05,0.11-1.41
		c1-0.85,2-1.72,2.99-2.62c0.41-0.37,1.04-0.34,1.41,0.08c0.37,0.41,0.33,1.04-0.08,1.41c-1.01,0.9-2.02,1.79-3.03,2.65
		C109.07,164.1,108.84,164.18,108.61,164.18z M117.42,156.02c-0.25,0-0.51-0.1-0.7-0.29c-0.39-0.39-0.4-1.02-0.01-1.41
		c0.93-0.95,1.85-1.92,2.73-2.88c0.37-0.41,1-0.43,1.41-0.06c0.41,0.37,0.43,1.01,0.06,1.41c-0.89,0.98-1.83,1.96-2.78,2.93
		C117.93,155.92,117.67,156.02,117.42,156.02z M125.33,147.01c-0.21,0-0.43-0.07-0.61-0.21c-0.44-0.34-0.52-0.97-0.18-1.4
		c0.81-1.05,1.61-2.12,2.36-3.18c0.32-0.45,0.94-0.56,1.39-0.24c0.45,0.32,0.56,0.94,0.24,1.39c-0.77,1.09-1.58,2.18-2.41,3.26
		C125.93,146.88,125.63,147.01,125.33,147.01z M131.99,137.03c-0.17,0-0.33-0.04-0.49-0.13c-0.48-0.27-0.65-0.88-0.38-1.36
		c0.65-1.16,1.27-2.34,1.83-3.5c0.24-0.5,0.84-0.7,1.34-0.46c0.5,0.24,0.7,0.84,0.46,1.34c-0.58,1.19-1.21,2.4-1.88,3.6
		C132.68,136.84,132.34,137.03,131.99,137.03z M136.9,126.09c-0.11,0-0.22-0.02-0.32-0.05c-0.52-0.18-0.8-0.75-0.62-1.27
		c0.42-1.24,0.81-2.51,1.15-3.76c0.14-0.53,0.69-0.85,1.23-0.71c0.53,0.14,0.85,0.69,0.71,1.23c-0.35,1.29-0.75,2.6-1.18,3.88
		C137.7,125.83,137.31,126.09,136.9,126.09z M139.61,114.44c-0.04,0-0.08,0-0.13-0.01c-0.55-0.07-0.94-0.57-0.87-1.12
		c0.16-1.29,0.29-2.61,0.36-3.91c0.03-0.55,0.52-0.98,1.06-0.94c0.55,0.03,0.97,0.51,0.94,1.06c-0.08,1.35-0.21,2.71-0.38,4.04
		C140.54,114.07,140.11,114.44,139.61,114.44z M139.91,102.47c-0.52,0-0.96-0.4-1-0.93c-0.09-1.29-0.23-2.61-0.41-3.91
		c-0.07-0.55,0.31-1.05,0.86-1.13c0.55-0.08,1.05,0.31,1.13,0.85c0.18,1.35,0.33,2.71,0.42,4.04c0.04,0.55-0.37,1.03-0.92,1.07
		C139.96,102.47,139.94,102.47,139.91,102.47z M137.95,90.65c-0.45,0-0.85-0.3-0.97-0.75c-0.32-1.25-0.68-2.52-1.08-3.8
		c-0.16-0.53,0.13-1.09,0.66-1.25c0.53-0.17,1.09,0.13,1.25,0.66c0.41,1.31,0.78,2.62,1.11,3.9c0.14,0.54-0.19,1.08-0.72,1.22
		C138.12,90.64,138.03,90.65,137.95,90.65z M134.16,79.28c-0.4,0-0.77-0.24-0.93-0.63c-0.5-1.24-1.01-2.46-1.53-3.66
		c-0.22-0.51,0.01-1.1,0.51-1.32c0.51-0.22,1.09,0.01,1.32,0.51c0.53,1.22,1.05,2.46,1.56,3.72c0.21,0.51-0.04,1.09-0.56,1.3
		C134.4,79.25,134.28,79.28,134.16,79.28z M129.16,68.38c-0.36,0-0.71-0.19-0.89-0.54c-0.62-1.17-1.25-2.35-1.9-3.48
		c-0.27-0.48-0.1-1.09,0.38-1.36c0.48-0.27,1.09-0.1,1.36,0.38c0.65,1.15,1.3,2.35,1.93,3.54c0.26,0.49,0.07,1.09-0.42,1.35
		C129.47,68.34,129.31,68.38,129.16,68.38z M123.06,58.06c-0.32,0-0.64-0.16-0.83-0.45c-0.73-1.1-1.49-2.19-2.25-3.26
		c-0.32-0.45-0.22-1.07,0.23-1.4s1.07-0.22,1.4,0.23c0.78,1.09,1.55,2.2,2.29,3.32c0.31,0.46,0.18,1.08-0.28,1.39
		C123.44,58,123.25,58.06,123.06,58.06z M115.89,48.44c-0.29,0-0.57-0.12-0.77-0.36c-0.84-1.01-1.71-2.02-2.59-3
		c-0.37-0.41-0.33-1.04,0.08-1.41c0.41-0.37,1.04-0.33,1.41,0.08c0.89,1,1.78,2.03,2.63,3.06c0.35,0.42,0.3,1.06-0.13,1.41
		C116.35,48.37,116.12,48.44,115.89,48.44z M107.75,39.64c-0.25,0-0.5-0.09-0.7-0.28c-0.95-0.92-1.92-1.84-2.89-2.71
		c-0.41-0.37-0.44-1-0.07-1.41c0.37-0.41,1-0.44,1.41-0.07c0.98,0.89,1.97,1.82,2.94,2.76c0.4,0.38,0.41,1.02,0.02,1.41
		C108.27,39.54,108.01,39.64,107.75,39.64z M98.72,31.74c-0.22,0-0.44-0.07-0.62-0.21c-1.03-0.81-2.1-1.62-3.16-2.4
		c-0.45-0.33-0.54-0.95-0.21-1.4c0.33-0.45,0.95-0.54,1.4-0.21c1.08,0.79,2.16,1.62,3.21,2.44c0.43,0.34,0.51,0.97,0.17,1.4
		C99.31,31.61,99.02,31.74,98.72,31.74z M88.93,24.8c-0.18,0-0.37-0.05-0.53-0.16c-1.11-0.71-2.25-1.4-3.39-2.07
		c-0.48-0.28-0.63-0.89-0.35-1.37c0.28-0.48,0.89-0.63,1.37-0.35c1.15,0.68,2.31,1.39,3.44,2.1c0.47,0.3,0.6,0.91,0.31,1.38
		C89.58,24.63,89.26,24.8,88.93,24.8z M78.48,18.89c-0.15,0-0.3-0.03-0.45-0.11c-1.19-0.59-2.4-1.17-3.58-1.71
		c-0.5-0.23-0.72-0.82-0.5-1.32c0.23-0.5,0.82-0.72,1.32-0.5c1.21,0.55,2.44,1.14,3.65,1.74c0.49,0.25,0.7,0.85,0.45,1.34
		C79.2,18.69,78.84,18.89,78.48,18.89z M67.44,14.14c-0.11,0-0.23-0.02-0.34-0.06c-2.35-0.84-3.73-1.21-3.74-1.22
		c-0.53-0.14-0.85-0.69-0.71-1.22c0.14-0.53,0.69-0.85,1.22-0.71c0.06,0.02,1.47,0.39,3.91,1.27c0.52,0.19,0.79,0.76,0.6,1.28
		C68.24,13.88,67.85,14.14,67.44,14.14z"/>
</g>
</svg>
