<?xml version="1.0" encoding="utf-8"?>
<!-- Generator: Adobe Illustrator 23.0.5, SVG Export Plug-In . SVG Version: 6.00 Build 0)  -->
<svg version="1.1" id="Capa_1" xmlns="http://www.w3.org/2000/svg" xmlns:xlink="http://www.w3.org/1999/xlink" x="0px" y="0px"
	 viewBox="0 0 200 200" style="enable-background:new 0 0 200 200;" xml:space="preserve">
<style type="text/css">
	.st0{fill:#B3C57E;}
</style>
<path class="st0" d="M148.28,80.4c0-10.22-3.2-19.69-8.62-27.49c-8.72-13.94-23.22-20.79-39.66-20.79s-30.94,6.84-39.66,20.79
	c-5.42,7.8-8.62,17.27-8.62,27.49c0,0.97,0.09,1.93,0.15,2.89c-0.06,1.31-0.15,2.58-0.15,3.94c0,37.17,48.28,79.52,48.28,79.52
	s48.28-42.34,48.28-79.52c0-1.36-0.09-2.64-0.15-3.94C148.19,82.33,148.28,81.38,148.28,80.4z M100,114.41c-18.78,0-34-15.22-34-34
	s15.22-34,34-34s34,15.22,34,34S118.78,114.41,100,114.41z"/>
</svg>
