<?xml version="1.0" encoding="utf-8"?>
<!-- Generator: Adobe Illustrator 23.0.5, SVG Export Plug-In . SVG Version: 6.00 Build 0)  -->
<svg version="1.1" id="Capa_1" xmlns="http://www.w3.org/2000/svg" xmlns:xlink="http://www.w3.org/1999/xlink" x="0px" y="0px"
	 viewBox="0 0 918 530" style="enable-background:new 0 0 918 530;" xml:space="preserve">
<style type="text/css">
	.st0{fill:none;}
	.st1{fill:#9B3472;}
	.st2{fill:#FFFFFF;}
	.st3{fill:#B3C67F;}
</style>
<g id="Grupo_439" transform="translate(-733.064 97.685)">
	<g id="Grupo_442" transform="translate(1095.239 74.712)">
		<g id="Elipse_118">
			<g id="Grupo_439-2" transform="translate(0 0)">
				<ellipse id="Elipse_176" class="st0" cx="106.49" cy="99.64" rx="96.91" ry="96.07"/>
			</g>
			<g id="Grupo_440">
				<path id="Trazado_580" class="st1" d="M106.49,195.71c-53.43,0-96.91-43.1-96.91-96.07S53.05,3.58,106.49,3.58
					s96.91,43.1,96.91,96.07S159.92,195.71,106.49,195.71z M106.49,6.37c-51.89,0-94.11,41.84-94.11,93.27s42.22,93.27,94.11,93.27
					s94.11-41.84,94.11-93.27S158.38,6.37,106.49,6.37L106.49,6.37z"/>
			</g>
		</g>
		<g id="Grupo_251" transform="translate(10.612 9.775)">
			<g id="Elipse_71">
				<circle id="Elipse_177" class="st1" cx="95.88" cy="89.87" r="86.29"/>
			</g>
			<g id="Mis_Gustos" transform="translate(28.979 73.414)">
				<g id="Grupo_441">
					<path id="Trazado_581" class="st2" d="M25.62,18.41h-3.13V9.99c0-0.91,0.04-1.91,0.12-3.01h-0.08
						c-0.11,0.63-0.25,1.25-0.44,1.86l-3.3,9.57H16.2l-3.36-9.47c-0.18-0.65-0.33-1.3-0.44-1.96h-0.09c0.08,1.39,0.13,2.6,0.13,3.65
						v7.79H9.58V4.33h4.64l2.88,8.35c0.23,0.65,0.39,1.33,0.5,2.01h0.06c0.15-0.69,0.34-1.37,0.56-2.03l2.88-8.33h4.53L25.62,18.41z
						"/>
					<path id="Trazado_582" class="st2" d="M30.09,6.76c-0.47,0.02-0.93-0.15-1.29-0.47c-0.32-0.29-0.51-0.71-0.5-1.14
						c-0.01-0.44,0.17-0.85,0.5-1.14c0.76-0.59,1.82-0.59,2.58,0c0.33,0.29,0.51,0.7,0.5,1.14c0.01,0.44-0.17,0.86-0.5,1.16
						C31.03,6.62,30.57,6.78,30.09,6.76z M31.62,18.41h-3.1V8.36h3.1V18.41z"/>
					<path id="Trazado_583" class="st2" d="M33.58,18.15v-2.51c0.48,0.29,0.99,0.52,1.53,0.69c0.47,0.14,0.95,0.22,1.44,0.23
						c0.44,0.02,0.89-0.06,1.3-0.23c0.29-0.11,0.48-0.38,0.48-0.69c0-0.19-0.08-0.37-0.22-0.49c-0.16-0.14-0.35-0.26-0.56-0.34
						c-0.24-0.1-0.49-0.19-0.74-0.27c-0.27-0.08-0.53-0.17-0.78-0.27c-0.36-0.13-0.72-0.3-1.06-0.49c-0.29-0.16-0.54-0.36-0.77-0.6
						c-0.21-0.23-0.37-0.5-0.47-0.8c-0.11-0.34-0.17-0.71-0.16-1.07c-0.01-0.51,0.11-1.01,0.37-1.45c0.24-0.41,0.58-0.75,0.98-1
						c0.43-0.27,0.9-0.46,1.4-0.57c0.54-0.12,1.09-0.18,1.65-0.18c0.45,0,0.91,0.03,1.35,0.1c0.46,0.07,0.91,0.17,1.35,0.3v2.4
						c-0.39-0.23-0.82-0.4-1.26-0.52c-0.43-0.11-0.88-0.17-1.32-0.17c-0.19,0-0.38,0.02-0.57,0.05c-0.16,0.03-0.32,0.08-0.48,0.16
						c-0.13,0.06-0.24,0.15-0.32,0.27c-0.08,0.11-0.12,0.24-0.12,0.37c0,0.17,0.06,0.34,0.18,0.47c0.13,0.14,0.29,0.26,0.46,0.34
						c0.2,0.1,0.42,0.19,0.63,0.26c0.23,0.08,0.46,0.15,0.69,0.23c0.38,0.13,0.76,0.29,1.12,0.47c0.31,0.16,0.6,0.36,0.86,0.6
						c0.24,0.23,0.42,0.5,0.55,0.8c0.31,0.86,0.24,1.82-0.2,2.63c-0.26,0.42-0.61,0.77-1.03,1.03c-0.46,0.28-0.96,0.47-1.48,0.58
						c-0.57,0.12-1.16,0.18-1.74,0.18C35.6,18.66,34.56,18.49,33.58,18.15z"/>
					<path id="Trazado_584" class="st2" d="M60.49,17.47c-1.57,0.84-3.34,1.25-5.12,1.19c-1.96,0.11-3.89-0.57-5.36-1.88
						c-1.35-1.37-2.07-3.25-1.96-5.18c-0.08-2.02,0.7-3.99,2.14-5.41c1.54-1.44,3.59-2.19,5.69-2.09c1.34-0.02,2.68,0.19,3.95,0.62
						v2.98c-1.22-0.66-2.6-0.99-3.99-0.94c-1.2-0.04-2.37,0.42-3.22,1.28c-1.61,1.96-1.66,4.76-0.13,6.78
						c0.79,0.81,1.88,1.24,3.01,1.19c0.62,0.03,1.24-0.08,1.81-0.32v-2.75H54.5v-2.53h5.99L60.49,17.47z"/>
					<path id="Trazado_585" class="st2" d="M72.48,18.41h-3.09v-1.53h-0.05c-0.63,1.1-1.8,1.78-3.07,1.78
						c-2.33,0-3.5-1.41-3.49-4.23V8.36h3.09v5.79c0,1.42,0.56,2.13,1.69,2.13c0.51,0.02,1-0.2,1.34-0.58
						c0.35-0.45,0.53-1.01,0.5-1.59V8.36h3.09L72.48,18.41z"/>
					<path id="Trazado_586" class="st2" d="M74.43,18.15v-2.51c0.48,0.29,0.99,0.52,1.53,0.69c0.47,0.14,0.95,0.22,1.44,0.23
						c0.44,0.02,0.89-0.06,1.3-0.23c0.29-0.11,0.48-0.38,0.48-0.69c0-0.19-0.08-0.37-0.22-0.49C78.79,15,78.6,14.88,78.4,14.8
						c-0.24-0.1-0.49-0.19-0.74-0.27c-0.27-0.08-0.53-0.17-0.78-0.27c-0.36-0.13-0.72-0.3-1.06-0.49c-0.29-0.16-0.54-0.36-0.77-0.6
						c-0.21-0.23-0.37-0.5-0.47-0.8c-0.11-0.34-0.17-0.71-0.16-1.07c-0.01-0.51,0.11-1.01,0.37-1.45c0.24-0.41,0.58-0.75,0.98-1
						c0.43-0.27,0.9-0.46,1.4-0.57c0.54-0.12,1.09-0.18,1.64-0.18c0.45,0,0.91,0.03,1.35,0.1c0.46,0.07,0.91,0.17,1.35,0.3v2.4
						c-0.39-0.23-0.82-0.4-1.26-0.52c-0.43-0.11-0.88-0.17-1.32-0.17c-0.19,0-0.38,0.02-0.57,0.05c-0.16,0.03-0.33,0.08-0.48,0.16
						c-0.13,0.06-0.24,0.15-0.32,0.27c-0.08,0.11-0.12,0.24-0.12,0.37c0,0.17,0.06,0.34,0.18,0.47c0.13,0.14,0.29,0.26,0.46,0.34
						c0.2,0.1,0.42,0.19,0.63,0.26c0.23,0.08,0.46,0.15,0.69,0.23c0.38,0.13,0.76,0.29,1.12,0.47c0.31,0.16,0.6,0.36,0.86,0.6
						c0.24,0.23,0.42,0.5,0.55,0.8c0.31,0.86,0.24,1.82-0.2,2.63c-0.26,0.42-0.61,0.77-1.03,1.03c-0.46,0.28-0.96,0.47-1.48,0.58
						c-0.57,0.12-1.16,0.18-1.74,0.18C76.45,18.66,75.41,18.49,74.43,18.15z"/>
					<path id="Trazado_587" class="st2" d="M90.01,18.3c-0.65,0.28-1.36,0.4-2.07,0.36c-2.19,0-3.28-1.14-3.28-3.41v-4.6h-1.63v-2.3
						h1.63V6.19l3.09-0.88v3.05h2.26v2.29h-2.26v4.06c0,1.05,0.42,1.57,1.25,1.57c0.36-0.01,0.7-0.11,1.01-0.29L90.01,18.3z"/>
					<path id="Trazado_588" class="st2" d="M96.47,18.66c-1.45,0.08-2.88-0.43-3.95-1.41c-1.94-2.22-1.92-5.54,0.05-7.73
						c1.11-0.98,2.56-1.49,4.04-1.41c1.45-0.08,2.86,0.43,3.93,1.41c0.97,0.99,1.48,2.34,1.42,3.73c0.08,1.47-0.45,2.9-1.47,3.96
						C99.4,18.21,97.95,18.74,96.47,18.66z M96.55,10.49c-0.66-0.03-1.29,0.25-1.71,0.76c-0.44,0.62-0.66,1.38-0.61,2.14
						c0,1.93,0.78,2.9,2.34,2.9c1.49,0,2.23-0.99,2.23-2.98C98.8,11.43,98.05,10.49,96.55,10.49z"/>
					<path id="Trazado_589" class="st2" d="M103.31,18.15v-2.51c0.48,0.29,0.99,0.52,1.53,0.69c0.47,0.14,0.95,0.22,1.44,0.23
						c0.44,0.02,0.89-0.06,1.3-0.23c0.29-0.11,0.48-0.38,0.48-0.69c0-0.19-0.08-0.37-0.22-0.49c-0.17-0.14-0.35-0.26-0.56-0.34
						c-0.24-0.1-0.49-0.19-0.74-0.27c-0.27-0.08-0.53-0.17-0.78-0.27c-0.36-0.13-0.72-0.3-1.06-0.49c-0.29-0.16-0.54-0.36-0.77-0.6
						c-0.21-0.23-0.37-0.51-0.47-0.8c-0.11-0.34-0.17-0.71-0.16-1.07c-0.01-0.51,0.11-1.01,0.37-1.45c0.24-0.41,0.58-0.75,0.98-1
						c0.43-0.27,0.9-0.46,1.4-0.57c0.54-0.12,1.09-0.18,1.64-0.18c0.45,0,0.91,0.03,1.35,0.1c0.46,0.07,0.91,0.17,1.35,0.3v2.4
						c-0.39-0.23-0.82-0.4-1.26-0.52c-0.43-0.11-0.87-0.17-1.32-0.17c-0.19,0-0.39,0.02-0.57,0.05c-0.16,0.03-0.32,0.08-0.48,0.16
						c-0.13,0.06-0.24,0.15-0.32,0.27c-0.08,0.11-0.12,0.24-0.12,0.37c0,0.17,0.06,0.34,0.18,0.47c0.13,0.14,0.29,0.26,0.46,0.34
						c0.2,0.1,0.42,0.19,0.63,0.26c0.23,0.08,0.46,0.15,0.69,0.23c0.38,0.13,0.76,0.29,1.12,0.47c0.31,0.16,0.6,0.36,0.86,0.6
						c0.24,0.23,0.42,0.5,0.55,0.8c0.31,0.86,0.24,1.82-0.2,2.63c-0.26,0.42-0.61,0.77-1.03,1.03c-0.46,0.28-0.96,0.47-1.48,0.58
						c-0.57,0.12-1.16,0.18-1.74,0.18C105.33,18.66,104.3,18.49,103.31,18.15z"/>
				</g>
			</g>
			<g id="jalo_new" transform="translate(53 103.804)">
				<g id="Trazado_43">
					<path id="Trazado_590" class="st2" d="M9.81,5.04c-0.56-0.57,0-1.7,0.84-1.42c0.56,0.57,38.79,25.82,59.44,12.77
						c1.12-0.57,2.23,1.7,1.12,3.97c-0.56,1.14-2.79,5.11-11.16,5.11c-5.58,0-21.77-0.57-42.98-15.32
						C13.71,7.88,10.37,5.61,9.81,5.04z"/>
				</g>
			</g>
		</g>
	</g>
	<g id="Grupo_444" transform="translate(733.064 -97.41)">
		<g id="Grupo_247" transform="translate(0 70.431)">
			<g id="Gastronomía" transform="translate(0 0)">
				<g id="Grupo_443">
					<path id="Trazado_591" class="st3" d="M20.99,16.29c-1.44,0.77-3.06,1.15-4.7,1.09c-1.8,0.1-3.57-0.52-4.91-1.72
						c-1.24-1.26-1.9-2.98-1.8-4.75c-0.07-1.85,0.64-3.65,1.96-4.96c1.41-1.32,3.29-2.01,5.22-1.92c1.23-0.02,2.45,0.17,3.62,0.57
						v2.73c-1.12-0.61-2.38-0.9-3.65-0.86c-1.1-0.04-2.17,0.39-2.95,1.17c-0.78,0.85-1.19,1.98-1.14,3.14
						c-0.07,1.12,0.29,2.22,1.02,3.08c0.72,0.74,1.73,1.14,2.76,1.09c0.57,0.02,1.13-0.08,1.66-0.3v-2.52h-2.58V9.81h5.49
						L20.99,16.29z"/>
					<path id="Trazado_592" class="st3" d="M30.88,17.16h-2.69v-1.32h-0.04c-0.55,0.99-1.61,1.59-2.74,1.55
						c-0.78,0.04-1.54-0.23-2.11-0.76c-0.53-0.54-0.81-1.28-0.77-2.03c0-1.79,1.06-2.82,3.18-3.1l2.5-0.33
						c0-1.01-0.55-1.51-1.64-1.51c-1.12,0.01-2.21,0.35-3.13,0.98V8.49c0.52-0.24,1.06-0.43,1.62-0.54
						c0.61-0.15,1.24-0.22,1.88-0.23c2.63,0,3.94,1.31,3.94,3.93L30.88,17.16z M28.21,13.41V12.8l-1.67,0.22
						c-0.92,0.12-1.39,0.54-1.39,1.25c-0.01,0.3,0.11,0.6,0.34,0.8c0.25,0.22,0.58,0.33,0.91,0.31c0.5,0.02,0.97-0.19,1.3-0.55
						C28.05,14.43,28.23,13.93,28.21,13.41L28.21,13.41z"/>
					<path id="Trazado_593" class="st3" d="M32.53,16.91v-2.3c0.44,0.27,0.91,0.48,1.4,0.63c0.43,0.13,0.87,0.2,1.32,0.21
						c0.41,0.02,0.81-0.05,1.19-0.21c0.26-0.1,0.44-0.35,0.44-0.63c0-0.17-0.07-0.34-0.2-0.45c-0.15-0.13-0.32-0.24-0.51-0.31
						c-0.22-0.1-0.45-0.18-0.68-0.24c-0.25-0.07-0.48-0.15-0.71-0.24c-0.33-0.12-0.66-0.27-0.97-0.45c-0.26-0.15-0.5-0.33-0.7-0.55
						c-0.19-0.21-0.34-0.46-0.43-0.73c-0.11-0.32-0.16-0.65-0.15-0.98c-0.01-0.47,0.1-0.93,0.34-1.33c0.22-0.37,0.53-0.68,0.9-0.91
						c0.4-0.25,0.83-0.42,1.29-0.52c0.49-0.11,1-0.17,1.51-0.17c0.42,0,0.83,0.03,1.24,0.09c0.42,0.06,0.83,0.15,1.24,0.27v2.2
						c-0.36-0.21-0.75-0.37-1.16-0.47c-0.4-0.1-0.8-0.16-1.21-0.16c-0.18,0-0.35,0.02-0.53,0.05c-0.15,0.03-0.3,0.08-0.44,0.14
						c-0.12,0.06-0.22,0.14-0.3,0.24c-0.07,0.1-0.11,0.22-0.11,0.34c0,0.16,0.05,0.31,0.16,0.43c0.12,0.13,0.26,0.24,0.42,0.31
						c0.19,0.09,0.38,0.17,0.58,0.23c0.21,0.07,0.42,0.14,0.63,0.21c0.35,0.12,0.69,0.26,1.03,0.43c0.29,0.14,0.55,0.33,0.79,0.55
						c0.22,0.21,0.39,0.46,0.5,0.74c0.29,0.79,0.22,1.67-0.18,2.41c-0.24,0.39-0.56,0.71-0.95,0.94c-0.42,0.25-0.88,0.43-1.36,0.53
						c-0.53,0.11-1.06,0.17-1.6,0.17C34.38,17.39,33.43,17.23,32.53,16.91z"/>
					<path id="Trazado_594" class="st3" d="M46.82,17.05c-0.6,0.26-1.25,0.37-1.9,0.33c-2,0-3.01-1.04-3.01-3.12v-4.22h-1.49v-2.1
						h1.49V5.95l2.84-0.81v2.8h2.07v2.1h-2.07v3.73c0,0.96,0.38,1.44,1.14,1.44c0.33-0.01,0.65-0.1,0.93-0.26L46.82,17.05z"/>
					<path id="Trazado_595" class="st3" d="M54.42,10.5c-0.37-0.19-0.78-0.29-1.2-0.28c-0.57-0.02-1.11,0.23-1.45,0.68
						c-0.37,0.54-0.56,1.19-0.52,1.85v4.4h-2.84V7.94h2.84v1.7h0.04c0.27-1.11,1.28-1.89,2.43-1.87c0.24-0.01,0.48,0.03,0.7,0.11
						L54.42,10.5z"/>
					<path id="Trazado_596" class="st3" d="M60.07,17.38c-1.33,0.07-2.64-0.39-3.62-1.29c-0.91-0.93-1.39-2.2-1.32-3.51
						c-0.07-1.33,0.42-2.63,1.37-3.58c1.02-0.9,2.35-1.36,3.7-1.29c1.33-0.08,2.62,0.39,3.6,1.29c0.89,0.91,1.36,2.15,1.3,3.42
						c0.07,1.34-0.42,2.66-1.35,3.63C62.76,16.97,61.43,17.45,60.07,17.38z M60.14,9.89c-0.6-0.03-1.18,0.23-1.57,0.69
						c-0.41,0.57-0.6,1.26-0.56,1.96c0,1.77,0.71,2.65,2.14,2.65c1.36,0,2.04-0.91,2.04-2.73C62.2,10.76,61.52,9.9,60.14,9.89
						L60.14,9.89z"/>
					<path id="Trazado_597" class="st3" d="M75.85,17.16h-2.84v-5.12c0-1.43-0.51-2.14-1.53-2.14c-0.47-0.01-0.92,0.2-1.22,0.57
						c-0.33,0.41-0.5,0.92-0.48,1.44v5.26h-2.84V7.94h2.84V9.4h0.04c0.59-1.07,1.74-1.72,2.96-1.68c2.04,0,3.06,1.27,3.06,3.8
						L75.85,17.16z"/>
					<path id="Trazado_598" class="st3" d="M82.49,17.38c-1.33,0.07-2.64-0.39-3.62-1.29c-0.91-0.93-1.39-2.2-1.32-3.51
						c-0.07-1.33,0.42-2.63,1.37-3.58c1.02-0.9,2.35-1.36,3.7-1.29c1.33-0.08,2.62,0.39,3.6,1.29c0.89,0.91,1.36,2.15,1.3,3.42
						c0.07,1.34-0.42,2.66-1.35,3.63C85.18,16.97,83.85,17.45,82.49,17.38z M82.56,9.89c-0.6-0.03-1.18,0.23-1.57,0.69
						c-0.41,0.57-0.6,1.26-0.56,1.96c0,1.77,0.71,2.65,2.14,2.65c1.36,0,2.04-0.91,2.04-2.73C84.62,10.76,83.94,9.9,82.56,9.89
						L82.56,9.89z"/>
					<path id="Trazado_599" class="st3" d="M104,17.16h-2.83V11.9c0-1.34-0.49-2.01-1.48-2.01c-0.46-0.01-0.89,0.22-1.14,0.6
						c-0.31,0.44-0.46,0.97-0.44,1.5v5.16h-2.85v-5.31c0-1.3-0.48-1.95-1.45-1.95c-0.46-0.01-0.9,0.2-1.16,0.58
						c-0.31,0.46-0.47,1.01-0.44,1.57v5.12h-2.84V7.94h2.84v1.44h0.04c0.64-1.04,1.76-1.67,2.98-1.67c1.17-0.08,2.26,0.62,2.67,1.72
						c0.63-1.11,1.83-1.77,3.1-1.72c2,0,3.01,1.24,3.01,3.71V17.16z"/>
					<path id="Trazado_600" class="st3" d="M110.56,3.58l-2.82,2.91h-2.05l2.34-2.91H110.56z M109.09,17.16h-2.84V7.94h2.84
						L109.09,17.16z"/>
					<path id="Trazado_601" class="st3" d="M119.16,17.16h-2.69v-1.32h-0.04c-0.55,0.99-1.61,1.59-2.74,1.55
						c-0.78,0.04-1.54-0.23-2.11-0.76c-0.53-0.54-0.81-1.28-0.77-2.03c0-1.79,1.06-2.82,3.18-3.1l2.5-0.33
						c0-1.01-0.55-1.51-1.64-1.51c-1.12,0.01-2.21,0.35-3.13,0.98V8.49c0.52-0.24,1.06-0.43,1.62-0.54
						c0.62-0.15,1.24-0.22,1.88-0.23c2.63,0,3.94,1.31,3.94,3.93L119.16,17.16z M116.48,13.41V12.8l-1.67,0.22
						c-0.92,0.12-1.39,0.54-1.39,1.25c-0.01,0.3,0.11,0.6,0.34,0.8c0.25,0.22,0.58,0.33,0.91,0.31c0.49,0.01,0.97-0.19,1.3-0.55
						C116.32,14.43,116.5,13.93,116.48,13.41L116.48,13.41z"/>
				</g>
			</g>
		</g>
		<g id="Grupo_248" transform="translate(28.559)">
			<g id="Trazado_124" transform="translate(13.812)">
				<path id="Trazado_602" class="st3" d="M10.98,40.52h-0.04c-0.77-0.02-1.38-0.67-1.35-1.44l1.01-34.15
					c0.03-0.77,0.67-1.37,1.44-1.35c0.77,0.02,1.38,0.67,1.35,1.44l-1.01,34.15C12.35,39.92,11.73,40.52,10.98,40.52z"/>
			</g>
			<g id="Trazado_125" transform="translate(32.267 3.019)">
				<path id="Trazado_603" class="st3" d="M12.71,22.34c-0.23,0-0.46-0.06-0.66-0.17c-1.36-0.74-3.5-3.15-1.89-6.94
					c1.51-3.55,2.65-6.62,2.66-6.65c0.12-0.34,0.38-1.48-1.25-2.39c-0.67-0.38-0.91-1.23-0.54-1.9c0.38-0.67,1.23-0.91,1.9-0.54
					c2.22,1,3.3,3.54,2.49,5.84l0,0c0,0-1.16,3.13-2.69,6.73c-0.97,2.28,0.4,3.24,0.68,3.4c0.66,0.39,0.89,1.23,0.51,1.9
					C13.67,22.06,13.21,22.33,12.71,22.34z"/>
			</g>
			<g id="Elipse_73" transform="translate(0.449 8.889)">
				<path id="Trazado_604" class="st3" d="M21.59,11.39c-2.82,0-12.01-0.28-12.01-3.91s9.19-3.91,12.01-3.91S33.6,3.86,33.6,7.48
					S24.41,11.39,21.59,11.39z M13,7.48c2.78,0.84,5.68,1.22,8.59,1.12c2.9,0.1,5.81-0.28,8.59-1.12c-2.78-0.84-5.68-1.22-8.59-1.12
					C18.69,6.27,15.79,6.65,13,7.48L13,7.48z"/>
			</g>
			<g id="Trazado_126" transform="translate(0 11.539)">
				<path id="Trazado_605" class="st3" d="M20.55,45.32c-6.03,0-8.37-1.92-8.64-2.16c-0.28-0.25-0.44-0.6-0.46-0.97L9.59,5.04
					c-0.04-0.77,0.56-1.42,1.33-1.46c0.77-0.03,1.42,0.56,1.46,1.32l1.83,36.43c0.91,0.48,3.33,1.42,8,1.14
					c0.77-0.04,1.43,0.54,1.48,1.31c0.04,0.77-0.54,1.43-1.31,1.48C21.73,45.3,21.12,45.32,20.55,45.32z"/>
			</g>
			<g id="Trazado_127" transform="translate(40.503 24.558)">
				<path id="Trazado_606" class="st3" d="M10.98,16.22c-0.33,0-0.64-0.11-0.89-0.32c-0.59-0.49-0.67-1.37-0.18-1.97l8.2-9.86
					c0.49-0.59,1.37-0.67,1.96-0.18c0.59,0.49,0.67,1.37,0.18,1.97l-8.2,9.86C11.79,16.04,11.39,16.22,10.98,16.22z"/>
			</g>
			<g id="Trazado_128" transform="translate(12.765 38.907)">
				<path id="Trazado_607" class="st3" d="M31.7,22.08c-9.93,0-20.56-5.21-22.1-16.92c-0.06-0.44,0.1-0.89,0.42-1.19
					c0.32-0.31,0.77-0.44,1.21-0.36c0.24,0.04,24.34,4.34,41.81,0.02c0.44-0.11,0.91,0.01,1.26,0.31c0.34,0.3,0.52,0.76,0.46,1.21
					C53.4,16.68,41.95,22.01,31.89,22.08L31.7,22.08z M12.71,6.68c2.27,9.34,11.54,12.67,19.16,12.61c8.25-0.06,17.55-4,19.74-12.48
					C36.7,9.89,18.67,7.59,12.71,6.68L12.71,6.68z"/>
			</g>
			<g id="Trazado_129" transform="translate(40.09 17.084)">
				<path id="Trazado_608" class="st3" d="M13.44,23.03c-0.97,0-1.62-0.06-1.71-0.07c-0.56-0.05-1.03-0.44-1.2-0.97
					c-0.12-0.37-2.78-9,1.35-14.1S25,3.6,25.38,3.64c0.56,0.05,1.03,0.44,1.2,0.97c0.12,0.36,2.78,9.01-1.35,14.1
					C22.15,22.52,16.34,23.03,13.44,23.03z M12.95,20.23c2.2,0.05,7.6-0.17,10.11-3.28s1.6-8.44,1.1-10.58
					c-2.19-0.04-7.6,0.17-10.11,3.28l0,0C11.54,12.75,12.45,18.09,12.95,20.23L12.95,20.23z M12.96,8.78L12.96,8.78z"/>
			</g>
			<g id="Trazado_130" transform="translate(5.76 19.529)">
				<path id="Trazado_609" class="st3" d="M12.1,7.56c-0.38,0-0.75-0.16-1.02-0.44L9.96,5.93c-0.53-0.56-0.5-1.44,0.06-1.97
					c0.56-0.53,1.44-0.5,1.97,0.06l1.12,1.19c0.53,0.56,0.5,1.44-0.06,1.97C12.8,7.42,12.46,7.56,12.1,7.56z"/>
			</g>
			<g id="Trazado_131" transform="translate(7.779 25.462)">
				<path id="Trazado_610" class="st3" d="M10.98,7.49c-0.38,0-0.75-0.16-1.02-0.44c-0.53-0.56-0.5-1.44,0.06-1.97l1.19-1.12
					c0.56-0.53,1.44-0.5,1.97,0.06c0.53,0.56,0.5,1.44-0.06,1.97l-1.19,1.12C11.68,7.35,11.34,7.49,10.98,7.49z"/>
			</g>
			<g id="Trazado_132" transform="translate(6.273 31.071)">
				<path id="Trazado_611" class="st3" d="M12.1,7.56c-0.38,0-0.75-0.16-1.02-0.44L9.96,5.93c-0.53-0.56-0.5-1.44,0.06-1.97
					c0.56-0.53,1.44-0.5,1.97,0.06l1.12,1.19c0.53,0.56,0.5,1.44-0.06,1.97C12.8,7.42,12.46,7.56,12.1,7.56z"/>
			</g>
			<g id="Trazado_133" transform="translate(0.739 53.607)">
				<path id="Trazado_612" class="st3" d="M19.88,8.18c-6.28,0-9.45-1.91-9.63-2.02C9.62,5.71,9.47,4.83,9.92,4.21
					c0.41-0.57,1.17-0.75,1.78-0.43c0.09,0.06,5.23,3,15.54,0.76c0.77-0.11,1.48,0.42,1.59,1.19c0.1,0.69-0.32,1.35-0.99,1.54
					C25.23,7.85,22.56,8.16,19.88,8.18z"/>
			</g>
			<g id="Trazado_134" transform="translate(26.262 55.16)">
				<path id="Trazado_613" class="st3" d="M26.26,6.37H10.98c-0.77-0.05-1.35-0.72-1.3-1.5c0.05-0.7,0.6-1.25,1.3-1.3h15.28
					c0.77-0.05,1.44,0.53,1.5,1.3s-0.53,1.44-1.3,1.5C26.39,6.37,26.32,6.37,26.26,6.37L26.26,6.37z"/>
			</g>
			<g id="Trazado_135" transform="translate(20.379 11.436)">
				<path id="Trazado_614" class="st3" d="M10.98,22.57h-0.07c-0.77-0.04-1.36-0.7-1.32-1.47l0.84-16.2
					c0.04-0.77,0.7-1.36,1.47-1.32c0.77,0.04,1.36,0.7,1.32,1.47l-0.84,16.2C12.33,21.98,11.72,22.56,10.98,22.57z"/>
			</g>
			<g id="Trazado_136" transform="translate(16.415 24.107)">
				<path id="Trazado_615" class="st3" d="M10.98,21.61c-0.38,0-0.74-0.15-1-0.42c-0.53-0.55-0.52-1.44,0.03-1.97L24.5,5.18
					c1.92-1.76,4.73-2.14,7.05-0.96c0.71,0.3,1.04,1.12,0.74,1.83c-0.3,0.71-1.12,1.04-1.83,0.74c-2.47-1.05-3.82,0.2-3.97,0.35
					L11.95,21.21C11.69,21.47,11.34,21.61,10.98,21.61z"/>
			</g>
			<g id="Trazado_137" transform="translate(45.704 33.822)">
				<path id="Trazado_616" class="st3" d="M17,12.2c-0.36,0-0.71-0.14-0.97-0.39l-6.02-5.84C9.45,5.44,9.44,4.55,9.98,4
					c0.54-0.55,1.42-0.56,1.97-0.03l6.02,5.84c0.55,0.54,0.57,1.42,0.03,1.97C17.74,12.05,17.37,12.2,17,12.2z"/>
			</g>
		</g>
	</g>
	<g id="Grupo_454" transform="translate(916.327 74.293)">
		<g id="Grupo_250" transform="translate(9.091 79.265)">
			<g id="Ocio">
				<g id="Grupo_445">
					<path id="Trazado_617" class="st3" d="M16.04,17.82c-1.74,0.06-3.44-0.61-4.66-1.86c-1.23-1.31-1.88-3.05-1.8-4.85
						c-0.08-1.87,0.57-3.71,1.83-5.1c1.26-1.32,3.02-2.02,4.84-1.95c1.73-0.07,3.4,0.61,4.6,1.86c1.21,1.34,1.84,3.11,1.76,4.92
						c0.08,1.86-0.57,3.68-1.82,5.05C19.55,17.19,17.82,17.89,16.04,17.82z M16.17,6.65c-0.98-0.03-1.91,0.41-2.5,1.18
						c-0.66,0.91-0.98,2.01-0.93,3.13c-0.06,1.12,0.27,2.22,0.93,3.12c0.58,0.75,1.48,1.18,2.43,1.15c0.95,0.04,1.86-0.38,2.46-1.12
						c0.65-0.9,0.97-1.99,0.91-3.1c0.07-1.14-0.24-2.27-0.88-3.22C18.01,7.04,17.11,6.61,16.17,6.65L16.17,6.65z"/>
					<path id="Trazado_618" class="st3" d="M31.73,17.24c-0.89,0.43-1.88,0.63-2.86,0.58c-1.31,0.06-2.59-0.42-3.54-1.33
						c-0.91-0.9-1.4-2.14-1.35-3.42c-0.08-1.42,0.45-2.8,1.45-3.82c1.05-0.97,2.45-1.47,3.88-1.4c0.83-0.06,1.67,0.1,2.43,0.45v2.48
						c-0.59-0.45-1.31-0.69-2.05-0.69c-0.74-0.04-1.46,0.23-2,0.74c-0.51,0.55-0.78,1.29-0.74,2.04c-0.04,0.73,0.21,1.44,0.7,1.98
						c0.52,0.5,1.22,0.76,1.94,0.72c0.77-0.01,1.51-0.25,2.14-0.69L31.73,17.24z"/>
					<path id="Trazado_619" class="st3" d="M35.13,6.59c-0.45,0.02-0.88-0.14-1.21-0.44c-0.31-0.27-0.48-0.67-0.47-1.08
						c-0.01-0.41,0.16-0.81,0.47-1.08c0.72-0.56,1.72-0.56,2.43,0c0.31,0.27,0.48,0.67,0.47,1.08c0.01,0.42-0.16,0.82-0.47,1.09
						C36.01,6.46,35.57,6.61,35.13,6.59z M36.57,17.59h-2.93v-9.5h2.93V17.59z"/>
					<path id="Trazado_620" class="st3" d="M43.57,17.82c-1.37,0.08-2.72-0.4-3.73-1.33c-1.83-2.1-1.81-5.23,0.05-7.3
						c1.05-0.93,2.42-1.4,3.81-1.33c1.37-0.08,2.7,0.4,3.71,1.33c0.92,0.94,1.4,2.21,1.34,3.52c0.07,1.38-0.43,2.74-1.39,3.74
						C46.34,17.4,44.97,17.89,43.57,17.82z M43.64,10.1c-0.62-0.03-1.22,0.23-1.61,0.71c-0.42,0.59-0.62,1.3-0.57,2.02
						c0,1.82,0.74,2.74,2.21,2.74c1.4,0,2.1-0.94,2.1-2.81C45.76,10.99,45.06,10.1,43.64,10.1L43.64,10.1z"/>
				</g>
			</g>
		</g>
		<g id="Grupo_249">
			<g id="Sustracción_1" transform="translate(10.247 2.765)">
				<g id="Grupo_446" transform="translate(0)">
					<path id="Trazado_621" class="st0" d="M58.68,42.03h-13.4c2.38-3.8,2.47-8.6,0.22-12.49h0.22c1.94,0,3.92,0.04,3.94,0.04
						l-0.81-2.8c1.3-0.39,2.54-0.98,3.66-1.74c2.71-1.79,4.85-4.31,6.17-7.28c0.13,0.31,0.33,0.75,0.58,1.3
						c1.49,3.12,2.74,6.34,3.75,9.64c1.33,4.65,1.4,8.14,0.19,10.39C62.27,40.76,60.58,41.85,58.68,42.03z M14.65,32.35L14.65,32.35
						c-0.87-2-2.08-4.9-2.92-7.3c-1.35-4.27-2.07-8.72-2.14-13.2c-0.08-2.22,0.52-4.4,1.73-6.26c0.9-1.25,2.34-2,3.89-2.01
						c0.1,0,0.21,0,0.31,0.01l13.57,0.92c-0.65,1.05-1.14,2.19-1.45,3.38c-0.78,2.99-0.75,6.14,0.09,9.12
						c-0.95-0.12-4.62-0.5-4.77-0.51c0.4,2.65,1.05,5.27,1.94,7.8c-0.71,0.41-1.39,0.88-2.03,1.4L14.65,32.35L14.65,32.35z"/>
				</g>
				<g id="Grupo_447" transform="translate(0 0.001)">
					<path id="Trazado_622" class="st3" d="M49.46,39.24h8.98c0.96-0.08,1.82-0.62,2.3-1.46c0.48-0.89,1.06-3.16-0.41-8.3
						c-0.58-1.98-1.28-3.92-2.09-5.81c-1.21,1.44-2.63,2.69-4.2,3.72c-0.58,0.38-1.18,0.73-1.8,1.04l0.11,0.38l1.06,3.65l-3.8-0.08
						h-0.05C50.07,34.64,50.03,36.99,49.46,39.24 M15.79,27.84l5.33-4.32c0.15-0.12,0.31-0.24,0.46-0.36
						c-0.59-2.06-1.05-4.16-1.38-6.27l-0.49-3.52l3.54,0.36l1.11,0.11c-0.19-2.25,0.01-4.51,0.6-6.69c0.01-0.04,0.02-0.08,0.04-0.12
						l-9.65-0.66l-0.1-0.01h-0.02h-0.01c-0.23,0-0.47,0.05-0.68,0.14c-0.39,0.16-0.73,0.42-0.97,0.77c-0.49,0.65-1.1,1.99-1.17,4.66
						c0.08,4.17,0.76,8.31,2.02,12.29C14.81,25.36,15.3,26.63,15.79,27.84 M58.68,42.03H45.27c2.38-3.8,2.46-8.6,0.22-12.49h0.22
						c1.94,0,3.92,0.04,3.94,0.04l-0.81-2.8c1.3-0.39,2.54-0.98,3.67-1.74c2.71-1.79,4.85-4.31,6.17-7.28
						c0.13,0.31,0.33,0.75,0.58,1.3c1.49,3.12,2.74,6.34,3.75,9.64c1.33,4.65,1.39,8.14,0.19,10.39
						C62.26,40.76,60.57,41.85,58.68,42.03L58.68,42.03z M14.66,32.35L14.66,32.35c-0.87-2-2.08-4.89-2.92-7.3
						c-1.35-4.27-2.07-8.72-2.14-13.2c-0.08-2.22,0.52-4.4,1.73-6.26c0.9-1.25,2.34-2,3.89-2.01c0.11,0,0.21,0,0.31,0.01L29.1,4.51
						c-0.66,1.05-1.15,2.19-1.45,3.38c-0.79,2.99-0.75,6.14,0.09,9.12c-0.95-0.12-4.62-0.5-4.77-0.51c0.4,2.65,1.05,5.27,1.94,7.8
						c-0.71,0.41-1.39,0.88-2.03,1.39L14.66,32.35L14.66,32.35z"/>
				</g>
			</g>
			<g id="Elipse_75" transform="translate(37.603 7.261)">
				<g id="Grupo_448">
					<ellipse id="Elipse_178" class="st3" cx="15.45" cy="9.16" rx="5.86" ry="5.59"/>
				</g>
				<g id="Grupo_449" transform="translate(0 0)">
					<path id="Trazado_623" class="st3" d="M15.45,14.75c-3.08-0.15-5.46-2.77-5.31-5.86c0.15-3.08,2.77-5.46,5.86-5.31
						c2.98,0.15,5.32,2.6,5.32,5.59C21.23,12.32,18.61,14.82,15.45,14.75z M15.45,6.37c-1.54,0.15-2.67,1.52-2.53,3.06
						c0.15,1.54,1.52,2.67,3.06,2.53c1.44-0.14,2.54-1.35,2.54-2.79C18.44,7.54,17.07,6.3,15.45,6.37L15.45,6.37z"/>
				</g>
			</g>
			<g id="Rectángulo_121" transform="translate(0 23.906)">
				<g id="Grupo_450" transform="translate(0 0.01)">
					<path id="Trazado_624" class="st0" d="M52.8,8.34L52.8,8.34c3.57,4.41,2.89,10.89-1.52,14.46L27.95,41.68
						c-4.41,3.57-10.88,2.89-14.46-1.52c0,0,0,0,0,0l-1.62-2C8.3,33.75,8.98,27.28,13.39,23.7l0,0L34.72,6.44
						C40.24,1.97,48.33,2.82,52.8,8.34L52.8,8.34z"/>
				</g>
				<g id="Grupo_451" transform="translate(0.02)">
					<path id="Trazado_625" class="st3" d="M21.48,43.96c-3.12,0.01-6.07-1.4-8.03-3.82l-1.57-1.93c-3.58-4.43-2.9-10.92,1.53-14.51
						L34.73,6.42c5.5-4.44,13.56-3.59,18.02,1.9l0,0c3.58,4.43,2.9,10.92-1.53,14.51L27.96,41.67
						C26.13,43.16,23.84,43.97,21.48,43.96z M42.79,6.36c-2.29,0-4.51,0.78-6.29,2.23L15.16,25.86c-3.23,2.62-3.72,7.35-1.11,10.59
						l1.57,1.93c2.61,3.23,7.35,3.73,10.58,1.12c0,0,0,0,0,0l23.27-18.83c3.23-2.62,3.72-7.35,1.11-10.59l0,0
						C48.68,7.72,45.81,6.36,42.79,6.36L42.79,6.36z"/>
				</g>
			</g>
			<g id="Elipse_76" transform="translate(30.342)">
				<g id="Grupo_452">
					<circle id="Elipse_179" class="st0" cx="21.87" cy="15.86" r="12.29"/>
				</g>
				<g id="Grupo_453" transform="translate(0 0)">
					<path id="Trazado_626" class="st3" d="M21.87,28.15c-6.79,0-12.29-5.5-12.29-12.29c0-6.79,5.5-12.29,12.29-12.29
						c6.79,0,12.29,5.5,12.29,12.29c0,0,0,0,0,0C34.15,22.65,28.65,28.15,21.87,28.15z M21.87,6.37c-5.25,0-9.5,4.25-9.51,9.49
						s4.25,9.5,9.49,9.51s9.5-4.25,9.51-9.49c0,0,0,0,0-0.01C31.36,10.63,27.11,6.37,21.87,6.37L21.87,6.37z"/>
				</g>
			</g>
		</g>
	</g>
	<g id="Grupo_466" transform="translate(1529.733 -79.863)">
		<g id="Grupo_260" transform="translate(0 76.571)">
			<g id="Tecnología" transform="translate(0 0)">
				<g id="Grupo_455">
					<path id="Trazado_627" class="st3" d="M20.47,6.87h-3.9v11.18h-3.1V6.87H9.58V4.36h10.89V6.87z"/>
					<path id="Trazado_628" class="st3" d="M29.04,14.02h-6.38c0.1,1.42,1,2.13,2.68,2.13c1,0.02,1.98-0.24,2.83-0.76v2.18
						c-1.1,0.53-2.31,0.77-3.52,0.72c-2.5,0.25-4.73-1.57-4.98-4.07c-0.03-0.3-0.03-0.6,0-0.9c-0.07-1.42,0.44-2.82,1.41-3.86
						c0.91-0.94,2.17-1.45,3.47-1.42C25.79,7.96,27,8.42,27.87,9.3c0.82,0.96,1.24,2.19,1.17,3.45L29.04,14.02z M26.24,12.17
						c0-1.4-0.57-2.1-1.7-2.1c-0.49,0-0.95,0.22-1.26,0.6c-0.36,0.42-0.59,0.95-0.64,1.5H26.24z"/>
					<path id="Trazado_629" class="st3" d="M38.24,17.69c-0.92,0.45-1.93,0.65-2.95,0.59c-1.35,0.06-2.67-0.43-3.65-1.36
						c-0.94-0.93-1.44-2.2-1.39-3.52c-0.08-1.46,0.47-2.89,1.5-3.93c1.09-0.99,2.52-1.51,3.99-1.43c0.86-0.06,1.72,0.1,2.5,0.46
						v2.56c-0.61-0.46-1.35-0.71-2.11-0.71c-0.76-0.04-1.5,0.23-2.06,0.76c-0.53,0.57-0.81,1.33-0.76,2.1
						c-0.04,0.75,0.22,1.48,0.73,2.04c0.53,0.51,1.26,0.78,2,0.74c0.79-0.01,1.56-0.26,2.21-0.71L38.24,17.69z"/>
					<path id="Trazado_630" class="st3" d="M49.66,18.05h-3.01v-5.43c0-1.51-0.54-2.27-1.62-2.27c-0.5-0.01-0.98,0.21-1.29,0.6
						c-0.35,0.43-0.53,0.97-0.51,1.53v5.57h-3.02V8.27h3.02v1.55h0.04c0.63-1.14,1.84-1.83,3.14-1.79c2.16,0,3.25,1.34,3.25,4.03
						L49.66,18.05z"/>
					<path id="Trazado_631" class="st3" d="M56.7,18.29c-1.41,0.08-2.8-0.41-3.84-1.37c-1.88-2.16-1.86-5.38,0.05-7.51
						c1.08-0.95,2.49-1.45,3.92-1.37c1.41-0.08,2.78,0.41,3.82,1.37c0.94,0.96,1.44,2.28,1.38,3.62c0.08,1.42-0.44,2.82-1.43,3.85
						C59.55,17.85,58.14,18.36,56.7,18.29z M56.77,10.34c-0.64-0.03-1.25,0.24-1.66,0.73c-0.43,0.61-0.64,1.34-0.59,2.08
						c0,1.88,0.76,2.82,2.27,2.82c1.44,0,2.17-0.96,2.17-2.89C58.96,11.26,58.23,10.34,56.77,10.34z"/>
					<path id="Trazado_632" class="st3" d="M67.01,18.05h-3.02V3.58h3.02V18.05z"/>
					<path id="Trazado_633" class="st3" d="M74.2,18.29c-1.41,0.08-2.8-0.41-3.84-1.37c-1.89-2.16-1.86-5.38,0.05-7.51
						c1.08-0.95,2.49-1.45,3.92-1.37c1.41-0.08,2.78,0.41,3.82,1.37c0.94,0.96,1.44,2.28,1.38,3.62c0.08,1.42-0.44,2.82-1.43,3.85
						C77.06,17.85,75.65,18.36,74.2,18.29z M74.28,10.34c-0.64-0.03-1.26,0.24-1.66,0.73c-0.43,0.61-0.64,1.34-0.59,2.08
						c0,1.88,0.76,2.82,2.27,2.82c1.44,0,2.17-0.96,2.17-2.89C76.47,11.26,75.74,10.34,74.28,10.34L74.28,10.34z"/>
					<path id="Trazado_634" class="st3" d="M91.08,16.93c0.1,1.56-0.48,3.1-1.57,4.21c-1.27,1.07-2.9,1.61-4.56,1.49
						c-1.07,0.05-2.14-0.15-3.13-0.56v-2.54c0.92,0.56,1.97,0.86,3.04,0.88c0.86,0.05,1.72-0.24,2.37-0.81
						c0.58-0.58,0.88-1.37,0.84-2.19v-0.77h-0.04c-0.63,1.07-1.8,1.7-3.04,1.64c-1.14,0.05-2.24-0.44-2.97-1.32
						c-0.78-1.01-1.17-2.26-1.1-3.53c-0.08-1.42,0.36-2.82,1.22-3.94c0.79-0.96,1.98-1.5,3.22-1.46c1.07-0.06,2.1,0.47,2.67,1.38
						h0.04V8.27h3.02L91.08,16.93z M88.1,13.35v-0.77c0.01-0.58-0.18-1.14-0.55-1.58c-0.35-0.43-0.88-0.67-1.43-0.65
						c-0.62-0.02-1.22,0.27-1.57,0.78c-0.42,0.66-0.62,1.43-0.57,2.21c-0.04,0.69,0.15,1.37,0.54,1.93
						c0.35,0.47,0.91,0.73,1.49,0.71c0.59,0.02,1.15-0.25,1.51-0.72C87.93,14.71,88.14,14.03,88.1,13.35L88.1,13.35z"/>
					<path id="Trazado_635" class="st3" d="M98.17,3.64l-2.99,3.08h-2.18l2.48-3.08H98.17z M96.62,18.04H93.6V8.27h3.02V18.04z"/>
					<path id="Trazado_636" class="st3" d="M107.29,18.05h-2.85v-1.4h-0.04c-0.58,1.05-1.71,1.69-2.91,1.64
						c-0.82,0.05-1.63-0.25-2.24-0.81c-0.56-0.57-0.85-1.35-0.82-2.15c0-1.9,1.12-2.99,3.37-3.28l2.66-0.35
						c0-1.07-0.58-1.6-1.74-1.6c-1.19,0.01-2.34,0.37-3.32,1.04V8.86c0.55-0.26,1.13-0.45,1.72-0.57c0.65-0.16,1.32-0.24,1.99-0.25
						c2.79,0,4.18,1.39,4.18,4.17L107.29,18.05z M104.45,14.08v-0.66l-1.78,0.23c-0.98,0.13-1.47,0.57-1.47,1.33
						c-0.01,0.32,0.12,0.63,0.36,0.85c0.27,0.23,0.62,0.35,0.97,0.33c0.53,0.02,1.03-0.2,1.38-0.59
						C104.28,15.15,104.47,14.62,104.45,14.08z"/>
				</g>
			</g>
		</g>
		<g id="Grupo_261" transform="translate(16.178)">
			<g id="Elipse_92">
				<g id="Grupo_456" transform="translate(0 0)">
					<ellipse id="Elipse_180" class="st0" cx="42.26" cy="35.69" rx="32.67" ry="32.12"/>
				</g>
				<g id="Grupo_457" transform="translate(0)">
					<path id="Trazado_637" class="st3" d="M42.26,67.81c-18.02,0-32.67-14.41-32.67-32.12S24.24,3.58,42.26,3.58
						s32.68,14.41,32.68,32.12S60.27,67.81,42.26,67.81z M42.26,6.37c-16.48,0-29.88,13.15-29.88,29.32s13.4,29.32,29.88,29.32
						s29.88-13.15,29.88-29.32S58.73,6.37,42.26,6.37z"/>
				</g>
			</g>
			<g id="Trazado_167" transform="translate(38.808 4.188)">
				<path id="Trazado_638" class="st3" d="M19.52,20.98h-4.84c-1.42,0.08-2.81-0.46-3.81-1.47c-0.87-1-1.33-2.29-1.28-3.62V3.58
					h2.79v12.45l0,0c-0.01,0.58,0.18,1.14,0.54,1.59c0.48,0.42,1.12,0.63,1.76,0.57h4.84L19.52,20.98z"/>
			</g>
			<g id="Trazado_168" transform="translate(14.892 39.62)">
				<path id="Trazado_639" class="st3" d="M15.85,23.66h-2.79V8.11c0.03-0.58-0.11-1.15-0.41-1.64c-0.04-0.04-0.1-0.1-0.3-0.1H9.59
					v-2.8h2.76c0.88-0.02,1.72,0.33,2.32,0.97c0.82,1.03,1.24,2.33,1.18,3.65L15.85,23.66z"/>
			</g>
			<g id="Trazado_169" transform="translate(2.529 29.408)">
				<path id="Trazado_640" class="st3" d="M33.45,35.87c-0.77,0-1.4-0.63-1.4-1.4V11.82c0-4.89-0.62-5.45-6-5.45H10.98
					c-0.77,0-1.4-0.63-1.4-1.4s0.63-1.4,1.4-1.4h15.07c6.2,0,8.79,1.15,8.79,8.24v22.66C34.85,35.24,34.22,35.87,33.45,35.87z"/>
			</g>
			<g id="Trazado_170" transform="translate(22.963 16.407)">
				<path id="Trazado_641" class="st3" d="M20.37,31.22c-0.77,0-1.4-0.63-1.4-1.4V8.51l0,0c0-0.54-0.18-1.06-0.53-1.46
					c-0.59-0.51-1.37-0.75-2.14-0.68h-5.32c-0.77,0-1.4-0.63-1.4-1.4s0.63-1.4,1.4-1.4h5.32c1.56-0.1,3.1,0.48,4.21,1.59
					c0.85,0.96,1.3,2.21,1.26,3.49v21.17C21.76,30.59,21.14,31.22,20.37,31.22z"/>
			</g>
			<g id="Elipse_95" transform="translate(14.37 12.95)">
				<g id="Grupo_458" transform="translate(0 0)">
					<circle id="Elipse_181" class="st0" cx="14.58" cy="8.57" r="4.99"/>
				</g>
				<g id="Grupo_459">
					<path id="Trazado_642" class="st3" d="M14.58,13.57c-2.76,0-4.99-2.24-5-4.99c0-2.76,2.24-4.99,5-4.99
						c2.75,0,4.99,2.23,4.99,4.99C19.57,11.33,17.34,13.56,14.58,13.57z M14.58,5.25c-1.83,0-3.32,1.49-3.32,3.32
						c0,1.83,1.49,3.32,3.32,3.32c1.83,0,3.32-1.49,3.32-3.32C17.9,6.74,16.41,5.25,14.58,5.25L14.58,5.25z"/>
				</g>
			</g>
			<g id="Trazado_171" transform="translate(32.358 57.294)">
				<path id="Trazado_643" class="st3" d="M10.98,9.81c-0.77,0-1.4-0.63-1.4-1.4V4.97c0.05-0.77,0.72-1.35,1.5-1.3
					c0.7,0.05,1.25,0.6,1.3,1.3v3.44C12.37,9.18,11.75,9.8,10.98,9.81z"/>
			</g>
			<g id="Elipse_98" transform="translate(32.116 50.547)">
				<ellipse id="Elipse_182" class="st2" cx="11.26" cy="5.81" rx="0.28" ry="0.84"/>
				<path id="Trazado_644" class="st3" d="M11.26,8.04c-0.77,0-1.68-0.58-1.68-2.23s0.9-2.23,1.68-2.23s1.68,0.58,1.68,2.23
					S12.03,8.04,11.26,8.04z M10.2,5.81c0.4,0.58,1.19,0.73,1.78,0.34c0.13-0.09,0.25-0.2,0.34-0.34c-0.4-0.58-1.19-0.73-1.78-0.34
					C10.41,5.56,10.29,5.68,10.2,5.81z"/>
			</g>
			<g id="Elipse_101" transform="translate(32.116 46.079)">
				<ellipse id="Elipse_183" class="st2" cx="11.26" cy="6.37" rx="0.28" ry="1.4"/>
				<ellipse id="Elipse_184" class="st3" cx="11.26" cy="6.37" rx="1.68" ry="2.79"/>
			</g>
			<g id="Trazado_172" transform="translate(40.185 33.696)">
				<path id="Trazado_645" class="st3" d="M12.38,30.3l-2.79-0.02L9.71,7.51c-0.02-0.89,0.3-1.76,0.9-2.42
					c1.15-1.1,2.72-1.65,4.31-1.52h5v2.79h-5c-0.79-0.09-1.59,0.12-2.24,0.59c-0.1,0.11-0.16,0.24-0.19,0.38l0.01,0.07v0.07
					L12.38,30.3z"/>
			</g>
			<g id="Elipse_99" transform="translate(49.793 30.152)">
				<g id="Grupo_460" transform="translate(0 0)">
					<circle id="Elipse_185" class="st0" cx="14.58" cy="8.57" r="4.99"/>
				</g>
				<g id="Grupo_461" transform="translate(0 0)">
					<path id="Trazado_646" class="st3" d="M14.58,13.57c-2.76,0-4.99-2.24-4.99-4.99c0-2.76,2.24-4.99,4.99-4.99
						c2.76,0,4.99,2.24,5,4.99C19.57,11.33,17.33,13.57,14.58,13.57z M14.58,5.26c-1.83,0-3.32,1.49-3.32,3.32
						c0,1.83,1.49,3.32,3.32,3.32c1.83,0,3.32-1.49,3.32-3.32C17.9,6.74,16.41,5.25,14.58,5.26L14.58,5.26z"/>
				</g>
			</g>
			<g id="Elipse_102" transform="translate(48.128 16.686)">
				<g id="Grupo_462" transform="translate(0 0)">
					<circle id="Elipse_186" class="st0" cx="13.06" cy="7.06" r="3.48"/>
				</g>
				<g id="Grupo_463" transform="translate(0)">
					<path id="Trazado_647" class="st3" d="M13.06,10.54c-1.92,0-3.48-1.56-3.48-3.48c0-1.92,1.56-3.48,3.48-3.48
						c1.92,0,3.48,1.56,3.48,3.48C16.54,8.98,14.98,10.54,13.06,10.54z M13.06,5.25c-1,0-1.8,0.81-1.8,1.81c0,0.99,0.81,1.8,1.8,1.8
						c0.99,0,1.8-0.81,1.8-1.8C14.87,6.06,14.06,5.25,13.06,5.25z"/>
				</g>
			</g>
			<g id="Elipse_100" transform="translate(8.959 37.947)">
				<g id="Grupo_464" transform="translate(0 0)">
					<circle id="Elipse_187" class="st0" cx="13.06" cy="7.06" r="3.48"/>
				</g>
				<g id="Grupo_465" transform="translate(0 0)">
					<path id="Trazado_648" class="st3" d="M13.06,10.54c-1.92,0-3.48-1.56-3.48-3.48s1.56-3.48,3.48-3.48
						c1.92,0,3.48,1.56,3.48,3.48c0,0,0,0,0,0C16.54,8.98,14.98,10.53,13.06,10.54z M13.06,5.25c-0.99,0-1.8,0.81-1.8,1.8
						c0,0.99,0.81,1.8,1.8,1.8c0.99,0,1.79-0.8,1.8-1.79C14.86,6.06,14.06,5.25,13.06,5.25z"/>
				</g>
			</g>
			<g id="Elipse_104" transform="translate(17.397 15.977)">
				<circle id="Elipse_188" class="st3" cx="11.55" cy="5.54" r="1.97"/>
			</g>
			<g id="Elipse_105" transform="translate(52.82 33.178)">
				<circle id="Elipse_189" class="st3" cx="11.55" cy="5.54" r="1.97"/>
			</g>
		</g>
	</g>
	<g id="Grupo_470" transform="translate(970.846 333.143)">
		<g id="Grupo_263" transform="translate(0 72.726)">
			<g id="Negocios">
				<g id="Grupo_467">
					<path id="Trazado_649" class="st3" d="M21.19,17.17h-2.93l-5.32-8.11c-0.23-0.35-0.45-0.7-0.65-1.07h-0.04
						c0.05,0.46,0.07,1.15,0.07,2.09v7.09H9.58V4.27h3.13l5.12,7.86c0.23,0.35,0.45,0.7,0.65,1.05h0.04
						c-0.06-0.59-0.08-1.18-0.07-1.77V4.27h2.74V17.17z"/>
					<path id="Trazado_650" class="st3" d="M32.15,13.38h-6.01c0.1,1.34,0.94,2.01,2.53,2.01c0.94,0.02,1.87-0.23,2.67-0.72v2.05
						c-1.03,0.5-2.17,0.73-3.32,0.68c-2.36,0.24-4.46-1.48-4.7-3.84c-0.03-0.28-0.03-0.57,0-0.85c-0.07-1.34,0.41-2.66,1.33-3.64
						c0.86-0.88,2.05-1.37,3.28-1.34c1.16-0.07,2.3,0.37,3.12,1.2c0.77,0.9,1.16,2.06,1.1,3.25L32.15,13.38z M29.51,11.63
						c0-1.32-0.53-1.98-1.6-1.98c-0.46,0-0.89,0.21-1.18,0.57c-0.34,0.4-0.55,0.89-0.61,1.41L29.51,11.63z"/>
					<path id="Trazado_651" class="st3" d="M42.87,16.12c0.09,1.47-0.45,2.92-1.48,3.97c-1.2,1.01-2.74,1.52-4.3,1.41
						c-1.01,0.04-2.02-0.14-2.95-0.53v-2.39c0.86,0.53,1.86,0.81,2.87,0.83c0.82,0.05,1.62-0.22,2.23-0.76
						c0.54-0.55,0.83-1.3,0.79-2.07v-0.73h-0.04c-0.6,1.01-1.7,1.6-2.87,1.55c-1.08,0.05-2.11-0.41-2.8-1.24
						c-0.73-0.95-1.1-2.13-1.04-3.33c-0.07-1.34,0.34-2.66,1.15-3.72c0.74-0.91,1.86-1.41,3.03-1.38c1.01-0.06,1.98,0.44,2.52,1.3
						h0.04V7.96h2.84L42.87,16.12z M40.07,12.75v-0.73c0.01-0.54-0.17-1.07-0.52-1.49c-0.33-0.4-0.83-0.63-1.34-0.62
						c-0.59-0.02-1.15,0.26-1.48,0.74c-0.4,0.62-0.58,1.35-0.54,2.08c-0.04,0.65,0.14,1.29,0.51,1.82c0.33,0.44,0.85,0.69,1.4,0.67
						c0.56,0.01,1.09-0.24,1.43-0.68C39.9,14.02,40.1,13.39,40.07,12.75z"/>
					<path id="Trazado_652" class="st3" d="M49.64,17.4c-1.33,0.07-2.64-0.39-3.62-1.29c-1.78-2.03-1.76-5.07,0.05-7.08
						c1.02-0.9,2.34-1.36,3.7-1.29c1.33-0.08,2.62,0.39,3.6,1.29c0.89,0.91,1.36,2.15,1.31,3.41c0.07,1.34-0.42,2.66-1.34,3.63
						C52.33,16.99,51,17.47,49.64,17.4z M49.71,9.91c-0.6-0.03-1.18,0.23-1.57,0.69c-0.41,0.57-0.6,1.26-0.56,1.96
						c0,1.77,0.71,2.66,2.14,2.66c1.36,0,2.04-0.91,2.04-2.73C51.77,10.77,51.09,9.91,49.71,9.91L49.71,9.91z"/>
					<path id="Trazado_653" class="st3" d="M63.5,16.84c-0.86,0.42-1.82,0.61-2.78,0.56c-1.27,0.05-2.51-0.41-3.44-1.29
						c-0.88-0.87-1.36-2.08-1.31-3.32c-0.07-1.38,0.44-2.72,1.41-3.7c1.02-0.94,2.38-1.42,3.77-1.35c0.81-0.06,1.62,0.09,2.36,0.43
						v2.41c-0.57-0.44-1.27-0.67-1.99-0.67c-0.72-0.04-1.42,0.22-1.94,0.72c-0.5,0.53-0.76,1.25-0.71,1.98
						c-0.04,0.71,0.21,1.4,0.68,1.92c0.5,0.48,1.18,0.74,1.88,0.7c0.74-0.01,1.47-0.24,2.08-0.67L63.5,16.84z"/>
					<path id="Trazado_654" class="st3" d="M66.8,6.5c-0.43,0.02-0.86-0.14-1.18-0.43c-0.3-0.27-0.47-0.65-0.46-1.05
						c-0.01-0.4,0.16-0.78,0.46-1.04c0.69-0.54,1.67-0.54,2.36,0c0.3,0.26,0.47,0.65,0.45,1.04c0.01,0.4-0.15,0.79-0.45,1.06
						C67.66,6.37,67.24,6.52,66.8,6.5z M68.2,17.17h-2.84V7.96h2.84L68.2,17.17z"/>
					<path id="Trazado_655" class="st3" d="M74.99,17.4c-1.33,0.07-2.64-0.39-3.62-1.29c-1.78-2.03-1.76-5.07,0.05-7.08
						c1.02-0.9,2.34-1.36,3.7-1.29c1.33-0.08,2.62,0.39,3.6,1.29c0.89,0.91,1.36,2.15,1.3,3.41c0.07,1.34-0.42,2.66-1.35,3.63
						C77.68,16.99,76.35,17.47,74.99,17.4z M75.07,9.91c-0.6-0.03-1.18,0.23-1.57,0.69c-0.41,0.57-0.6,1.26-0.56,1.96
						c0,1.77,0.71,2.66,2.14,2.66c1.36,0,2.04-0.91,2.04-2.73C77.13,10.77,76.44,9.91,75.07,9.91L75.07,9.91z"/>
					<path id="Trazado_656" class="st3" d="M81.27,16.93v-2.3c0.44,0.27,0.91,0.48,1.4,0.63c0.43,0.13,0.87,0.2,1.32,0.21
						c0.41,0.02,0.81-0.05,1.19-0.21c0.26-0.1,0.44-0.35,0.44-0.63c0-0.17-0.07-0.34-0.2-0.45c-0.15-0.13-0.32-0.24-0.51-0.32
						c-0.22-0.1-0.45-0.18-0.68-0.24c-0.25-0.07-0.48-0.15-0.71-0.24c-0.33-0.12-0.66-0.27-0.97-0.45c-0.26-0.15-0.5-0.33-0.7-0.55
						c-0.19-0.21-0.34-0.46-0.43-0.73c-0.11-0.32-0.16-0.65-0.15-0.98c-0.01-0.47,0.1-0.93,0.34-1.33c0.22-0.37,0.53-0.68,0.9-0.91
						C82.9,8.18,83.34,8,83.79,7.9c0.49-0.11,1-0.17,1.51-0.17c0.42,0,0.83,0.03,1.24,0.09c0.42,0.06,0.83,0.15,1.24,0.27v2.2
						c-0.36-0.21-0.75-0.37-1.16-0.47c-0.4-0.1-0.8-0.16-1.21-0.16c-0.18,0-0.35,0.02-0.53,0.05c-0.15,0.03-0.3,0.08-0.44,0.14
						c-0.12,0.05-0.22,0.14-0.3,0.24c-0.07,0.1-0.11,0.22-0.11,0.34c0,0.16,0.05,0.31,0.16,0.43c0.12,0.13,0.26,0.24,0.42,0.31
						c0.19,0.09,0.38,0.17,0.58,0.23c0.21,0.07,0.42,0.14,0.63,0.21c0.35,0.12,0.69,0.26,1.03,0.43c0.29,0.14,0.55,0.33,0.79,0.55
						c0.22,0.21,0.39,0.46,0.5,0.74c0.29,0.79,0.22,1.67-0.18,2.41c-0.24,0.39-0.56,0.71-0.94,0.95c-0.42,0.25-0.88,0.43-1.36,0.53
						c-0.53,0.11-1.06,0.17-1.6,0.17C83.12,17.41,82.17,17.25,81.27,16.93z"/>
				</g>
			</g>
		</g>
		<g id="Grupo_259" transform="translate(5.796)">
			<g id="Trazado_162">
				<g id="Grupo_468">
					<path id="Trazado_657" class="st0" d="M12.5,61.5c-1.62-0.02-2.93-1.34-2.92-2.97V32.54h23.99c0.16,5.41,4.24,9.65,9.29,9.65
						s9.13-4.24,9.29-9.65h24.59v25.99c0.01,1.63-1.29,2.95-2.92,2.97L12.5,61.5z M9.58,29.57V12.89c-0.01-1.63,1.29-2.96,2.92-2.97
						h15.67V8.03c-0.02-2.44,1.94-4.43,4.38-4.46h21.22c2.44,0.02,4.4,2.02,4.38,4.46v1.88h15.67c1.63,0.02,2.93,1.34,2.92,2.97
						v16.68L9.58,29.57L9.58,29.57z M33.57,14.35h19.19V7.38H33.57V14.35z"/>
				</g>
				<g id="Grupo_469" transform="translate(0)">
					<path id="Trazado_658" class="st3" d="M73.83,59.26c0.39-0.02,0.7-0.34,0.69-0.74V34.77H54.14
						c-0.97,6.23-6.81,10.49-13.04,9.52c-4.91-0.77-8.75-4.61-9.52-9.52H11.82v23.76c-0.01,0.39,0.29,0.72,0.69,0.74L73.83,59.26
						 M74.51,27.33V12.89c0.01-0.39-0.29-0.72-0.69-0.74h-17.9V8.03c0-0.72-0.34-1.4-0.93-1.83v10.38H31.34V6.2
						c-0.59,0.42-0.93,1.11-0.93,1.83v4.12H12.51c-0.39,0.01-0.7,0.34-0.69,0.74v14.45H74.51 M73.84,61.5H12.51
						c-1.63-0.02-2.93-1.34-2.92-2.97V32.54h23.99c0.16,5.41,4.24,9.65,9.29,9.65s9.13-4.24,9.29-9.65h24.59v25.99
						C76.77,60.16,75.46,61.49,73.84,61.5C73.83,61.5,73.83,61.5,73.84,61.5L73.84,61.5z M76.76,29.57H9.59V12.89
						c-0.01-1.63,1.29-2.95,2.92-2.97h15.67V8.03c-0.02-2.44,1.94-4.43,4.38-4.46h21.22c2.44,0.02,4.4,2.02,4.38,4.46v1.88h15.67
						c1.63,0.02,2.93,1.34,2.92,2.97V29.57L76.76,29.57z M33.58,7.38v6.97h19.19V7.38H33.58z"/>
				</g>
			</g>
			<g id="Sustracción_2" transform="translate(25.953 29.912)">
				<path id="Trazado_659" class="st3" d="M16.57,10.84c-3.93-0.08-7.05-3.33-6.98-7.26h13.97C23.62,7.51,20.5,10.75,16.57,10.84z"
					/>
			</g>
		</g>
	</g>
	<g id="Grupo_476" transform="translate(1400.895 75.617)">
		<g id="Grupo_257" transform="translate(3.102 78.594)">
			<g id="LGBT">
				<g id="Grupo_471">
					<path id="Trazado_660" class="st3" d="M17.73,17.49H9.58V3.8h3.08v11.18h5.07V17.49z"/>
					<path id="Trazado_661" class="st3" d="M30.32,16.58c-1.53,0.82-3.25,1.22-4.98,1.15c-1.91,0.11-3.78-0.55-5.21-1.83
						c-1.31-1.34-2-3.16-1.9-5.04c-0.07-1.97,0.68-3.88,2.08-5.26c1.5-1.4,3.49-2.13,5.54-2.03c1.3-0.02,2.6,0.18,3.84,0.6v2.89
						c-1.19-0.64-2.52-0.96-3.88-0.92c-1.17-0.04-2.31,0.41-3.13,1.25c-1.56,1.9-1.61,4.63-0.12,6.59c0.76,0.79,1.83,1.21,2.93,1.15
						c0.6,0.03,1.2-0.08,1.76-0.32v-2.67h-2.74V9.69h5.82L30.32,16.58z"/>
					<path id="Trazado_662" class="st3" d="M32.99,17.49V3.8h4.98c1.23-0.08,2.46,0.22,3.52,0.84c0.8,0.52,1.27,1.42,1.23,2.37
						c0.01,0.72-0.26,1.41-0.75,1.94c-0.51,0.56-1.18,0.96-1.91,1.15v0.04c0.88,0.08,1.7,0.46,2.33,1.08
						c0.58,0.58,0.89,1.37,0.87,2.19c0.05,1.15-0.45,2.26-1.34,2.98c-1.06,0.79-2.36,1.17-3.68,1.1L32.99,17.49z M36.07,6.08v3.25
						h1.35c0.54,0.03,1.07-0.13,1.5-0.46c0.37-0.32,0.57-0.79,0.55-1.27c0-1-0.75-1.51-2.25-1.51H36.07z M36.07,11.61v3.61h1.67
						c0.6,0.03,1.19-0.14,1.68-0.5c0.4-0.33,0.63-0.83,0.61-1.36c0.02-0.5-0.2-0.98-0.6-1.29c-0.49-0.34-1.07-0.5-1.67-0.47
						L36.07,11.61z"/>
					<path id="Trazado_663" class="st3" d="M54.67,6.32h-3.9v11.18h-3.09V6.32h-3.89V3.8h10.88L54.67,6.32z"/>
				</g>
			</g>
		</g>
		<g id="Grupo_475">
			<g id="Grupo_472" transform="translate(11.032 3.144)">
				<path id="Trazado_664" class="st0" d="M43.03,32.06H25.22c-8.66-0.11-15.64-6.44-15.64-14.24c0-7.87,7.1-14.24,15.86-14.24
					c0.25,0,0.51,0.01,0.76,0.02c0.26-0.01,0.51-0.02,0.76-0.02c4.18-0.04,8.23,1.47,11.36,4.23c2.96,2.57,4.68,6.28,4.71,10.2v8.58
					c0.16,3.02,2.63,5.39,5.65,5.45v0.01L43.03,32.06z"/>
			</g>
			<g id="Trazado_166" transform="translate(34.641)">
				<path id="Trazado_665" class="st3" d="M14.46,12.32c-0.71-1.17-1.85-2.01-3.18-2.35L9.67,5.44C9.41,4.71,9.8,3.92,10.53,3.66
					c0.5-0.17,1.06-0.05,1.44,0.33l3.57,3.63l5.15,1.23c0.75,0.19,1.2,0.95,1.01,1.7c-0.14,0.55-0.6,0.97-1.17,1.04l-5.9,0.71
					C14.58,12.31,14.52,12.32,14.46,12.32z"/>
			</g>
			<g id="Trazado_165" transform="translate(0 34.756)">
				<path id="Trazado_666" class="st3" d="M35.43,31.94h-0.6c-2.36,0-4.73-0.13-7.07-0.4c-2.84-0.29-5.65-0.83-8.4-1.62
					c-2.09-0.57-4.1-1.41-5.96-2.52c-1.23-0.7-2.28-1.68-3.06-2.86c-0.49-0.76-0.75-1.64-0.76-2.54C9.57,13.02,15.96,5.3,24.79,3.63
					c0.65-0.15,1.34,0.01,1.86,0.43c1.84,1.34,3.99,2.18,6.24,2.43c1.72,0.2,3.45,0.18,5.17-0.06c1.61-0.24,3.17-0.79,4.57-1.62
					c0.27-0.16,0.53-0.33,0.79-0.51c0.22-0.15,0.44-0.29,0.66-0.43c0.37-0.23,0.8-0.33,1.24-0.28l0.07,0.01
					c1.83,0.3,3.61,0.88,5.26,1.73c3.39,1.72,6.18,4.43,7.99,7.78c1.01,1.82,1.68,3.81,2,5.86c0.15,1.07,0.23,2.15,0.23,3.23v0.07
					c-0.06,1.12-0.5,2.18-1.27,3.01c-0.86,0.99-1.89,1.81-3.05,2.42c-2.47,1.32-5.12,2.28-7.86,2.84c-1.83,0.42-3.68,0.73-5.54,0.95
					C40.59,31.79,38.01,31.94,35.43,31.94z M35.1,29.15L35.1,29.15c2.59,0.01,5.17-0.13,7.73-0.43c1.77-0.2,3.53-0.5,5.27-0.9
					c2.49-0.51,4.9-1.37,7.14-2.57c0.86-0.45,1.63-1.06,2.26-1.8l0.04-0.04c0.31-0.33,0.5-0.77,0.53-1.23c0-0.93-0.07-1.87-0.2-2.79
					c-0.27-1.73-0.84-3.4-1.68-4.93c-1.54-2.85-3.92-5.17-6.81-6.63c-1.29-0.66-2.67-1.13-4.1-1.4c-0.1,0.07-0.21,0.14-0.31,0.21
					c-0.3,0.2-0.6,0.4-0.91,0.58c-1.72,1.02-3.62,1.7-5.59,1.98c-1.95,0.28-3.93,0.3-5.89,0.07c-2.68-0.31-5.24-1.29-7.44-2.86
					C17.72,7.9,12.37,14.42,12.38,22c0,0.37,0.11,0.73,0.31,1.04c0.54,0.81,1.26,1.48,2.11,1.96c1.66,0.99,3.45,1.75,5.31,2.25
					c2.6,0.74,5.26,1.25,7.95,1.53C30.4,29.04,32.75,29.16,35.1,29.15L35.1,29.15z M24.97,6.28l0.02,0.02L24.97,6.28z"/>
			</g>
			<path id="Trazado_667" class="st3" d="M54.06,29.74v-8.58c-0.03-3.92-1.75-7.63-4.71-10.2c-3.13-2.77-7.18-4.27-11.36-4.23
				c-0.25,0-0.51,0.01-0.76,0.02c-0.25-0.01-0.5-0.02-0.76-0.02H36.4c3.61,0.47,6.92,2.24,9.32,4.98c0.63,0.39,1.22,0.84,1.77,1.33
				c1.19,1.05,2.15,2.34,2.83,3.78c0.63,1.36,0.96,2.85,0.96,4.35v8.58c0,0.91,0.16,1.82,0.48,2.67h-6.96
				c-1.21,1.15-2.6,2.1-4.11,2.79h19.03v-0.01C56.69,35.14,54.23,32.76,54.06,29.74z"/>
			<g id="Elipse_90" transform="translate(11.581 4.723)">
				<g id="Grupo_473" transform="translate(0 0)">
					<circle id="Elipse_190" class="st0" cx="22.86" cy="16.85" r="13.28"/>
				</g>
				<g id="Grupo_474" transform="translate(0)">
					<path id="Trazado_668" class="st3" d="M22.86,30.13c-7.33,0-13.28-5.95-13.28-13.28S15.53,3.57,22.86,3.58
						c7.33,0,13.28,5.95,13.28,13.28C36.13,24.19,30.19,30.13,22.86,30.13z M22.86,6.37c-5.79,0-10.49,4.7-10.49,10.49
						s4.7,10.49,10.49,10.49c5.79,0,10.49-4.7,10.49-10.49C33.34,11.07,28.65,6.38,22.86,6.37L22.86,6.37z"/>
				</g>
			</g>
			<g id="Elipse_91" transform="translate(18.411 11.553)">
				<circle id="Elipse_191" class="st3" cx="16.03" cy="10.02" r="6.45"/>
			</g>
		</g>
	</g>
	<g id="Grupo_478" transform="translate(1560.18 187.826)">
		<g id="Grupo_262" transform="translate(0.78 99.03)">
			<g id="Templos">
				<g id="Grupo_477">
					<path id="Trazado_669" class="st3" d="M19.84,6.68h-3.69v10.54h-2.92V6.68H9.58V4.31h10.26L19.84,6.68z"/>
					<path id="Trazado_670" class="st3" d="M27.93,13.42h-6.01c0.1,1.34,0.94,2.01,2.53,2.01c0.94,0.02,1.87-0.23,2.67-0.72v2.05
						c-1.03,0.5-2.17,0.73-3.32,0.68c-2.36,0.24-4.46-1.48-4.7-3.84c-0.03-0.28-0.03-0.57,0-0.85c-0.07-1.34,0.41-2.66,1.33-3.64
						c0.86-0.88,2.05-1.37,3.28-1.34c1.16-0.07,2.3,0.37,3.12,1.2c0.77,0.9,1.17,2.06,1.1,3.25L27.93,13.42z M25.29,11.68
						c0-1.32-0.53-1.98-1.6-1.98c-0.46,0-0.9,0.21-1.18,0.57c-0.34,0.4-0.55,0.89-0.61,1.41H25.29z"/>
					<path id="Trazado_671" class="st3" d="M44.25,17.22h-2.83v-5.26c0-1.34-0.49-2.01-1.48-2.01c-0.46-0.01-0.89,0.22-1.14,0.6
						c-0.31,0.44-0.46,0.97-0.44,1.5v5.16h-2.84V11.9c0-1.3-0.48-1.95-1.45-1.95c-0.46-0.01-0.9,0.2-1.17,0.58
						c-0.31,0.46-0.47,1.01-0.44,1.57v5.12h-2.84V8h2.84v1.44h0.04c0.64-1.04,1.76-1.67,2.98-1.66c1.17-0.08,2.26,0.62,2.67,1.72
						c0.63-1.11,1.83-1.77,3.1-1.72c2,0,3,1.24,3,3.71L44.25,17.22z"/>
					<path id="Trazado_672" class="st3" d="M49.38,16.15h-0.04v5.31H46.5V8h2.84v1.39h0.04c1.11-1.66,3.36-2.11,5.02-1
						c0.26,0.18,0.5,0.38,0.71,0.62c0.7,0.97,1.04,2.15,0.98,3.34c0.07,1.33-0.34,2.64-1.14,3.7c-0.73,0.92-1.86,1.43-3.03,1.4
						C50.9,17.49,49.93,17,49.38,16.15z M49.3,12.37v0.74c-0.03,0.56,0.15,1.11,0.5,1.56c0.32,0.39,0.81,0.62,1.32,0.6
						c0.6,0.02,1.17-0.26,1.51-0.75c0.39-0.64,0.58-1.38,0.54-2.13c0-1.62-0.63-2.43-1.89-2.43c-0.55-0.01-1.08,0.23-1.43,0.66
						C49.46,11.11,49.27,11.74,49.3,12.37L49.3,12.37z"/>
					<path id="Trazado_673" class="st3" d="M60.77,17.22h-2.84V3.58h2.84V17.22z"/>
					<path id="Trazado_674" class="st3" d="M67.56,17.44c-1.33,0.07-2.64-0.39-3.62-1.29c-1.78-2.03-1.75-5.07,0.05-7.08
						c1.02-0.9,2.34-1.36,3.7-1.29c1.33-0.08,2.62,0.39,3.6,1.29c0.89,0.91,1.36,2.15,1.3,3.42c0.07,1.34-0.42,2.66-1.35,3.63
						C70.25,17.04,68.92,17.52,67.56,17.44z M67.63,9.96c-0.6-0.03-1.18,0.23-1.57,0.69c-0.4,0.57-0.6,1.26-0.56,1.96
						c0,1.77,0.71,2.66,2.14,2.66c1.36,0,2.04-0.91,2.04-2.73C69.69,10.82,69.01,9.96,67.63,9.96L67.63,9.96z"/>
					<path id="Trazado_675" class="st3" d="M73.83,16.98v-2.3c0.44,0.27,0.91,0.48,1.4,0.63c0.43,0.13,0.87,0.2,1.32,0.21
						c0.41,0.02,0.81-0.05,1.19-0.21c0.26-0.1,0.44-0.35,0.44-0.63c0-0.17-0.07-0.34-0.2-0.45c-0.15-0.13-0.32-0.24-0.51-0.32
						c-0.22-0.1-0.45-0.18-0.68-0.24c-0.25-0.07-0.48-0.15-0.71-0.24c-0.33-0.12-0.66-0.27-0.97-0.45c-0.26-0.15-0.5-0.33-0.7-0.55
						c-0.19-0.21-0.34-0.46-0.43-0.73c-0.11-0.32-0.16-0.65-0.15-0.98c-0.01-0.47,0.1-0.93,0.34-1.33c0.22-0.37,0.53-0.68,0.9-0.91
						c0.4-0.25,0.83-0.42,1.29-0.52c0.49-0.11,1-0.17,1.51-0.17c0.42,0,0.83,0.03,1.24,0.09c0.42,0.06,0.83,0.15,1.24,0.27v2.2
						c-0.36-0.21-0.75-0.37-1.16-0.47c-0.4-0.1-0.8-0.16-1.21-0.16c-0.18,0-0.35,0.02-0.53,0.05c-0.15,0.03-0.3,0.08-0.44,0.14
						c-0.12,0.06-0.22,0.14-0.3,0.24c-0.07,0.1-0.11,0.22-0.11,0.34c0,0.16,0.06,0.31,0.16,0.43c0.12,0.13,0.26,0.24,0.42,0.31
						c0.19,0.09,0.38,0.17,0.58,0.23c0.21,0.07,0.42,0.14,0.63,0.21c0.35,0.12,0.69,0.27,1.03,0.43c0.29,0.14,0.55,0.33,0.79,0.55
						c0.22,0.21,0.39,0.46,0.5,0.74c0.29,0.79,0.22,1.67-0.18,2.41c-0.24,0.39-0.56,0.71-0.95,0.95c-0.42,0.25-0.88,0.43-1.36,0.53
						c-0.53,0.11-1.06,0.17-1.6,0.17C75.69,17.46,74.74,17.3,73.83,16.98z"/>
				</g>
			</g>
		</g>
		<g id="Grupo_264">
			<g id="Grupo_159" transform="translate(25.597)">
				<g id="Unión_15">
					<path id="Trazado_676" class="st3" d="M21.85,25.07H18.8c-1.08,0-1.95-0.88-1.96-1.95V17.8h-5.31c-1.08,0-1.95-0.88-1.96-1.95
						V12.8c0-1.08,0.88-1.95,1.96-1.95h5.31V5.53c0-1.08,0.88-1.95,1.96-1.95h3.05c1.08,0,1.95,0.88,1.96,1.95v5.31h5.31
						c1.08,0,1.95,0.88,1.96,1.95v3.05c0,1.08-0.88,1.95-1.96,1.95h-5.31v5.31C23.81,24.19,22.93,25.07,21.85,25.07z M11.54,12.52
						c-0.15,0-0.28,0.13-0.28,0.28v3.05c0,0.15,0.13,0.28,0.28,0.28h6.15c0.46,0,0.84,0.38,0.84,0.84v6.15
						c0,0.15,0.12,0.28,0.28,0.28l0,0h3.05c0.15,0,0.28-0.13,0.28-0.28v-6.15c0-0.46,0.38-0.84,0.84-0.84h6.15
						c0.15,0,0.28-0.12,0.28-0.28v0V12.8c0-0.15-0.12-0.28-0.28-0.28l0,0h-6.15c-0.46,0-0.84-0.37-0.84-0.84c0,0,0,0,0,0V5.53
						c0-0.15-0.13-0.28-0.28-0.28H18.8c-0.15,0-0.28,0.12-0.28,0.28v0v6.15c0,0.46-0.38,0.84-0.84,0.84L11.54,12.52z"/>
				</g>
				<g id="Unión_16" transform="translate(2.582 2.582)">
					<path id="Trazado_677" class="st3" d="M17.29,19.9c-0.31,0-0.56-0.25-0.56-0.56c0,0,0,0,0,0v-6.59h-6.59
						c-0.31,0-0.56-0.25-0.56-0.56c0,0,0,0,0,0v-0.91c0-0.31,0.25-0.56,0.56-0.56c0,0,0,0,0,0h6.59V4.14c0-0.31,0.25-0.56,0.56-0.56
						c0,0,0,0,0,0h0.91c0.31,0,0.56,0.25,0.56,0.56c0,0,0,0,0,0v6.59h6.59c0.31,0,0.56,0.25,0.56,0.56c0,0,0,0,0,0v0.91
						c0,0.31-0.25,0.56-0.56,0.56l0,0h-6.59v6.59c0,0.31-0.25,0.56-0.56,0.56l0,0L17.29,19.9z"/>
				</g>
			</g>
			<g id="Grupo_158" transform="translate(0 20.261)">
				<g id="Rectángulo_149" transform="translate(3.492 32.928)">
					<path id="Trazado_678" class="st3" d="M29.97,27.59H10.98c-0.77,0-1.4-0.63-1.4-1.4V4.97c0-0.77,0.63-1.4,1.4-1.4h18.99
						c0.77,0,1.4,0.63,1.4,1.4V26.2C31.37,26.97,30.74,27.59,29.97,27.59z M12.37,24.8h16.2V6.37h-16.2V24.8z"/>
				</g>
				<g id="Sustracción_12" transform="translate(22.482 15.614)">
					<path id="Trazado_679" class="st3" d="M35,52.73H10.98c-0.77,0-1.4-0.63-1.4-1.4V4.97c0-0.77,0.63-1.4,1.4-1.4h7.97
						c0.77,0,1.4,0.63,1.4,1.4v2.8h5.4v-2.8c0-0.77,0.63-1.4,1.4-1.4h7.86c0.77,0,1.4,0.63,1.4,1.4v46.36
						C36.41,52.1,35.78,52.73,35,52.73C35,52.73,35,52.73,35,52.73z M12.37,49.93H33.6V6.37h-5.07v2.8c0,0.77-0.63,1.4-1.4,1.4
						h-8.19c-0.77,0-1.4-0.63-1.4-1.4v-2.8h-5.18L12.37,49.93z"/>
				</g>
				<g id="Rectángulo_140" transform="translate(3.492 54.153)">
					<path id="Trazado_680" class="st3" d="M29.97,11.95H10.98c-0.77,0-1.4-0.63-1.4-1.4V4.97c0-0.77,0.63-1.4,1.4-1.4h18.99
						c0.77,0,1.4,0.63,1.4,1.4v5.59C31.37,11.33,30.74,11.95,29.97,11.95z M12.37,9.16h16.2V6.37h-16.2V9.16z"/>
				</g>
				<g id="Rectángulo_141" transform="translate(8.519 39.072)">
					<path id="Trazado_681" class="st3" d="M20.47,21.45h-9.5c-0.77,0-1.4-0.63-1.4-1.4V9.72c0-3.39,2.75-6.14,6.14-6.14
						s6.14,2.75,6.14,6.14v10.33C21.87,20.82,21.24,21.45,20.47,21.45z M12.37,18.66h6.7V9.72c0.05-1.85-1.42-3.39-3.27-3.43
						c-1.85-0.05-3.39,1.42-3.43,3.27c0,0.06,0,0.11,0,0.17V18.66z"/>
				</g>
				<g id="Rectángulo_144" transform="translate(28.068 24.55)">
					<path id="Trazado_682" class="st3" d="M19.36,16.42H16c-3.55,0-6.42-2.88-6.42-6.42S12.45,3.58,16,3.58h3.35
						c3.55,0,6.42,2.88,6.42,6.42S22.9,16.42,19.36,16.42L19.36,16.42z M16.01,6.37c-2.01,0-3.63,1.63-3.63,3.63
						s1.63,3.63,3.63,3.63h3.35c2.01,0,3.63-1.63,3.63-3.63s-1.63-3.63-3.63-3.63H16.01z"/>
				</g>
				<g id="Rectángulo_143" transform="translate(28.068 40.189)">
					<path id="Trazado_683" class="st3" d="M24.38,25.92H10.98c-0.77,0-1.4-0.63-1.4-1.4V11.67c-0.01-4.47,3.61-8.11,8.08-8.12
						c4.47-0.01,8.11,3.61,8.12,8.08c0,0.01,0,0.03,0,0.04v12.85C25.78,25.29,25.15,25.91,24.38,25.92z M12.37,23.12h10.61V11.67
						c0-2.93-2.38-5.31-5.31-5.31c-2.93,0-5.31,2.38-5.31,5.31V23.12z"/>
				</g>
				<g id="Trazado_180" transform="translate(0 20.102)">
					<path id="Trazado_684" class="st3" d="M33.94,18.78H10.98c-0.77,0-1.4-0.63-1.39-1.41c0-0.22,0.05-0.43,0.15-0.63L16.1,4.33
						c0.24-0.47,0.72-0.76,1.24-0.76h16.59c0.77,0,1.4,0.63,1.4,1.4v12.41C35.34,18.16,34.71,18.78,33.94,18.78z M13.26,15.99h19.28
						V6.37H18.2L13.26,15.99z"/>
				</g>
				<g id="Trazado_181" transform="translate(8.789 26.454)">
					<path id="Trazado_685" class="st3" d="M13.7,6.37h-2.72c-0.77,0.05-1.44-0.53-1.5-1.3c-0.05-0.77,0.53-1.44,1.3-1.5
						c0.07,0,0.13,0,0.2,0h2.72c0.77-0.05,1.44,0.53,1.5,1.3c0.05,0.77-0.53,1.44-1.3,1.5C13.83,6.37,13.76,6.37,13.7,6.37z"/>
				</g>
				<g id="Trazado_182" transform="translate(14.941 26.454)">
					<path id="Trazado_686" class="st3" d="M13.7,6.37h-2.72c-0.77-0.05-1.35-0.72-1.3-1.5c0.05-0.7,0.6-1.25,1.3-1.3h2.72
						c0.77,0.05,1.35,0.72,1.3,1.5C14.95,5.77,14.39,6.32,13.7,6.37z"/>
				</g>
				<g id="Sustracción_11" transform="translate(20.248)">
					<path id="Trazado_687" class="st3" d="M37.79,22.54h-9.4c-0.77,0-1.4-0.63-1.4-1.4v-0.73c-0.01-0.7-0.3-1.37-0.8-1.85
						c-0.5-0.5-1.18-0.77-1.89-0.75c-1.44,0.03-2.6,1.19-2.63,2.63v0.71c0,0.77-0.63,1.4-1.4,1.4h-9.3c-0.77,0-1.4-0.63-1.39-1.41
						c0-0.32,0.11-0.63,0.32-0.88l13.4-16.2c0.53-0.59,1.44-0.64,2.04-0.11c0.04,0.04,0.08,0.07,0.11,0.11l13.4,16.2
						c0.49,0.6,0.4,1.48-0.2,1.97c-0.25,0.2-0.56,0.31-0.88,0.32L37.79,22.54z M29.73,19.75h5.08L24.38,7.14L13.95,19.75h4.98
						c0.37-2.68,2.64-4.68,5.34-4.73c1.45-0.03,2.85,0.53,3.87,1.55C29.01,17.42,29.58,18.54,29.73,19.75z"/>
				</g>
				<g id="Rectángulo_151" transform="translate(3.492 32.928)">
					<path id="Trazado_688" class="st3" d="M29.97,27.59H10.98c-0.77,0-1.4-0.63-1.4-1.4V4.97c0-0.77,0.63-1.4,1.4-1.4h18.99
						c0.77,0,1.4,0.63,1.4,1.4V26.2C31.37,26.97,30.74,27.59,29.97,27.59z M12.37,24.8h16.2V6.37h-16.2V24.8z"/>
				</g>
				<g id="Rectángulo_152" transform="translate(3.492 54.153)">
					<path id="Trazado_689" class="st3" d="M29.97,11.95H10.98c-0.77,0-1.4-0.63-1.4-1.4V4.97c0-0.77,0.63-1.4,1.4-1.4h18.99
						c0.77,0,1.4,0.63,1.4,1.4v5.59C31.37,11.33,30.74,11.95,29.97,11.95z M12.37,9.16h16.2V6.37h-16.2V9.16z"/>
				</g>
				<g id="Rectángulo_153" transform="translate(8.519 39.072)">
					<path id="Trazado_690" class="st3" d="M20.47,21.45h-9.5c-0.77,0-1.4-0.63-1.4-1.4V9.72c0-3.39,2.75-6.14,6.14-6.14
						s6.14,2.75,6.14,6.14v10.33C21.87,20.82,21.24,21.45,20.47,21.45z M12.37,18.66h6.7V9.72c0.05-1.85-1.42-3.39-3.27-3.43
						c-1.85-0.05-3.39,1.42-3.43,3.27c0,0.06,0,0.11,0,0.17V18.66z"/>
				</g>
				<g id="Trazado_183" transform="translate(0 20.102)">
					<path id="Trazado_691" class="st3" d="M33.94,18.78H10.98c-0.77,0-1.4-0.63-1.39-1.41c0-0.22,0.05-0.43,0.15-0.63L16.1,4.33
						c0.24-0.47,0.72-0.76,1.24-0.76h16.59c0.77,0,1.4,0.63,1.4,1.4v12.41C35.34,18.16,34.71,18.78,33.94,18.78z M13.26,15.99h19.28
						V6.37H18.2L13.26,15.99z"/>
				</g>
				<g id="Trazado_184" transform="translate(8.789 26.454)">
					<path id="Trazado_692" class="st3" d="M13.7,6.37h-2.72c-0.77,0.05-1.44-0.53-1.5-1.3c-0.05-0.77,0.53-1.44,1.3-1.5
						c0.07,0,0.13,0,0.2,0h2.72c0.77-0.05,1.44,0.53,1.5,1.3c0.05,0.77-0.53,1.44-1.3,1.5C13.83,6.37,13.76,6.37,13.7,6.37z"/>
				</g>
				<g id="Trazado_185" transform="translate(14.941 26.454)">
					<path id="Trazado_693" class="st3" d="M13.7,6.37h-2.72c-0.77-0.05-1.35-0.72-1.3-1.5c0.05-0.7,0.6-1.25,1.3-1.3h2.72
						c0.77,0.05,1.35,0.72,1.3,1.5C14.95,5.77,14.39,6.32,13.7,6.37z"/>
				</g>
				<g id="Rectángulo_154" transform="translate(47.616 32.928)">
					<path id="Trazado_694" class="st3" d="M29.97,27.59H10.98c-0.77,0-1.4-0.63-1.4-1.4V4.97c0-0.77,0.63-1.4,1.4-1.4h18.99
						c0.77,0,1.4,0.63,1.4,1.4V26.2C31.37,26.97,30.74,27.59,29.97,27.59z M12.37,24.8h16.2V6.37h-16.2V24.8z"/>
				</g>
				<g id="Rectángulo_155" transform="translate(47.616 54.153)">
					<path id="Trazado_695" class="st3" d="M29.97,11.95H10.98c-0.77,0-1.4-0.63-1.4-1.4V4.97c0-0.77,0.63-1.4,1.4-1.4h18.99
						c0.77,0,1.4,0.63,1.4,1.4v5.59C31.37,11.33,30.74,11.95,29.97,11.95z M12.37,9.16h16.2V6.37h-16.2V9.16z"/>
				</g>
				<g id="Rectángulo_156" transform="translate(52.643 39.072)">
					<path id="Trazado_696" class="st3" d="M19.92,21.45h-8.94c-0.77,0-1.4-0.63-1.4-1.4V9.44c-0.04-3.24,2.55-5.9,5.79-5.94
						c3.24-0.04,5.9,2.55,5.94,5.79c0,0.05,0,0.1,0,0.15v10.61C21.31,20.82,20.69,21.45,19.92,21.45z M12.38,18.66h6.14V9.44
						c0-1.7-1.38-3.07-3.07-3.07s-3.07,1.38-3.07,3.07V18.66z"/>
				</g>
				<g id="Trazado_186" transform="translate(47.131 20.102)">
					<path id="Trazado_697" class="st3" d="M33.94,18.78H10.98c-0.77,0-1.4-0.63-1.4-1.4V4.97c0-0.77,0.63-1.4,1.4-1.4h16.6
						c0.52,0,1,0.29,1.24,0.76l6.36,12.41c0.35,0.69,0.07,1.53-0.62,1.88C34.38,18.73,34.16,18.78,33.94,18.78L33.94,18.78z
						 M12.38,15.99h19.28l-4.93-9.62H12.37L12.38,15.99z"/>
				</g>
				<g id="Trazado_187" transform="translate(58.584 26.454)">
					<path id="Trazado_698" class="st3" d="M13.7,6.37h-2.72c-0.77,0.05-1.44-0.53-1.5-1.3c-0.05-0.77,0.53-1.44,1.3-1.5
						c0.07,0,0.13,0,0.2,0h2.72c0.77,0.05,1.35,0.72,1.3,1.5C14.95,5.77,14.39,6.32,13.7,6.37z"/>
				</g>
				<g id="Trazado_188" transform="translate(52.433 26.454)">
					<path id="Trazado_699" class="st3" d="M13.7,6.37h-2.72c-0.77,0.05-1.44-0.53-1.5-1.3c-0.05-0.77,0.53-1.44,1.3-1.5
						c0.07,0,0.13,0,0.2,0h2.72c0.77-0.05,1.44,0.53,1.5,1.3c0.05,0.77-0.53,1.44-1.3,1.5C13.83,6.37,13.76,6.37,13.7,6.37z"/>
				</g>
				<g id="Trazado_189" transform="translate(35.045 42.371)">
					<rect id="Rectángulo_198" x="9.58" y="3.58" class="st3" width="2.79" height="19.07"/>
				</g>
			</g>
		</g>
	</g>
	<g id="Grupo_482" transform="translate(1317.232 328.138)">
		<g id="Grupo_265" transform="translate(14.757 81.182)">
			<g id="Salud">
				<g id="Grupo_479">
					<path id="Trazado_700" class="st3" d="M9.64,17.12v-2.97c0.52,0.44,1.11,0.78,1.75,1.02c0.61,0.22,1.26,0.34,1.91,0.34
						c0.33,0.01,0.66-0.03,0.99-0.1c0.25-0.06,0.48-0.15,0.7-0.28c0.17-0.11,0.32-0.25,0.42-0.43c0.09-0.16,0.14-0.35,0.14-0.53
						c0-0.25-0.07-0.5-0.22-0.7c-0.17-0.22-0.37-0.41-0.61-0.57c-0.29-0.19-0.6-0.36-0.91-0.5c-0.35-0.16-0.73-0.32-1.14-0.49
						c-0.89-0.33-1.69-0.87-2.32-1.59C9.83,9.69,9.56,8.88,9.58,8.06C9.56,7.44,9.7,6.83,9.99,6.28c0.28-0.49,0.66-0.92,1.14-1.23
						c0.51-0.33,1.07-0.57,1.66-0.71c0.66-0.15,1.33-0.23,2-0.23c0.62-0.01,1.23,0.04,1.84,0.12c0.51,0.08,1,0.2,1.48,0.39V7.4
						c-0.23-0.16-0.47-0.3-0.73-0.41c-0.26-0.12-0.53-0.21-0.81-0.29c-0.27-0.08-0.55-0.13-0.83-0.17
						c-0.26-0.04-0.52-0.05-0.78-0.06c-0.31,0-0.62,0.03-0.93,0.1c-0.25,0.05-0.48,0.15-0.7,0.27C13.16,6.95,13,7.09,12.89,7.26
						c-0.11,0.16-0.16,0.36-0.16,0.55c0,0.21,0.06,0.42,0.18,0.6c0.14,0.19,0.31,0.36,0.5,0.5c0.25,0.18,0.51,0.33,0.79,0.46
						c0.31,0.15,0.66,0.31,1.05,0.47c0.49,0.2,0.97,0.44,1.43,0.71c0.4,0.23,0.77,0.52,1.09,0.85c0.3,0.31,0.54,0.68,0.7,1.08
						c0.38,1.07,0.31,2.25-0.18,3.28c-0.27,0.5-0.67,0.92-1.15,1.22c-0.51,0.33-1.09,0.55-1.68,0.67c-0.67,0.14-1.35,0.2-2.03,0.2
						c-0.7,0-1.39-0.06-2.08-0.18C10.76,17.58,10.18,17.39,9.64,17.12z"/>
					<path id="Trazado_701" class="st3" d="M28.51,17.63h-2.77v-1.36H25.7c-0.56,1.03-1.66,1.64-2.83,1.6
						c-0.8,0.04-1.59-0.24-2.18-0.78c-0.54-0.56-0.83-1.31-0.79-2.09c0-1.84,1.09-2.91,3.27-3.19l2.58-0.34
						c0-1.04-0.56-1.56-1.69-1.56c-1.15,0.01-2.28,0.36-3.23,1.01V8.71c0.53-0.25,1.1-0.44,1.67-0.56c0.63-0.15,1.28-0.23,1.93-0.24
						c2.71,0,4.06,1.35,4.06,4.05L28.51,17.63z M25.75,13.77v-0.64l-1.72,0.22c-0.95,0.12-1.43,0.55-1.43,1.29
						c-0.01,0.31,0.12,0.61,0.35,0.82c0.26,0.22,0.6,0.34,0.94,0.32c0.51,0.02,1-0.19,1.34-0.57C25.58,14.82,25.77,14.3,25.75,13.77
						L25.75,13.77z"/>
					<path id="Trazado_702" class="st3" d="M33.76,17.63h-2.93V3.58h2.93V17.63z"/>
					<path id="Trazado_703" class="st3" d="M45.24,17.63h-2.92v-1.45h-0.05c-0.59,1.04-1.7,1.68-2.9,1.68c-2.2,0-3.3-1.33-3.3-4
						V8.13H39v5.47c0,1.34,0.53,2.01,1.59,2.01c0.48,0.02,0.95-0.18,1.26-0.55c0.34-0.43,0.5-0.96,0.47-1.5V8.13h2.92L45.24,17.63z"
						/>
					<path id="Trazado_704" class="st3" d="M57,17.63h-2.93v-1.31h-0.04c-0.63,1.01-1.75,1.59-2.94,1.54
						c-1.1,0.04-2.15-0.42-2.86-1.26c-0.78-1-1.16-2.25-1.08-3.51c-0.07-1.36,0.36-2.7,1.2-3.77c0.77-0.93,1.93-1.46,3.14-1.42
						c1.04-0.1,2.04,0.42,2.56,1.32h0.04V3.57h2.93L57,17.63z M54.13,13.01V12.3c0.02-0.56-0.17-1.11-0.54-1.54
						c-0.71-0.77-1.91-0.82-2.68-0.11c-0.09,0.08-0.17,0.17-0.24,0.26c-0.4,0.63-0.59,1.36-0.55,2.1c-0.04,0.68,0.14,1.36,0.53,1.93
						c0.66,0.8,1.85,0.91,2.64,0.24c0.1-0.08,0.19-0.18,0.27-0.28C53.96,14.36,54.16,13.69,54.13,13.01L54.13,13.01z"/>
				</g>
			</g>
		</g>
		<g id="Grupo_481">
			<g id="Grupo_480" transform="translate(0)">
				<path id="Trazado_705" class="st0" d="M46.9,69.13c-1.94,0.01-3.8-0.81-5.11-2.24l-16.5-17.73c-0.28-0.3-0.53-0.62-0.76-0.96
					L11.67,34.39c-2.78-3.08-2.78-7.76,0-10.84l16.5-17.73c2.51-2.79,6.8-3.01,9.59-0.5c0.18,0.16,0.34,0.32,0.5,0.5l8.64,9.28
					l8.64-9.28c2.51-2.78,6.8-3.01,9.58-0.5c0.18,0.16,0.34,0.32,0.5,0.5l16.51,17.73c2.78,3.08,2.78,7.76,0,10.84l-6.04,6.48
					l-6.81,7.32c-0.23,0.34-0.48,0.67-0.77,0.97l-16.5,17.73c-1.29,1.42-3.12,2.23-5.04,2.24L46.9,69.13z"/>
			</g>
			<path id="Trazado_706" class="st3" d="M51.24,63.62l-1.27,1.37c-0.77,0.85-1.85,1.34-3,1.35h-0.14c-1.15-0.01-2.23-0.5-3-1.35
				l-16.5-17.73c-0.18-0.19-0.34-0.39-0.48-0.61c-0.08-0.12-0.18-0.24-0.28-0.35L13.71,32.48c-1.79-2-1.79-5.03,0-7.03l16.5-17.73
				c1.46-1.66,3.99-1.82,5.65-0.35c0.13,0.11,0.24,0.23,0.35,0.35L44.85,17c1.05,1.13,2.82,1.19,3.95,0.14
				c0.05-0.05,0.1-0.09,0.14-0.14l8.64-9.28c1.46-1.65,3.98-1.81,5.64-0.36c0.13,0.11,0.24,0.23,0.36,0.36l16.51,17.73
				c1.77,1.99,1.78,4.99,0.03,6.99l1.98,1.98l0.03-0.04c2.78-3.08,2.78-7.76,0-10.84L65.63,5.82c-2.51-2.78-6.8-3.01-9.58-0.5
				c-0.17,0.16-0.34,0.32-0.5,0.5L46.9,15.1l-8.64-9.28c-2.51-2.79-6.8-3.01-9.59-0.5c-0.17,0.16-0.34,0.32-0.5,0.5l-16.5,17.73
				c-2.78,3.08-2.78,7.76,0,10.84L24.53,48.2c0.23,0.34,0.48,0.66,0.76,0.96l16.5,17.73c1.29,1.42,3.12,2.23,5.04,2.24h0.14
				c1.92-0.01,3.75-0.82,5.04-2.24l1.21-1.3L51.24,63.62z"/>
			<g id="Unión_13" transform="translate(33.46 21.621)">
				<path id="Trazado_707" class="st3" d="M26.94,47.05L26.94,47.05c-1.23,0-2.23-1-2.23-2.23V31.93H11.82c-1.23,0-2.23-1-2.23-2.23
					v-8.76c0-1.23,1-2.23,2.23-2.23h12.89V5.81c0-1.23,1-2.23,2.23-2.23h8.76c1.23,0,2.23,1,2.23,2.23V18.7h12.88
					c1.23,0,2.23,1,2.23,2.23v8.76c0,1.23-1,2.23-2.23,2.23H37.93v12.89c0,1.23-1,2.23-2.23,2.23L26.94,47.05z M11.82,20.93v8.76h14
					c0.62,0,1.12,0.5,1.12,1.12v14h8.76v-14c0-0.62,0.5-1.12,1.12-1.12h14v-8.76h-14c-0.62,0-1.12-0.5-1.12-1.12v-14h-8.76v14
					c0,0.62-0.5,1.12-1.12,1.12H11.82z"/>
			</g>
			<g id="Unión_14" transform="translate(38.205 26.368)">
				<path id="Trazado_708" class="st3" d="M25.02,37.56c-0.31,0-0.56-0.25-0.56-0.56V22.68H10.15c-0.31,0-0.56-0.25-0.56-0.56v-3.1
					c0-0.31,0.25-0.56,0.56-0.56h14.32V4.13c0-0.31,0.25-0.56,0.56-0.56h3.1c0.31,0,0.56,0.25,0.56,0.56c0,0,0,0,0,0v14.32h14.32
					c0.31,0,0.56,0.25,0.56,0.56c0,0,0,0,0,0v3.1c0,0.31-0.25,0.56-0.56,0.56c0,0,0,0,0,0H28.68V37c0,0.31-0.25,0.56-0.56,0.56
					c0,0,0,0,0,0L25.02,37.56z"/>
			</g>
		</g>
	</g>
	<g id="Grupo_498" transform="translate(1148.886 -97.685)">
		<g id="Grupo_253" transform="translate(24.035 84.73)">
			<g id="Arte" transform="translate(0 0)">
				<g id="Grupo_483">
					<path id="Trazado_709" class="st3" d="M23.48,17.66h-3.46l-1-3.13h-5.01l-0.99,3.13H9.59l5.12-14.08h3.76L23.48,17.66z
						 M18.29,12.09l-1.51-4.73c-0.12-0.41-0.2-0.84-0.24-1.27h-0.08c-0.03,0.42-0.12,0.83-0.25,1.23l-1.53,4.77L18.29,12.09z"/>
					<path id="Trazado_710" class="st3" d="M31.49,10.4c-0.4-0.21-0.85-0.31-1.31-0.3c-0.62-0.03-1.21,0.25-1.58,0.74
						c-0.41,0.59-0.61,1.3-0.57,2.02v4.8h-3.1V7.6h3.1v1.87h0.04c0.3-1.22,1.4-2.06,2.65-2.04c0.26-0.01,0.52,0.03,0.77,0.12
						L31.49,10.4z"/>
					<path id="Trazado_711" class="st3" d="M39.59,17.54c-0.65,0.28-1.36,0.41-2.07,0.36c-2.19,0-3.28-1.14-3.28-3.41v-4.6h-1.63
						V7.6h1.63V5.43l3.09-0.88V7.6h2.26v2.29h-2.26v4.06c0,1.05,0.42,1.57,1.25,1.57c0.36-0.01,0.7-0.11,1.01-0.29L39.59,17.54z"/>
					<path id="Trazado_712" class="st3" d="M50.29,13.51h-6.56c0.1,1.46,1.02,2.19,2.76,2.19c1.03,0.02,2.04-0.25,2.92-0.79v2.24
						c-1.13,0.54-2.37,0.8-3.62,0.75c-2.57,0.26-4.87-1.62-5.12-4.19c-0.03-0.31-0.03-0.62,0-0.93c-0.08-1.46,0.45-2.9,1.45-3.97
						c0.94-0.96,2.23-1.49,3.57-1.46c1.27-0.08,2.51,0.4,3.4,1.31c0.84,0.98,1.27,2.25,1.2,3.54L50.29,13.51z M47.41,11.61
						c0-1.44-0.58-2.16-1.75-2.16c-0.5,0-0.98,0.23-1.29,0.62c-0.37,0.43-0.6,0.97-0.66,1.54H47.41z"/>
				</g>
			</g>
		</g>
		<g id="Grupo_252" transform="translate(0)">
			<g id="Grupo_152" transform="translate(19.545)">
				<g id="Sustracción_9" transform="translate(0 25.422)">
					<path id="Trazado_713" class="st3" d="M19.18,22.55c-1.05,0-2.1-0.07-3.15-0.21c-1.28-0.17-2.55-0.42-3.8-0.76l0,0
						c-0.64-0.17-1.15-0.33-1.47-0.44l-1.18-0.39l0.26-1.22c0.38-1.77,0.91-3.5,1.61-5.17c1.19-2.85,3.4-6.7,7.12-8.85
						s8.18-2.13,11.25-1.73c0.23,0.03,0.46,0.06,0.7,0.1l1.43,0.22l-0.27,1.42c-0.15,0.78-0.01,1.59,0.39,2.28
						c0.4,0.69,1.02,1.21,1.77,1.47l1.36,0.48l-0.52,1.34c-0.06,0.17-0.13,0.33-0.19,0.48l-0.07,0.17c-1.2,2.87-3.4,6.72-7.13,8.86
						C24.79,21.96,22,22.62,19.18,22.55z M12.87,18.87l0.09,0.02l0,0c1.13,0.3,2.27,0.53,3.43,0.68c2.64,0.34,6.43,0.38,9.49-1.38
						c2.82-1.63,4.63-4.56,5.69-6.94c-0.8-0.52-1.46-1.23-1.94-2.05c-0.48-0.83-0.76-1.76-0.81-2.72c-2.59-0.26-6.04-0.17-8.86,1.46
						c-3.05,1.76-4.91,5.05-5.94,7.51C13.56,16.56,13.18,17.7,12.87,18.87L12.87,18.87z"/>
				</g>
				<g id="Rectángulo_130" transform="translate(19.04)">
					<g id="Grupo_484" transform="translate(1.508 1.504)">
						<path id="Rectángulo_199" class="st0" d="M12.63,27.01L50.2,5.33c1.68-0.97,3.84-0.39,4.81,1.29l0,0
							c0.97,1.68,0.39,3.84-1.29,4.81L16.15,33.11c-1.68,0.97-3.84,0.39-4.81-1.29l0,0C10.37,30.14,10.95,27.99,12.63,27.01z"/>
					</g>
					<g id="Grupo_485">
						<path id="Trazado_714" class="st3" d="M15.91,37.88c-0.56,0-1.11-0.07-1.65-0.22c-1.62-0.43-3-1.49-3.83-2.94
							c-0.84-1.45-1.07-3.17-0.63-4.79c0.43-1.62,1.49-3,2.94-3.83L50.31,4.42c3.02-1.74,6.88-0.7,8.62,2.31
							c1.74,3.02,0.71,6.88-2.31,8.62L19.05,37.03C18.1,37.59,17.01,37.88,15.91,37.88z M13.44,27.31l0.7,1.21
							c-0.81,0.46-1.4,1.23-1.64,2.14c-0.24,0.9-0.12,1.86,0.35,2.67c0.97,1.68,3.12,2.26,4.81,1.29l37.56-21.68
							c1.68-0.97,2.26-3.12,1.29-4.81c-0.97-1.68-3.12-2.26-4.81-1.29L14.14,28.52L13.44,27.31z"/>
					</g>
				</g>
				<g id="Rectángulo_133" transform="translate(19.04 21.01)">
					<g id="Grupo_486" transform="translate(1.508 1.504)">
						<path id="Rectángulo_200" class="st0" d="M12.63,6l1.16-0.67c1.68-0.97,3.84-0.39,4.81,1.29l0,0
							c0.97,1.68,0.39,3.84-1.29,4.81l-1.16,0.67c-1.68,0.97-3.84,0.39-4.81-1.29l0,0C10.37,9.13,10.95,6.98,12.63,6z"/>
					</g>
					<g id="Grupo_487">
						<path id="Trazado_715" class="st3" d="M15.91,16.87c-0.56,0-1.11-0.07-1.65-0.22c-1.62-0.43-3-1.49-3.83-2.94
							c-0.84-1.45-1.07-3.17-0.63-4.79c0.43-1.62,1.49-3,2.94-3.83l1.16-0.67c3.02-1.74,6.88-0.7,8.62,2.31
							c1.74,3.02,0.7,6.88-2.31,8.62l-1.16,0.67C18.1,16.58,17.01,16.87,15.91,16.87z M17.05,6.37c-0.62,0-1.22,0.16-1.75,0.47
							l-1.16,0.67c-0.81,0.46-1.4,1.23-1.64,2.14c-0.24,0.9-0.12,1.86,0.35,2.67c0.97,1.68,3.12,2.26,4.81,1.29l1.16-0.67
							c1.68-0.97,2.26-3.12,1.29-4.81C19.48,7.04,18.31,6.37,17.05,6.37L17.05,6.37z"/>
					</g>
				</g>
				<g id="Sustracción_10" transform="translate(6.019 29.901)">
					<path id="Trazado_716" class="st3" d="M10.44,13.07c-0.38-0.1-0.68-0.2-0.86-0.26c0.22-1.05,0.54-2.07,0.95-3.06
						c0.78-2.08,2.2-3.86,4.06-5.08c1.99-1,4.25-1.34,6.45-0.97c0.14,0.02,0.27,0.04,0.41,0.06c-0.13,0.69-0.01,1.41,0.34,2.01
						c0.35,0.61,0.9,1.07,1.56,1.3c-0.06,0.14-0.11,0.27-0.16,0.39c-0.78,2.08-2.2,3.86-4.06,5.08c-1.99,1-4.25,1.34-6.45,0.97
						C11.94,13.42,11.18,13.27,10.44,13.07z"/>
				</g>
			</g>
			<g id="Grupo_155" transform="translate(0 2.3)">
				<g id="Elipse_110" transform="translate(5.529 34.768)">
					<g id="Grupo_488" transform="translate(0 0.002)">
						<circle id="Elipse_192" class="st0" cx="15.15" cy="9.14" r="5.57"/>
					</g>
					<g id="Grupo_489" transform="translate(0 0)">
						<path id="Trazado_717" class="st3" d="M15.15,14.71c-0.49,0-0.97-0.06-1.44-0.19c-2.97-0.8-4.73-3.85-3.93-6.82
							c0.38-1.43,1.31-2.64,2.59-3.38c1.28-0.74,2.8-0.94,4.22-0.56l0,0c1.43,0.38,2.64,1.31,3.38,2.59
							c0.74,1.28,0.94,2.8,0.56,4.22C19.87,13.02,17.67,14.71,15.15,14.71z M15.14,5.25c-0.68,0-1.35,0.18-1.94,0.52
							c-0.9,0.51-1.55,1.36-1.81,2.36c-0.55,2.07,0.68,4.2,2.75,4.76c2.08,0.55,4.21-0.68,4.77-2.75c0.27-1,0.13-2.06-0.39-2.95
							c-0.51-0.9-1.36-1.55-2.36-1.81l0,0C15.83,5.3,15.49,5.25,15.14,5.25z"/>
					</g>
				</g>
				<g id="Grupo_154">
					<g id="Elipse_107" transform="translate(32.812 5.682)">
						<g id="Grupo_490" transform="translate(0.001 0.001)">
							<circle id="Elipse_193" class="st0" cx="15.15" cy="9.14" r="5.57"/>
						</g>
						<g id="Grupo_491">
							<path id="Trazado_718" class="st3" d="M15.15,14.71c-0.49,0-0.97-0.06-1.44-0.19c-2.97-0.8-4.73-3.85-3.94-6.82
								c0.8-2.96,3.85-4.72,6.81-3.93l0,0c2.97,0.8,4.73,3.85,3.94,6.82C19.87,13.02,17.66,14.7,15.15,14.71z M15.15,5.25
								c-1.76,0-3.3,1.18-3.76,2.88c-0.55,2.07,0.68,4.2,2.75,4.76c2.07,0.55,4.2-0.68,4.77-2.75c0.55-2.07-0.68-4.2-2.75-4.76l0,0
								C15.83,5.3,15.49,5.25,15.15,5.25L15.15,5.25z"/>
						</g>
					</g>
					<g id="Elipse_108" transform="translate(12.612 11.689)">
						<g id="Grupo_492" transform="translate(0.001 0.001)">
							<circle id="Elipse_194" class="st0" cx="15.15" cy="9.14" r="5.57"/>
						</g>
						<g id="Grupo_493">
							<path id="Trazado_719" class="st3" d="M15.15,14.71c-0.49,0-0.97-0.06-1.44-0.19c-2.97-0.8-4.73-3.85-3.94-6.82
								c0.8-2.97,3.85-4.73,6.82-3.93l0,0c2.97,0.8,4.73,3.85,3.94,6.82C19.88,13.02,17.67,14.71,15.15,14.71z M15.15,5.26
								c-1.76,0-3.3,1.18-3.76,2.88c-0.55,2.07,0.68,4.2,2.75,4.77c2.08,0.55,4.21-0.68,4.77-2.75c0.55-2.07-0.68-4.2-2.75-4.76
								C15.83,5.3,15.49,5.25,15.15,5.26L15.15,5.26z"/>
						</g>
					</g>
					<g id="Elipse_109" transform="translate(24.045 48.406)">
						<g id="Grupo_494" transform="translate(0.002 0.002)">
							<circle id="Elipse_195" class="st0" cx="14.45" cy="8.45" r="4.87"/>
						</g>
						<g id="Grupo_495" transform="translate(0 0)">
							<path id="Trazado_720" class="st3" d="M14.45,13.32c-0.43,0-0.85-0.06-1.26-0.17c-1.25-0.33-2.31-1.15-2.96-2.27
								c-0.65-1.12-0.83-2.45-0.49-3.7c0.33-1.25,1.15-2.31,2.27-2.96c1.12-0.65,2.45-0.83,3.7-0.49l0,0
								c2.6,0.7,4.14,3.37,3.44,5.97C18.59,11.84,16.66,13.32,14.45,13.32z M14.45,5.25c-0.56,0-1.11,0.15-1.59,0.43
								c-0.74,0.42-1.27,1.12-1.49,1.94c-0.22,0.82-0.11,1.69,0.32,2.42c0.42,0.74,1.12,1.27,1.94,1.49
								c1.7,0.45,3.45-0.56,3.91-2.26c0.45-1.7-0.56-3.45-2.26-3.91l0,0C15.01,5.29,14.73,5.25,14.45,5.25L14.45,5.25z"/>
						</g>
					</g>
					<g id="Elipse_112" transform="translate(35.485 8.162)">
						<circle id="Elipse_196" class="st3" cx="12.37" cy="6.36" r="2.78"/>
					</g>
					<g id="Elipse_113" transform="translate(15.4 14.456)">
						<circle id="Elipse_197" class="st3" cx="12.37" cy="6.36" r="2.78"/>
					</g>
					<g id="Elipse_114" transform="translate(26.795 51.222)">
						<circle id="Elipse_198" class="st3" cx="11.67" cy="5.66" r="2.09"/>
					</g>
					<g id="Elipse_115" transform="translate(7.897 37.441)">
						<circle id="Elipse_199" class="st3" cx="12.37" cy="6.36" r="2.78"/>
					</g>
					<g id="Trazado_173">
						<path id="Trazado_721" class="st3" d="M39.16,68.38c-2.88,0-6.32-0.97-10.39-2.93C18.46,61.91,10.43,50.14,9.65,37.4
							C8.83,24.04,15.79,12.8,28.74,6.57c10.5-5.32,22.62-3.48,32.4,4.91c0.58,0.5,0.65,1.38,0.15,1.97
							c-0.5,0.58-1.38,0.65-1.97,0.15c-8.9-7.63-19.86-9.33-29.35-4.53c-11.9,5.72-18.28,15.98-17.54,28.15
							c0.71,11.68,8,22.45,17.31,25.6l0.16,0.06c5.35,2.58,9.44,3.3,12.14,2.15c2.64-1.12,3.59-3.93,4.22-5.83
							c0.82-3.6,2.33-6.08,4.5-7.34c2.76-1.62,5.96-0.98,8.44-0.24l0.1,0.03c3.32,1.28,5.86,0.97,7.75-0.95
							c4.13-4.18,4.14-14.73,2.86-17.91c-0.29-0.72,0.06-1.53,0.78-1.82c0.72-0.29,1.53,0.06,1.82,0.78
							c1.47,3.67,1.69,15.69-3.47,20.92c-1.87,1.89-5.23,3.7-10.69,1.62c-1.93-0.57-4.36-1.08-6.18-0.01
							c-1.48,0.87-2.56,2.76-3.2,5.61l-0.04,0.13c-0.69,2.08-1.97,5.96-5.8,7.59C41.88,68.14,40.53,68.4,39.16,68.38z"/>
					</g>
					<g id="Elipse_111" transform="translate(47.98 33.924)">
						<g id="Grupo_496" transform="translate(0.001 0.001)">
							<circle id="Elipse_200" class="st0" cx="14.45" cy="8.45" r="4.87"/>
						</g>
						<g id="Grupo_497" transform="translate(0 0)">
							<path id="Trazado_722" class="st3" d="M14.46,13.32c-0.43,0-0.86-0.06-1.27-0.17c-2.6-0.7-4.14-3.37-3.44-5.97
								c0.7-2.6,3.37-4.14,5.97-3.44c1.25,0.33,2.31,1.15,2.96,2.27c0.65,1.12,0.83,2.45,0.49,3.7c-0.33,1.25-1.15,2.31-2.27,2.96
								C16.15,13.1,15.31,13.32,14.46,13.32z M14.46,5.25c-1.45,0-2.71,0.97-3.09,2.37c-0.45,1.7,0.56,3.45,2.26,3.91
								c0.82,0.22,1.69,0.11,2.43-0.32c0.74-0.42,1.27-1.12,1.49-1.94c0.22-0.82,0.11-1.69-0.32-2.42
								c-0.42-0.74-1.12-1.27-1.94-1.49C15.01,5.29,14.74,5.25,14.46,5.25z"/>
						</g>
					</g>
					<g id="Elipse_116" transform="translate(50.976 36.907)">
						<circle id="Elipse_201" class="st3" cx="11.67" cy="5.66" r="2.09"/>
					</g>
				</g>
			</g>
		</g>
	</g>
	<g id="Grupo_503" transform="translate(737.46 222.447)">
		<g id="Grupo_255" transform="translate(0 65.649)">
			<g id="Deportes">
				<g id="Grupo_499">
					<path id="Trazado_723" class="st3" d="M9.58,17.66V3.58h4.99c5,0,7.5,2.29,7.5,6.86c0.09,1.96-0.65,3.87-2.05,5.25
						c-1.48,1.35-3.45,2.06-5.45,1.96L9.58,17.66z M12.75,6.16v8.92h1.57c1.21,0.07,2.38-0.38,3.23-1.24
						c0.82-0.92,1.24-2.13,1.17-3.37c0.06-1.17-0.36-2.32-1.16-3.17c-0.89-0.81-2.06-1.23-3.26-1.15L12.75,6.16z"/>
					<path id="Trazado_724" class="st3" d="M33.14,13.51h-6.56c0.1,1.46,1.02,2.19,2.76,2.19c1.03,0.02,2.04-0.25,2.92-0.79v2.24
						c-1.13,0.54-2.37,0.8-3.62,0.75c-2.57,0.26-4.87-1.62-5.12-4.19c-0.03-0.31-0.03-0.62,0-0.93c-0.08-1.47,0.45-2.9,1.45-3.97
						c0.94-0.96,2.23-1.49,3.57-1.46c1.27-0.08,2.51,0.4,3.4,1.31c0.84,0.98,1.27,2.25,1.2,3.54L33.14,13.51z M30.26,11.61
						c0-1.44-0.58-2.16-1.75-2.16c-0.5,0-0.98,0.23-1.29,0.62c-0.37,0.43-0.6,0.97-0.66,1.54L30.26,11.61z"/>
					<path id="Trazado_725" class="st3" d="M38.12,16.49h-0.04v5.79h-3.1V7.6h3.1v1.51h0.04c1.21-1.81,3.66-2.3,5.47-1.1
						c0.29,0.19,0.55,0.42,0.78,0.68c0.76,1.06,1.14,2.35,1.07,3.65c0.07,1.45-0.37,2.88-1.24,4.03c-0.8,1-2.02,1.56-3.3,1.52
						C39.79,17.95,38.73,17.42,38.12,16.49z M38.04,12.36v0.8c-0.03,0.61,0.17,1.22,0.55,1.7c0.35,0.43,0.89,0.68,1.44,0.66
						c0.65,0.03,1.27-0.28,1.65-0.82c0.43-0.7,0.63-1.51,0.58-2.32c0-1.77-0.69-2.65-2.06-2.65c-0.6-0.01-1.18,0.25-1.56,0.72
						C38.22,10.99,38,11.67,38.04,12.36L38.04,12.36z"/>
					<path id="Trazado_726" class="st3" d="M52.24,17.9c-1.45,0.08-2.88-0.43-3.95-1.41c-1.94-2.22-1.92-5.54,0.05-7.73
						c1.11-0.98,2.56-1.49,4.03-1.41c1.45-0.08,2.86,0.43,3.93,1.41c0.97,0.99,1.49,2.34,1.42,3.73c0.08,1.47-0.45,2.9-1.47,3.96
						C55.17,17.46,53.72,17.98,52.24,17.9z M52.32,9.73c-0.66-0.03-1.29,0.25-1.71,0.76c-0.44,0.62-0.66,1.38-0.61,2.14
						c0,1.93,0.78,2.9,2.34,2.9c1.49,0,2.23-0.99,2.23-2.97C54.57,10.67,53.82,9.73,52.32,9.73L52.32,9.73z"/>
					<path id="Trazado_727" class="st3" d="M66.3,10.4c-0.4-0.21-0.85-0.31-1.3-0.3c-0.62-0.03-1.21,0.25-1.58,0.74
						c-0.41,0.59-0.61,1.3-0.57,2.02v4.8h-3.1V7.6h3.1v1.86h0.04c0.3-1.22,1.4-2.06,2.65-2.04c0.26-0.01,0.52,0.03,0.77,0.12
						L66.3,10.4z"/>
					<path id="Trazado_728" class="st3" d="M74.4,17.54c-0.65,0.28-1.36,0.4-2.07,0.36c-2.19,0-3.28-1.14-3.28-3.41v-4.6h-1.63V7.6
						h1.63V5.43l3.09-0.88V7.6h2.26v2.29h-2.26v4.07c0,1.05,0.42,1.57,1.25,1.57c0.36-0.01,0.7-0.11,1.01-0.28V17.54z"/>
					<path id="Trazado_729" class="st3" d="M85.1,13.51h-6.56c0.1,1.46,1.02,2.19,2.76,2.19c1.03,0.02,2.04-0.25,2.92-0.79v2.24
						c-1.13,0.54-2.37,0.8-3.62,0.75c-2.57,0.26-4.87-1.62-5.12-4.19c-0.03-0.31-0.03-0.62,0-0.93c-0.08-1.47,0.45-2.9,1.45-3.97
						c0.94-0.96,2.23-1.49,3.57-1.46c1.27-0.08,2.51,0.4,3.4,1.31c0.84,0.98,1.27,2.25,1.2,3.54L85.1,13.51z M82.23,11.61
						c0-1.44-0.58-2.16-1.75-2.16c-0.5,0-0.98,0.23-1.29,0.62c-0.37,0.43-0.6,0.97-0.66,1.54L82.23,11.61z"/>
					<path id="Trazado_730" class="st3" d="M86.29,17.39v-2.52c0.48,0.29,0.99,0.52,1.53,0.69c0.47,0.14,0.95,0.22,1.44,0.23
						c0.44,0.02,0.89-0.06,1.3-0.23c0.29-0.11,0.48-0.38,0.48-0.69c0-0.19-0.08-0.37-0.22-0.49c-0.17-0.14-0.35-0.26-0.55-0.34
						c-0.24-0.1-0.49-0.19-0.74-0.27c-0.27-0.08-0.53-0.17-0.78-0.27c-0.36-0.13-0.72-0.3-1.06-0.49c-0.29-0.16-0.54-0.36-0.77-0.6
						c-0.21-0.23-0.37-0.5-0.47-0.79c-0.11-0.34-0.17-0.71-0.16-1.07c-0.01-0.51,0.11-1.01,0.37-1.45c0.24-0.41,0.58-0.75,0.98-1
						c0.43-0.27,0.9-0.46,1.4-0.57c0.54-0.12,1.09-0.18,1.64-0.18c0.45,0,0.91,0.03,1.35,0.1c0.46,0.07,0.91,0.17,1.35,0.3v2.4
						c-0.39-0.23-0.82-0.4-1.26-0.52c-0.43-0.11-0.87-0.17-1.32-0.17c-0.19,0-0.38,0.02-0.57,0.05c-0.16,0.03-0.32,0.08-0.48,0.16
						c-0.13,0.06-0.24,0.15-0.32,0.27c-0.08,0.11-0.12,0.24-0.12,0.37c0,0.17,0.06,0.34,0.18,0.47c0.13,0.14,0.29,0.26,0.46,0.34
						c0.2,0.1,0.42,0.19,0.63,0.26c0.23,0.08,0.46,0.15,0.69,0.23c0.38,0.13,0.76,0.29,1.12,0.47c0.31,0.16,0.6,0.36,0.86,0.6
						c0.24,0.23,0.42,0.5,0.55,0.8c0.31,0.86,0.24,1.82-0.2,2.63c-0.26,0.42-0.61,0.77-1.03,1.03c-0.46,0.28-0.96,0.47-1.48,0.58
						c-0.57,0.12-1.16,0.18-1.74,0.18C88.31,17.9,87.28,17.73,86.29,17.39z"/>
				</g>
			</g>
		</g>
		<g id="Trazado_161" transform="translate(5.76)">
			<g id="Grupo_500" transform="translate(0)">
				<path id="Trazado_731" class="st0" d="M9.59,22.39C9.97,11.63,19,3.21,29.76,3.58c10.76,0.38,19.18,9.4,18.81,20.17
					c-0.38,10.76-9.4,19.18-20.17,18.81c0,0-0.01,0-0.01,0C17.64,42.18,9.22,33.15,9.59,22.39z"/>
			</g>
			<path id="Trazado_732" class="st3" d="M38.68,36.74c-7.56,5.36-18.03,3.58-23.39-3.98c-5.36-7.56-3.58-18.03,3.98-23.39
				c7.56-5.36,18.03-3.58,23.39,3.98c0.06,0.08,0.12,0.17,0.18,0.25c0.57-0.77,1.19-1.51,1.85-2.22C38.23,2.77,26.02,1.02,17.4,7.47
				c-8.62,6.45-10.38,18.67-3.93,27.29c6.13,8.19,17.54,10.25,26.14,4.72C39.25,38.58,38.94,37.67,38.68,36.74z"/>
		</g>
		<g id="Trazado_157" transform="translate(14.405 9.369)">
			<path id="Trazado_733" class="st3" d="M16.14,18.34c-0.25,0-0.5-0.07-0.72-0.2l-5.16-3.11c-0.43-0.26-0.69-0.74-0.67-1.24
				l0.22-6.2c0.02-0.52,0.33-0.99,0.8-1.22l5.71-2.67c0.43-0.2,0.93-0.17,1.34,0.08l4.81,3.04c0.42,0.27,0.67,0.73,0.65,1.23
				l-0.22,6.2c-0.02,0.51-0.31,0.96-0.76,1.2l-5.36,2.74C16.58,18.29,16.36,18.34,16.14,18.34z M12.4,13.07l3.79,2.28l3.94-2.01
				l0.16-4.58l-3.49-2.2l-4.25,1.98L12.4,13.07z M21.5,14.21L21.5,14.21z"/>
		</g>
		<g id="Trazado_158" transform="translate(6.447 16.012)">
			<path id="Trazado_734" class="st3" d="M13.57,18.03h-0.05c-0.77-0.03-1.37-0.67-1.35-1.44l0.3-8.43l-2.42-2.14
				c-0.54-0.55-0.53-1.44,0.02-1.98c0.5-0.49,1.28-0.54,1.83-0.11l2.91,2.58c0.31,0.28,0.48,0.68,0.47,1.09l-0.32,9.09
				C14.94,17.43,14.32,18.03,13.57,18.03z"/>
		</g>
		<g id="Trazado_160" transform="translate(18.468 0.984)">
			<path id="Trazado_735" class="st3" d="M16.74,10.61c-0.28,0-0.55-0.08-0.78-0.23L10.2,6.53C9.59,6.05,9.48,5.18,9.96,4.56
				c0.43-0.55,1.19-0.7,1.8-0.36l4.86,3.25l3.99-3.53c0.54-0.55,1.43-0.56,1.98-0.02c0.55,0.54,0.56,1.43,0.02,1.98
				c-0.05,0.05-0.1,0.09-0.15,0.13l-4.79,4.24C17.41,10.48,17.08,10.61,16.74,10.61z"/>
		</g>
		<g id="Grupo_146" transform="translate(36.062 2.65)">
			<g id="Elipse_79">
				<g id="Grupo_501" transform="translate(0 0)">
					<ellipse id="Elipse_202" class="st0" cx="33.32" cy="26.75" rx="23.74" ry="23.18"/>
				</g>
				<g id="Grupo_502">
					<path id="Trazado_736" class="st3" d="M33.32,49.93c-13.09,0-23.74-10.4-23.74-23.18S20.23,3.58,33.32,3.58
						s23.74,10.4,23.74,23.18C57.06,39.53,46.41,49.93,33.32,49.93z M33.32,6.37c-11.55,0-20.95,9.14-20.95,20.39
						s9.4,20.39,20.95,20.39S54.27,38,54.27,26.76S44.87,6.37,33.32,6.37L33.32,6.37z"/>
				</g>
			</g>
			<g id="Trazado_151" transform="translate(0.92 0.986)">
				<path id="Trazado_737" class="st3" d="M20.32,40.14c-0.89,0-1.81-0.03-2.76-0.08c-0.28-0.01-0.54-0.11-0.77-0.28
					c-14.31-10.8-2.93-28.26-2.81-28.44c0.48-0.61,1.35-0.72,1.96-0.24c0.55,0.43,0.7,1.19,0.36,1.79l0,0
					c-0.41,0.62-9.85,15.18,1.83,24.4c8.7,0.4,13.78-1.39,16.68-5.93c-3.07-3.67-7.8-14.91,1.43-27.23
					c0.42-0.65,1.28-0.84,1.93-0.42c0.65,0.42,0.84,1.28,0.42,1.93c-0.04,0.06-0.08,0.11-0.12,0.16
					c-9.43,12.57-2.39,23.19-1.05,24.26c0.53,0.42,0.68,1.16,0.35,1.76C34.7,37.52,29.26,40.14,20.32,40.14z"/>
			</g>
			<g id="Trazado_152" transform="translate(27.42 26.952)">
				<path id="Trazado_738" class="st3" d="M25.74,11.12c-6.66-4.65-12.26-5.07-15.79-4.6L9.58,3.75c4.01-0.53,10.35-0.08,17.75,5.08
					L25.74,11.12z"/>
			</g>
			<g id="Trazado_153" transform="translate(5.659 28.67)">
				<path id="Trazado_739" class="st3" d="M25.08,18.98c-8.14,0-14.73-5.86-15.03-6.13c-0.54-0.56-0.52-1.44,0.04-1.98
					c0.5-0.48,1.29-0.52,1.83-0.09c0.1,0.09,7.56,6.67,15.62,5.19c5.06-0.93,9.4-4.84,12.89-11.64c0.4-0.66,1.26-0.87,1.92-0.47
					c0.6,0.36,0.84,1.11,0.56,1.75c-3.91,7.61-8.92,12.02-14.89,13.11C27.05,18.9,26.06,18.98,25.08,18.98z"/>
			</g>
			<g id="Trazado_154" transform="translate(24.215 10.615)">
				<path id="Trazado_740" class="st3" d="M31.25,16.77C20.16,4.1,10.41,6.55,10.31,6.58l-0.73-2.7
					c0.46-0.13,11.54-2.93,23.77,11.05L31.25,16.77z"/>
			</g>
			<g id="Trazado_155" transform="translate(8.988 1.289)">
				<path id="Trazado_741" class="st3" d="M18.55,38.75c-0.33,0-0.66-0.12-0.91-0.34C17.46,38.26,0.73,23.44,16,4.11
					c0.44-0.64,1.31-0.8,1.95-0.37s0.8,1.31,0.37,1.95c-0.04,0.05-0.08,0.11-0.12,0.15c-13.58,17.2,0.66,29.92,1.27,30.45
					c0.58,0.51,0.64,1.4,0.13,1.98C19.32,38.56,18.95,38.74,18.55,38.75L18.55,38.75z"/>
			</g>
		</g>
		<path id="Trazado_742" class="st3" d="M44.94,20.47l-0.02-0.01l0.16-4.58l3.68-2.48c0.34-0.45,0.7-0.89,1.07-1.32
			c0.04-0.33-0.04-0.66-0.22-0.93c-0.43-0.64-1.3-0.81-1.94-0.38l-4.74,3.19c-0.37,0.25-0.6,0.66-0.61,1.11L42.1,21.1
			c-0.02,0.46,0.2,0.9,0.57,1.17l1.44,1.06C44.33,22.36,44.61,21.41,44.94,20.47z"/>
		<path id="Trazado_743" class="st3" d="M43.74,33.58L37.54,30l-6.74,3.55l0.03,6.86c0,0.77,0.63,1.39,1.4,1.39h0.01
			c0.77,0,1.39-0.63,1.39-1.4l-0.02-5.17l3.88-2.04l4.11,2.37l-0.12,3.46c-0.09,0.77,0.47,1.46,1.23,1.55s1.46-0.47,1.55-1.23
			c0.01-0.07,0.01-0.14,0.01-0.21l0.09-2.68C44.1,35.51,43.89,34.55,43.74,33.58z"/>
	</g>
</g>
</svg>
