<?xml version="1.0" encoding="utf-8"?>
<!-- Generator: Adobe Illustrator 23.0.1, SVG Export Plug-In . SVG Version: 6.00 Build 0)  -->
<svg version="1.1" id="Capa_1" xmlns="http://www.w3.org/2000/svg" xmlns:xlink="http://www.w3.org/1999/xlink" x="0px" y="0px"
	 viewBox="0 0 566.41 70.88" style="enable-background:new 0 0 566.41 70.88;" xml:space="preserve">
<style type="text/css">
	.st0{fill:#ADBF7C;}
</style>
<g id="Grupo_170" transform="translate(0 6.447)">
	<path id="Trazado_187" class="st0" d="M6.2,20.62c9.6,5.05,14.91,7.33,14.91,7.33l11.37-10.87L7.72,15.81
		C7.72,15.81-3.4,15.56,6.2,20.62z"/>
	<path id="Trazado_188" class="st0" d="M47.68,6.76c-7.83,7.07-33.39,34.82-33.39,34.82H2.3c0,0-5.17,2.78,0,5.31
		s4.85,6.57,4.85,6.57h8.15l20.72-15.92c0,0,10.11,10.36,13.39,13.14s8.72,4.68,5.56-4.04c-3.29-10.11-8.34-21.48-8.34-21.48
		s13.64-14.4,17.18-17.44C64.46,1.92,55.52-0.31,47.68,6.76z"/>
</g>
<g id="Grupo_171" transform="translate(106.881 0)">
	<path id="Trazado_189" class="st0" d="M32,3.38L32,3.38C32,1.51,28.16,0,23.41,0s-8.59,1.51-8.59,3.37v0.02
		C6.57,3.61,0,10.36-0.01,18.62V44.3c0,8.42,6.83,15.24,15.25,15.24c0,0,0,0,0.01,0h16.68c8.42,0,15.24-6.82,15.24-15.24
		c0,0,0,0,0,0V18.61C47.17,10.23,40.39,3.42,32,3.38z M11.54,49.7c-2.56,0-4.63-2.07-4.63-4.63s2.07-4.63,4.63-4.63
		c2.56,0,4.63,2.07,4.63,4.63c0,0,0,0,0,0C16.17,47.62,14.1,49.7,11.54,49.7C11.54,49.7,11.54,49.7,11.54,49.7z M35.79,49.7
		c-2.56,0-4.63-2.08-4.63-4.63s2.08-4.63,4.63-4.63c2.56,0,4.63,2.07,4.63,4.63C40.43,47.62,38.35,49.7,35.79,49.7
		C35.8,49.7,35.8,49.7,35.79,49.7z M40.43,31.84c0,2.42-1.96,4.38-4.38,4.38H11.12c-2.42,0-4.38-1.96-4.38-4.38L4.76,17.52
		c0-2.42,1.96-4.38,4.38-4.38c0,0,0,0,0,0h28.89c2.42,0,4.38,1.96,4.38,4.38c0,0,0,0,0,0L40.43,31.84z"/>
	<path id="Trazado_190" class="st0" d="M37.25,62.62c-1.91-1.33-4-1.63-4.66-0.68s0.35,2.81,2.26,4.13s4,1.63,4.66,0.68
		S39.16,63.95,37.25,62.62z"/>
	<path id="Trazado_191" class="st0" d="M10,62.62c-1.91,1.33-2.92,3.18-2.26,4.13s2.75,0.65,4.66-0.68s2.92-3.18,2.26-4.13
		S11.91,61.29,10,62.62z"/>
</g>
<g id="Grupo_172" transform="translate(197.929 5.732)">
	<path id="Trazado_192" class="st0" d="M17.21,40.31c-0.46-0.37-1.12-0.3-1.49,0.16c-0.03,0.04-0.06,0.08-0.08,0.12
		c-1.46,2.4-5.21,8.63-8.39,14.39c-3.87,7.01,3.9,6.01,6.28,2.96c0.11-0.14,0.2-0.28,0.29-0.43l8.39-11.84
		c0.35-0.49,0.25-1.18-0.22-1.55L17.21,40.31z"/>
	<path id="Trazado_193" class="st0" d="M35.92,43.67c-0.37-1.6-1.2-3.05-2.4-4.18l-7.1-6.66c-0.46-0.43-0.69-1.05-0.62-1.68l1.14-10
		c0.26-2.3-0.78-4.56-2.71-5.84c-0.9-0.6-2.01-0.79-3.05-0.53l-0.17,0.04c-1.14,0.29-1.99,1.24-2.13,2.41L16.8,33.92
		c-0.08,0.63,0.15,1.26,0.62,1.7l9.48,8.88c1.04,0.97,1.86,2.16,2.4,3.48c0.95,2.34,2.4,5.9,3.73,9.73c2.02,5.81,6.82,1.58,5.36-3.3
		C37.7,51.48,36.65,46.89,35.92,43.67z"/>
	<path id="Trazado_194" class="st0" d="M23.87,12.32c3.01,0,5.46-2.44,5.46-5.46c0-0.66-0.13-1.31-0.37-1.92
		c0-0.13-0.03-0.26-0.04-0.4c1.25-0.49,3.71-1.47,4.73-1.98c1.39-0.7-0.82-1.33-0.82-1.33l-4.58,1.16c-1.5-2.72-4.93-3.71-7.65-2.21
		c-2.72,1.5-3.71,4.93-2.21,7.65c0.06,0.11,0.12,0.22,0.19,0.32C19.18,10.6,21.36,12.32,23.87,12.32z"/>
	<path id="Trazado_195" class="st0" d="M14.3,33.75l2.49-20.38c0,0-12.49-7.58-12.49,2.95c0,5.81-2.27,8.09-2.27,8.09
		s-6.65,9.1,4.16,11.45C10.62,36.69,13.18,35.52,14.3,33.75z"/>
	<path id="Trazado_196" class="st0" d="M39.25,31.14c-2.15-2.55-4.91-4.53-8.02-5.74c-1.6-0.77-4.7,1.26-2.34,5.05
		c0.94,1.52,6.81,3.98,7.66,4.33S42.45,34.76,39.25,31.14z"/>
</g>
<path id="Trazado_197" class="st0" d="M343.25,32.59c-0.2-0.91-1-1.55-1.93-1.55h-9.74c1.07-2.71,1.66-5.59,1.74-8.51
	c0-0.21-0.05-0.42-0.07-0.63c0.03-0.45,0.07-0.89,0.07-1.35c0-9.49-7.69-17.18-17.18-17.18s-17.18,7.69-17.18,17.18
	c0,0.46,0.03,0.9,0.07,1.35c-0.02,0.21-0.07,0.42-0.07,0.63c0.11,2.93,0.76,5.81,1.92,8.51h-9.92c-0.93,0-1.73,0.64-1.93,1.55
	l-7.92,35.88c-0.23,1.07,0.44,2.13,1.51,2.36c0.14,0.03,0.28,0.05,0.42,0.05h66.2c1.09,0,1.98-0.89,1.98-1.98
	c0-0.14-0.02-0.28-0.05-0.42L343.25,32.59z M316.14,10.33c5.64,0,10.22,4.58,10.22,10.22s-4.58,10.22-10.22,10.22
	c-5.64,0-10.22-4.58-10.22-10.22S310.49,10.33,316.14,10.33L316.14,10.33z M339.73,35l4.37,19.81l-21.78-7.89
	c2.89-3.72,5.42-7.72,7.54-11.92H339.73z M285.5,66.92l4.73-21.43l22.22,21.43H285.5z M315.3,66.92l-24.57-23.7l1.82-8.22h10.11
	c5.05,9.97,13.48,19.24,13.48,19.24s2.15-2.23,4.91-5.68l23.56,8.53l2.17,9.82L315.3,66.92z"/>
<g id="Grupo_173" transform="translate(395.857)">
	<path id="Trazado_198" class="st0" d="M15.35,22.41h0.04V7.45c0-0.73-0.59-1.33-1.32-1.33s-1.33,0.59-1.33,1.32c0,0,0,0,0,0.01
		v14.97H8.95V7.45c0-0.73-0.59-1.33-1.32-1.33S6.3,6.71,6.3,7.44c0,0,0,0,0,0.01v14.97H2.7V7.45c0-0.73-0.59-1.33-1.32-1.33
		S0.05,6.71,0.05,7.44c0,0,0,0,0,0.01v14.97c0,0-0.5,1.96,1.96,3.73s4.3,2.84,4.3,4.11V45c-0.55,1.95-0.77,5.41-2.27,9
		c-2.26,5.4,1.61,10.61,3.6,10.61s5.91-5.23,3.6-10.61c-1.5-3.5-1.73-6.99-2.27-8.97V30.81c0.1-0.17,0.15-0.36,0.15-0.56
		c0-1.26,1.83-2.34,4.3-4.11S15.35,22.41,15.35,22.41z"/>
	<path id="Trazado_199" class="st0" d="M35.23,20.02c-11.44,0-20.72,9.28-20.72,20.72s9.28,20.72,20.72,20.72
		c11.44,0,20.72-9.28,20.72-20.72c0,0,0,0,0,0C55.95,29.29,46.67,20.02,35.23,20.02z M20.48,41.52c-0.01-0.26-0.04-0.51-0.04-0.78
		c0-8.16,6.61-14.78,14.77-14.78c1.03,0,2.06,0.11,3.07,0.32v4.17c-5.68-1.69-11.65,1.54-13.34,7.21c-0.3,1-0.45,2.04-0.45,3.08
		c0,0.14,0.02,0.28,0.02,0.43L20.48,41.52z M35.23,55.52c-4.53,0-8.8-2.08-11.6-5.64l3.38-2.23c3.82,4.54,10.59,5.12,15.13,1.3
		s5.12-10.59,1.3-15.13c-0.89-1.05-1.97-1.93-3.19-2.57v-4.4c7.67,2.77,11.64,11.24,8.87,18.91C47.01,51.62,41.45,55.52,35.23,55.52
		L35.23,55.52z"/>
	<path id="Trazado_200" class="st0" d="M68.2,32.65l1.73-24c0.04-0.71-0.51-2.49-1.14-2.82c-1.57-0.82-4.62-1.69-6.78,2.19
		c-4.3,10.74-3.54,23.17,0,27.02c2.02,5.38,0.65,7.09,0.65,10.25s0.37,7.07-1.15,10.23s-3.03,7.7,0.13,9.1
		c3.04,1.34,5.37-1.64,7.23-3c0.15-0.11,0.25-0.26,0.29-0.44C71.66,49.94,67.2,48.44,68.2,32.65z"/>
</g>
<g id="Grupo_174" transform="translate(508.676 1.979)">
	<path id="Trazado_201" class="st0" d="M28.87,9.53C12.92,9.53,0,22.45,0,38.4s12.92,28.87,28.87,28.87
		c15.94,0,28.87-12.92,28.87-28.87C57.72,22.46,44.8,9.55,28.87,9.53z M30.47,61.25V54.4c0.02-0.55-0.41-1-0.96-1.02
		s-1,0.41-1.02,0.96c0,0.02,0,0.04,0,0.06v6.91C16.41,61.1,6.57,51.56,5.99,39.5h6.98c0.55,0.02,1-0.41,1.02-0.96s-0.41-1-0.96-1.02
		c-0.02,0-0.04,0-0.06,0H5.98c0.48-12.15,10.35-21.81,22.51-22.03v7.12c0.02,0.55,0.47,0.98,1.02,0.96
		c0.52-0.02,0.94-0.44,0.96-0.96v-7.06c11.65,0.83,20.82,10.29,21.29,21.96h-6.99c-0.55-0.02-1,0.41-1.02,0.96s0.41,1,0.96,1.02
		c0.02,0,0.04,0,0.06,0h6.98C51.18,51.08,42.04,60.42,30.47,61.25L30.47,61.25z"/>
	<path id="Trazado_202" class="st0" d="M24.41,7.28h10.35c0.35,0,0.64-0.29,0.64-0.64V5.47c0-2.12-1.72-3.83-3.83-3.83l0,0h-3.96
		c-2.12,0-3.83,1.71-3.83,3.83c0,0,0,0,0,0v1.17C23.78,6.99,24.06,7.28,24.41,7.28C24.41,7.28,24.41,7.28,24.41,7.28z"/>
	<path id="Trazado_203" class="st0" d="M24.24,33.26c-6.24,6.25-6.07,16.55-6.07,16.55s10.3,0.18,16.55-6.07s6.07-16.55,6.07-16.55
		S30.48,27.02,24.24,33.26z M29.59,42.99c-2.54,0-4.59-2.06-4.59-4.59c0-2.54,2.06-4.59,4.59-4.59c2.54,0,4.59,2.06,4.59,4.59
		C34.18,40.93,32.12,42.99,29.59,42.99C29.59,42.99,29.59,42.99,29.59,42.99L29.59,42.99z"/>
</g>
</svg>
